<svg xmlns="http://www.w3.org/2000/svg" xmlns:xlink="http://www.w3.org/1999/xlink" width="42" zoomAndPan="magnify" viewBox="0 0 31.5 31.499999" height="42" preserveAspectRatio="xMidYMid meet" version="1.0"><defs><clipPath id="d1a06bf919"><path d="M 0.449219 0.449219 L 31.007812 0.449219 L 31.007812 31.007812 L 0.449219 31.007812 Z M 0.449219 0.449219 " clip-rule="nonzero"/></clipPath><clipPath id="ca3efa9324"><path d="M 10 4.871094 L 21 4.871094 L 21 26.621094 L 10 26.621094 Z M 10 4.871094 " clip-rule="nonzero"/></clipPath></defs><g clip-path="url(#d1a06bf919)"><path fill="#ffffff" d="M 7.234375 0.449219 L 24.417969 0.449219 C 26.214844 0.449219 27.941406 1.164062 29.214844 2.4375 C 30.484375 3.707031 31.199219 5.433594 31.199219 7.234375 L 31.199219 24.417969 C 31.199219 26.214844 30.484375 27.941406 29.214844 29.214844 C 27.941406 30.484375 26.214844 31.199219 24.417969 31.199219 L 7.234375 31.199219 C 5.433594 31.199219 3.707031 30.484375 2.4375 29.214844 C 1.164062 27.941406 0.449219 26.214844 0.449219 24.417969 L 0.449219 7.234375 C 0.449219 5.433594 1.164062 3.707031 2.4375 2.4375 C 3.707031 1.164062 5.433594 0.449219 7.234375 0.449219 " fill-opacity="1" fill-rule="nonzero"/></g><path fill="#bddef6" d="M 24.3125 13.371094 C 21.144531 10.175781 17.292969 8.882812 15.707031 10.480469 C 15.683594 10.503906 15.664062 10.535156 15.640625 10.5625 C 15.613281 10.535156 15.59375 10.503906 15.566406 10.480469 C 13.988281 8.882812 10.132812 10.175781 6.964844 13.371094 C 3.796875 16.5625 2.511719 20.445312 4.097656 22.042969 C 5.683594 23.636719 9.53125 22.34375 12.703125 19.152344 C 14.046875 17.796875 15.050781 16.316406 15.640625 14.9375 C 16.226562 16.316406 17.234375 17.792969 18.574219 19.152344 C 21.746094 22.34375 25.59375 23.636719 27.179688 22.042969 C 28.765625 20.445312 27.480469 16.5625 24.3125 13.371094 Z M 24.3125 13.371094 " fill-opacity="1" fill-rule="nonzero"/><g clip-path="url(#ca3efa9324)"><path fill="#253447" d="M 18.855469 20.613281 C 19.410156 21.167969 19.980469 21.652344 20.554688 22.09375 C 19.449219 24.824219 17.660156 26.609375 15.636719 26.609375 C 13.628906 26.609375 11.851562 24.851562 10.75 22.160156 C 11.351562 21.695312 11.953125 21.199219 12.535156 20.613281 C 13.976562 19.152344 15.058594 17.558594 15.695312 16.078125 C 16.332031 17.558594 17.40625 19.152344 18.855469 20.613281 Z M 15.578125 9.824219 C 15.605469 9.851562 15.625 9.886719 15.652344 9.914062 C 15.675781 9.886719 15.699219 9.851562 15.726562 9.824219 C 16.746094 8.796875 18.640625 8.902344 20.730469 9.867188 C 19.648438 6.878906 17.777344 4.886719 15.636719 4.886719 C 13.5 4.886719 11.628906 6.886719 10.546875 9.878906 C 12.644531 8.902344 14.554688 8.789062 15.578125 9.824219 Z M 15.578125 9.824219 " fill-opacity="1" fill-rule="nonzero"/></g></svg>