<svg xmlns="http://www.w3.org/2000/svg" xmlns:xlink="http://www.w3.org/1999/xlink" width="42" zoomAndPan="magnify" viewBox="0 0 31.5 31.499999" height="42" preserveAspectRatio="xMidYMid meet" version="1.0"><defs><clipPath id="68520ff6b3"><path d="M 0.449219 0.449219 L 31.007812 0.449219 L 31.007812 31.007812 L 0.449219 31.007812 Z M 0.449219 0.449219 " clip-rule="nonzero"/></clipPath><clipPath id="cbe666fe90"><path d="M 5.777344 10 L 17 10 L 17 28.226562 L 5.777344 28.226562 Z M 5.777344 10 " clip-rule="nonzero"/></clipPath><clipPath id="bfe4e9c384"><path d="M 15 10 L 26.027344 10 L 26.027344 28.226562 L 15 28.226562 Z M 15 10 " clip-rule="nonzero"/></clipPath><clipPath id="297738b310"><path d="M 5.777344 3.503906 L 26.027344 3.503906 L 26.027344 19 L 5.777344 19 Z M 5.777344 3.503906 " clip-rule="nonzero"/></clipPath></defs><g clip-path="url(#68520ff6b3)"><path fill="#3f0f3f" d="M 7.234375 0.449219 L 24.417969 0.449219 C 26.214844 0.449219 27.941406 1.164062 29.214844 2.4375 C 30.484375 3.707031 31.199219 5.433594 31.199219 7.234375 L 31.199219 24.417969 C 31.199219 26.214844 30.484375 27.941406 29.214844 29.214844 C 27.941406 30.484375 26.214844 31.199219 24.417969 31.199219 L 7.234375 31.199219 C 5.433594 31.199219 3.707031 30.484375 2.4375 29.214844 C 1.164062 27.941406 0.449219 26.214844 0.449219 24.417969 L 0.449219 7.234375 C 0.449219 5.433594 1.164062 3.707031 2.4375 2.4375 C 3.707031 1.164062 5.433594 0.449219 7.234375 0.449219 " fill-opacity="1" fill-rule="nonzero"/></g><g clip-path="url(#cbe666fe90)"><path fill="#ffffff" d="M 15.941406 28.125 C 15.808594 28.125 15.671875 28.082031 15.5625 28 L 6.039062 21.054688 C 5.875 20.933594 5.777344 20.746094 5.777344 20.542969 L 5.777344 11.066406 C 5.777344 10.828125 5.914062 10.609375 6.128906 10.5 C 6.339844 10.390625 6.597656 10.40625 6.796875 10.546875 L 16.316406 17.300781 C 16.484375 17.417969 16.585938 17.613281 16.585938 17.820312 L 16.585938 27.488281 C 16.585938 27.726562 16.449219 27.949219 16.230469 28.054688 C 16.140625 28.101562 16.039062 28.125 15.941406 28.125 Z M 7.066406 20.21875 L 15.296875 26.226562 L 15.296875 18.148438 L 7.066406 12.308594 Z M 7.066406 20.21875 " fill-opacity="1" fill-rule="nonzero"/></g><g clip-path="url(#bfe4e9c384)"><path fill="#ffffff" d="M 15.941406 28.125 C 15.84375 28.125 15.742188 28.101562 15.648438 28.054688 C 15.433594 27.945312 15.296875 27.726562 15.296875 27.488281 L 15.296875 17.820312 C 15.296875 17.613281 15.398438 17.421875 15.5625 17.300781 L 25.007812 10.496094 C 25.203125 10.355469 25.460938 10.335938 25.675781 10.441406 C 25.894531 10.550781 26.027344 10.773438 26.027344 11.011719 L 26.027344 20.640625 C 26.027344 20.84375 25.929688 21.035156 25.765625 21.152344 L 16.320312 28.003906 C 16.207031 28.082031 16.074219 28.125 15.941406 28.125 Z M 16.585938 18.144531 L 16.585938 26.230469 L 24.742188 20.316406 L 24.742188 12.265625 Z M 16.585938 18.144531 " fill-opacity="1" fill-rule="nonzero"/></g><g clip-path="url(#297738b310)"><path fill="#ffffff" d="M 15.941406 18.457031 C 15.808594 18.457031 15.679688 18.417969 15.566406 18.339844 L 6.046875 11.585938 C 5.878906 11.464844 5.78125 11.273438 5.777344 11.070312 C 5.777344 10.863281 5.875 10.671875 6.042969 10.550781 L 15.5625 3.703125 C 15.789062 3.539062 16.09375 3.539062 16.320312 3.703125 L 25.765625 10.550781 C 25.929688 10.671875 26.03125 10.863281 26.027344 11.070312 C 26.027344 11.273438 25.929688 11.464844 25.761719 11.585938 L 16.316406 18.335938 C 16.207031 18.417969 16.074219 18.457031 15.941406 18.457031 Z M 7.523438 11.0625 L 15.941406 17.03125 L 24.289062 11.0625 L 15.941406 5.007812 Z M 7.523438 11.0625 " fill-opacity="1" fill-rule="nonzero"/></g></svg>