<svg xmlns="http://www.w3.org/2000/svg" xmlns:xlink="http://www.w3.org/1999/xlink" width="42" zoomAndPan="magnify" viewBox="0 0 31.5 31.499999" height="42" preserveAspectRatio="xMidYMid meet" version="1.0"><defs><clipPath id="b3eb65014e"><path d="M 0.449219 0.449219 L 31.007812 0.449219 L 31.007812 31.007812 L 0.449219 31.007812 Z M 0.449219 0.449219 " clip-rule="nonzero"/></clipPath><clipPath id="87c088ce4a"><path d="M 4.6875 4.792969 L 26.4375 4.792969 L 26.4375 26.542969 L 4.6875 26.542969 Z M 4.6875 4.792969 " clip-rule="nonzero"/></clipPath><clipPath id="5afe2c026b"><path d="M 5 5 L 26.4375 5 L 26.4375 26 L 5 26 Z M 5 5 " clip-rule="nonzero"/></clipPath></defs><g clip-path="url(#b3eb65014e)"><path fill="#1f7ff6" d="M 7.234375 0.449219 L 24.417969 0.449219 C 26.214844 0.449219 27.941406 1.164062 29.214844 2.4375 C 30.484375 3.707031 31.199219 5.433594 31.199219 7.234375 L 31.199219 24.417969 C 31.199219 26.214844 30.484375 27.941406 29.214844 29.214844 C 27.941406 30.484375 26.214844 31.199219 24.417969 31.199219 L 7.234375 31.199219 C 5.433594 31.199219 3.707031 30.484375 2.4375 29.214844 C 1.164062 27.941406 0.449219 26.214844 0.449219 24.417969 L 0.449219 7.234375 C 0.449219 5.433594 1.164062 3.707031 2.4375 2.4375 C 3.707031 1.164062 5.433594 0.449219 7.234375 0.449219 " fill-opacity="1" fill-rule="nonzero"/></g><g clip-path="url(#87c088ce4a)"><path fill="#1f7ff6" d="M 28.828125 36.308594 L 3.046875 36.308594 C -1.226562 36.308594 -4.6875 32.84375 -4.6875 28.574219 L -4.6875 2.792969 C -4.6875 -1.480469 -1.226562 -4.941406 3.046875 -4.941406 L 28.828125 -4.941406 C 33.097656 -4.941406 36.5625 -1.480469 36.5625 2.792969 L 36.5625 28.574219 C 36.5625 32.84375 33.097656 36.308594 28.828125 36.308594 Z M 28.828125 36.308594 " fill-opacity="1" fill-rule="nonzero"/></g><g clip-path="url(#5afe2c026b)"><path fill="#ffffff" d="M 26.25 15.679688 C 26.25 10.078125 21.671875 5.371094 16.023438 5.371094 C 10.378906 5.371094 5.625 9.90625 5.625 15.503906 C 5.625 15.683594 5.628906 25.996094 5.628906 25.996094 L 16.023438 25.984375 C 21.675781 25.984375 26.25 21.277344 26.25 15.679688 Z M 9.695312 21.941406 L 10.75 18.488281 C 10.300781 17.65625 10.042969 16.699219 10.042969 15.683594 C 10.042969 12.425781 12.679688 9.789062 15.9375 9.789062 C 19.191406 9.789062 21.828125 12.425781 21.828125 15.683594 C 21.828125 18.9375 19.191406 21.574219 15.9375 21.574219 C 15.046875 21.574219 14.191406 21.375 13.433594 21.019531 Z M 9.695312 21.941406 " fill-opacity="1" fill-rule="nonzero"/></g></svg>