<svg xmlns="http://www.w3.org/2000/svg" xmlns:xlink="http://www.w3.org/1999/xlink" width="42" zoomAndPan="magnify" viewBox="0 0 31.5 31.499999" height="42" preserveAspectRatio="xMidYMid meet" version="1.0"><defs><clipPath id="bff779a336"><path d="M 0.449219 0.449219 L 31.007812 0.449219 L 31.007812 31.007812 L 0.449219 31.007812 Z M 0.449219 0.449219 " clip-rule="nonzero"/></clipPath><clipPath id="6d4dfe1ae8"><path d="M 6.273438 6 L 25.023438 6 L 25.023438 25 L 6.273438 25 Z M 6.273438 6 " clip-rule="nonzero"/></clipPath><clipPath id="f42d46a335"><path d="M 11 3.957031 L 20 3.957031 L 20 27.207031 L 11 27.207031 Z M 11 3.957031 " clip-rule="nonzero"/></clipPath></defs><g clip-path="url(#bff779a336)"><path fill="#ffffff" d="M 7.234375 0.449219 L 24.417969 0.449219 C 26.214844 0.449219 27.941406 1.164062 29.214844 2.4375 C 30.484375 3.707031 31.199219 5.433594 31.199219 7.234375 L 31.199219 24.417969 C 31.199219 26.214844 30.484375 27.941406 29.214844 29.214844 C 27.941406 30.484375 26.214844 31.199219 24.417969 31.199219 L 7.234375 31.199219 C 5.433594 31.199219 3.707031 30.484375 2.4375 29.214844 C 1.164062 27.941406 0.449219 26.214844 0.449219 24.417969 L 0.449219 7.234375 C 0.449219 5.433594 1.164062 3.707031 2.4375 2.4375 C 3.707031 1.164062 5.433594 0.449219 7.234375 0.449219 " fill-opacity="1" fill-rule="nonzero"/></g><g clip-path="url(#6d4dfe1ae8)"><path fill="#18191a" d="M 8.890625 15.582031 C 8.890625 16.457031 9.054688 17.300781 9.382812 18.109375 C 9.714844 18.917969 10.183594 19.640625 10.796875 20.265625 L 10.796875 23.574219 C 9.933594 23.054688 9.171875 22.414062 8.515625 21.648438 C 7.863281 20.882812 7.34375 20.035156 6.964844 19.105469 C 6.582031 18.175781 6.359375 17.207031 6.292969 16.203125 C 6.222656 15.199219 6.316406 14.210938 6.570312 13.238281 C 6.824219 12.265625 7.222656 11.355469 7.769531 10.511719 C 8.320312 9.667969 8.984375 8.929688 9.773438 8.300781 C 10.558594 7.671875 11.425781 7.179688 12.371094 6.832031 C 13.316406 6.480469 14.292969 6.285156 15.300781 6.25 L 15.300781 8.855469 C 14.871094 8.878906 14.449219 8.941406 14.035156 9.042969 C 13.617188 9.144531 13.214844 9.285156 12.824219 9.464844 C 12.433594 9.644531 12.066406 9.859375 11.714844 10.109375 C 11.367188 10.355469 11.046875 10.636719 10.75 10.945312 C 10.453125 11.253906 10.191406 11.589844 9.960938 11.949219 C 9.730469 12.3125 9.53125 12.6875 9.375 13.085938 C 9.214844 13.484375 9.09375 13.890625 9.011719 14.3125 C 8.929688 14.730469 8.890625 15.15625 8.890625 15.582031 Z M 15.882812 24.914062 L 15.882812 22.3125 C 16.542969 22.289062 17.1875 22.175781 17.8125 21.964844 C 18.4375 21.753906 19.023438 21.457031 19.5625 21.078125 C 20.101562 20.695312 20.574219 20.246094 20.980469 19.726562 C 21.386719 19.207031 21.710938 18.640625 21.949219 18.027344 C 22.191406 17.414062 22.335938 16.777344 22.390625 16.121094 C 22.441406 15.464844 22.398438 14.816406 22.257812 14.171875 C 22.121094 13.527344 21.890625 12.917969 21.574219 12.339844 C 21.253906 11.761719 20.859375 11.242188 20.386719 10.78125 L 20.386719 7.523438 C 20.824219 7.78125 21.238281 8.066406 21.628906 8.390625 C 22.019531 8.710938 22.382812 9.0625 22.714844 9.441406 C 23.050781 9.820312 23.351562 10.226562 23.617188 10.652344 C 23.886719 11.082031 24.117188 11.527344 24.3125 11.996094 C 24.507812 12.460938 24.664062 12.941406 24.78125 13.429688 C 24.898438 13.921875 24.976562 14.417969 25.011719 14.921875 C 25.046875 15.425781 25.042969 15.929688 24.996094 16.433594 C 24.949219 16.9375 24.863281 17.429688 24.738281 17.921875 C 24.609375 18.410156 24.445312 18.886719 24.242188 19.347656 C 24.039062 19.808594 23.796875 20.25 23.519531 20.675781 C 23.246094 21.097656 22.9375 21.496094 22.59375 21.871094 C 22.253906 22.242188 21.886719 22.585938 21.488281 22.902344 C 21.089844 23.214844 20.671875 23.496094 20.230469 23.738281 C 19.785156 23.984375 19.328125 24.195312 18.851562 24.367188 C 18.375 24.539062 17.886719 24.667969 17.390625 24.761719 C 16.890625 24.855469 16.386719 24.90625 15.882812 24.917969 Z M 15.882812 24.914062 " fill-opacity="1" fill-rule="nonzero"/></g><g clip-path="url(#f42d46a335)"><path fill="#18191a" d="M 11.941406 25.089844 L 11.941406 10.914062 L 16.519531 14.316406 L 16.519531 3.980469 L 19.355469 6.152344 L 19.355469 20.328125 L 14.777344 16.921875 L 14.777344 27.1875 Z M 11.941406 25.089844 " fill-opacity="1" fill-rule="nonzero"/></g></svg>