<svg xmlns="http://www.w3.org/2000/svg" xmlns:xlink="http://www.w3.org/1999/xlink" width="42" zoomAndPan="magnify" viewBox="0 0 31.5 31.499999" height="42" preserveAspectRatio="xMidYMid meet" version="1.0"><defs><clipPath id="a2509504ce"><path d="M 0.449219 0.449219 L 31.007812 0.449219 L 31.007812 31.007812 L 0.449219 31.007812 Z M 0.449219 0.449219 " clip-rule="nonzero"/></clipPath><clipPath id="b8abd69c16"><path d="M 5.953125 6 L 25.453125 6 L 25.453125 17 L 5.953125 17 Z M 5.953125 6 " clip-rule="nonzero"/></clipPath><clipPath id="1ccbb7d4cc"><path d="M 7 10 L 21 10 L 21 25.453125 L 7 25.453125 Z M 7 10 " clip-rule="nonzero"/></clipPath><clipPath id="e7d14b62fa"><path d="M 13 19 L 18 19 L 18 25.453125 L 13 25.453125 Z M 13 19 " clip-rule="nonzero"/></clipPath></defs><g clip-path="url(#a2509504ce)"><path fill="#18191a" d="M 7.234375 0.449219 L 24.417969 0.449219 C 26.214844 0.449219 27.941406 1.164062 29.214844 2.4375 C 30.484375 3.707031 31.199219 5.433594 31.199219 7.234375 L 31.199219 24.417969 C 31.199219 26.214844 30.484375 27.941406 29.214844 29.214844 C 27.941406 30.484375 26.214844 31.199219 24.417969 31.199219 L 7.234375 31.199219 C 5.433594 31.199219 3.707031 30.484375 2.4375 29.214844 C 1.164062 27.941406 0.449219 26.214844 0.449219 24.417969 L 0.449219 7.234375 C 0.449219 5.433594 1.164062 3.707031 2.4375 2.4375 C 3.707031 1.164062 5.433594 0.449219 7.234375 0.449219 " fill-opacity="1" fill-rule="nonzero"/></g><g clip-path="url(#b8abd69c16)"><path fill="#efefef" d="M 20.945312 7.542969 L 20.941406 7.542969 C 19.707031 6.75 18.363281 6.261719 16.90625 6.082031 C 15.777344 5.941406 14.65625 5.996094 13.542969 6.242188 C 12.578125 6.460938 11.664062 6.820312 10.808594 7.316406 C 9.671875 7.972656 8.710938 8.824219 7.921875 9.867188 C 7.128906 10.910156 6.574219 12.066406 6.246094 13.335938 C 6.046875 14.128906 5.945312 14.933594 5.945312 15.75 C 5.945312 15.894531 5.996094 16.019531 6.097656 16.125 C 6.199219 16.226562 6.324219 16.277344 6.46875 16.277344 C 6.617188 16.277344 6.738281 16.226562 6.84375 16.125 C 6.945312 16.019531 6.996094 15.894531 6.996094 15.75 C 6.996094 15.019531 7.085938 14.300781 7.265625 13.59375 C 7.464844 12.816406 7.761719 12.082031 8.164062 11.390625 C 8.566406 10.699219 9.054688 10.074219 9.628906 9.515625 C 10.203125 8.957031 10.84375 8.488281 11.546875 8.105469 C 12.25 7.722656 12.992188 7.445312 13.773438 7.269531 C 14.765625 7.046875 15.765625 7 16.777344 7.125 C 18.074219 7.285156 19.277344 7.71875 20.375 8.425781 C 20.992188 8.820312 21.546875 9.28125 22.046875 9.8125 C 22.546875 10.347656 22.96875 10.933594 23.320312 11.574219 C 23.671875 12.214844 23.933594 12.886719 24.117188 13.59375 C 24.296875 14.300781 24.386719 15.019531 24.382812 15.75 C 24.382812 15.894531 24.433594 16.019531 24.535156 16.125 C 24.636719 16.226562 24.761719 16.277344 24.910156 16.277344 C 25.054688 16.277344 25.179688 16.226562 25.28125 16.125 C 25.382812 16.019531 25.433594 15.894531 25.433594 15.75 C 25.433594 14.933594 25.335938 14.128906 25.132812 13.335938 C 24.929688 12.542969 24.632812 11.789062 24.242188 11.070312 C 23.847656 10.351562 23.375 9.695312 22.816406 9.097656 C 22.257812 8.5 21.632812 7.984375 20.945312 7.542969 Z M 20.945312 7.542969 " fill-opacity="1" fill-rule="nonzero"/></g><path fill="#efefef" d="M 21.117188 10.664062 C 20.535156 10.039062 19.863281 9.53125 19.105469 9.140625 L 19.101562 9.140625 C 18.03125 8.589844 16.894531 8.3125 15.6875 8.3125 L 15.675781 8.3125 C 14.710938 8.3125 13.78125 8.492188 12.886719 8.859375 C 12.199219 9.136719 11.570312 9.507812 10.996094 9.976562 C 10.421875 10.441406 9.929688 10.984375 9.515625 11.597656 C 9.101562 12.210938 8.789062 12.871094 8.574219 13.578125 C 8.359375 14.285156 8.25 15.011719 8.25 15.75 C 8.25 15.96875 8.210938 16.175781 8.132812 16.378906 C 8.058594 16.582031 7.949219 16.765625 7.804688 16.929688 C 7.660156 17.089844 7.492188 17.222656 7.300781 17.324219 C 7.109375 17.425781 6.90625 17.488281 6.691406 17.515625 C 6.554688 17.535156 6.441406 17.59375 6.351562 17.703125 C 6.261719 17.808594 6.222656 17.929688 6.230469 18.070312 C 6.242188 18.207031 6.296875 18.324219 6.394531 18.417969 C 6.496094 18.515625 6.617188 18.5625 6.753906 18.5625 C 6.777344 18.5625 6.796875 18.5625 6.820312 18.558594 C 7.164062 18.515625 7.484375 18.414062 7.789062 18.25 C 8.09375 18.089844 8.363281 17.882812 8.589844 17.621094 C 8.820312 17.363281 8.992188 17.074219 9.117188 16.75 C 9.238281 16.429688 9.300781 16.09375 9.300781 15.75 C 9.300781 15.113281 9.394531 14.492188 9.578125 13.886719 C 9.765625 13.277344 10.035156 12.710938 10.390625 12.183594 C 10.742188 11.65625 11.167969 11.191406 11.660156 10.792969 C 12.152344 10.390625 12.695312 10.070312 13.28125 9.828125 C 14.050781 9.515625 14.847656 9.359375 15.679688 9.359375 L 15.6875 9.359375 C 16.726562 9.359375 17.703125 9.59375 18.621094 10.070312 L 18.621094 10.074219 C 19.144531 10.339844 19.617188 10.675781 20.046875 11.074219 C 20.476562 11.476562 20.84375 11.925781 21.148438 12.425781 C 21.453125 12.925781 21.683594 13.460938 21.84375 14.023438 C 22 14.589844 22.078125 15.164062 22.078125 15.75 C 22.09375 18.414062 21.464844 20.917969 20.199219 23.265625 C 20.128906 23.390625 20.113281 23.523438 20.152344 23.664062 C 20.195312 23.804688 20.277344 23.910156 20.40625 23.980469 C 20.53125 24.050781 20.667969 24.0625 20.804688 24.023438 C 20.945312 23.980469 21.050781 23.898438 21.121094 23.769531 C 22.472656 21.265625 23.140625 18.59375 23.128906 15.75 C 23.128906 14.804688 22.957031 13.894531 22.609375 13.015625 C 22.261719 12.136719 21.765625 11.351562 21.117188 10.664062 Z M 21.117188 10.664062 " fill-opacity="1" fill-rule="nonzero"/><g clip-path="url(#1ccbb7d4cc)"><path fill="#efefef" d="M 20.824219 15.75 C 20.824219 15.746094 20.824219 15.742188 20.824219 15.738281 C 20.824219 15.199219 20.738281 14.671875 20.570312 14.15625 C 20.40625 13.640625 20.160156 13.167969 19.84375 12.730469 C 19.527344 12.292969 19.148438 11.914062 18.710938 11.597656 C 18.273438 11.277344 17.796875 11.035156 17.285156 10.867188 C 16.84375 10.726562 16.394531 10.640625 15.933594 10.621094 C 15.46875 10.597656 15.015625 10.636719 14.5625 10.738281 C 14.113281 10.839844 13.683594 11 13.273438 11.21875 C 12.867188 11.4375 12.496094 11.703125 12.160156 12.023438 C 11.644531 12.503906 11.25 13.070312 10.96875 13.71875 C 10.691406 14.367188 10.550781 15.042969 10.554688 15.75 C 10.558594 16.3125 10.445312 16.851562 10.226562 17.367188 C 10.003906 17.882812 9.6875 18.332031 9.277344 18.71875 C 8.765625 19.199219 8.171875 19.53125 7.492188 19.707031 C 7.351562 19.742188 7.242188 19.824219 7.171875 19.949219 C 7.097656 20.074219 7.078125 20.207031 7.113281 20.347656 C 7.148438 20.484375 7.230469 20.59375 7.355469 20.667969 C 7.480469 20.742188 7.613281 20.757812 7.753906 20.722656 C 8.609375 20.5 9.355469 20.085938 10 19.480469 C 10.515625 18.996094 10.910156 18.429688 11.191406 17.78125 C 11.46875 17.132812 11.605469 16.457031 11.605469 15.75 C 11.601562 15.1875 11.710938 14.648438 11.933594 14.132812 C 12.15625 13.617188 12.472656 13.167969 12.882812 12.785156 C 13.390625 12.300781 13.984375 11.972656 14.660156 11.796875 C 15.433594 11.597656 16.199219 11.621094 16.957031 11.867188 C 17.367188 12 17.746094 12.191406 18.09375 12.445312 C 18.445312 12.699219 18.746094 13 18.996094 13.351562 C 19.25 13.699219 19.445312 14.078125 19.578125 14.488281 C 19.707031 14.898438 19.773438 15.320312 19.773438 15.75 L 19.773438 15.757812 C 19.78125 17.832031 19.320312 19.800781 18.394531 21.660156 C 17.871094 22.710938 17.222656 23.671875 16.449219 24.550781 C 16.351562 24.660156 16.308594 24.785156 16.316406 24.929688 C 16.328125 25.074219 16.386719 25.195312 16.496094 25.292969 C 16.601562 25.386719 16.730469 25.429688 16.875 25.421875 C 17.019531 25.414062 17.140625 25.355469 17.234375 25.246094 C 18.070312 24.300781 18.769531 23.261719 19.332031 22.128906 C 20.332031 20.121094 20.832031 17.996094 20.824219 15.75 Z M 20.824219 15.75 " fill-opacity="1" fill-rule="nonzero"/></g><g clip-path="url(#e7d14b62fa)"><path fill="#efefef" d="M 16.144531 22.914062 C 16.738281 22.113281 17.226562 21.253906 17.605469 20.332031 C 17.660156 20.199219 17.660156 20.066406 17.605469 19.929688 C 17.550781 19.796875 17.453125 19.703125 17.320312 19.648438 C 17.1875 19.59375 17.054688 19.59375 16.917969 19.648438 C 16.785156 19.703125 16.691406 19.800781 16.636719 19.933594 C 16.28125 20.796875 15.820312 21.601562 15.257812 22.347656 C 14.699219 23.09375 14.058594 23.753906 13.332031 24.335938 C 13.21875 24.425781 13.152344 24.542969 13.136719 24.6875 C 13.121094 24.832031 13.160156 24.960938 13.25 25.074219 C 13.339844 25.1875 13.457031 25.25 13.601562 25.265625 C 13.746094 25.28125 13.875 25.246094 13.988281 25.15625 C 14.761719 24.535156 15.449219 23.832031 16.050781 23.042969 C 16.054688 23.039062 16.054688 23.035156 16.058594 23.03125 C 16.066406 23.027344 16.070312 23.015625 16.078125 23.007812 C 16.101562 22.984375 16.117188 22.960938 16.132812 22.933594 C 16.136719 22.925781 16.144531 22.921875 16.144531 22.914062 Z M 16.144531 22.914062 " fill-opacity="1" fill-rule="nonzero"/></g><path fill="#efefef" d="M 13.460938 22.523438 C 14.058594 21.90625 14.570312 21.21875 14.988281 20.46875 C 15.054688 20.339844 15.070312 20.207031 15.03125 20.070312 C 14.988281 19.929688 14.90625 19.828125 14.78125 19.757812 C 14.65625 19.6875 14.523438 19.671875 14.382812 19.710938 C 14.246094 19.75 14.140625 19.832031 14.070312 19.957031 C 13.695312 20.628906 13.242188 21.242188 12.707031 21.792969 C 12.144531 22.375 11.511719 22.871094 10.808594 23.277344 C 10.683594 23.347656 10.601562 23.453125 10.5625 23.59375 C 10.527344 23.734375 10.542969 23.867188 10.617188 23.992188 C 10.6875 24.117188 10.792969 24.199219 10.933594 24.238281 C 11.074219 24.273438 11.207031 24.257812 11.332031 24.183594 C 12.117188 23.730469 12.828125 23.175781 13.460938 22.523438 Z M 13.460938 22.523438 " fill-opacity="1" fill-rule="nonzero"/><path fill="#efefef" d="M 11.46875 20.554688 C 11.375 20.445312 11.253906 20.386719 11.109375 20.378906 C 10.964844 20.371094 10.835938 20.417969 10.730469 20.511719 C 10.175781 21.007812 9.554688 21.394531 8.867188 21.675781 C 8.734375 21.730469 8.636719 21.824219 8.578125 21.957031 C 8.523438 22.089844 8.523438 22.222656 8.578125 22.359375 C 8.632812 22.492188 8.726562 22.589844 8.859375 22.644531 C 8.992188 22.703125 9.128906 22.703125 9.261719 22.648438 C 10.0625 22.324219 10.785156 21.871094 11.429688 21.292969 C 11.539062 21.199219 11.59375 21.078125 11.605469 20.933594 C 11.613281 20.789062 11.566406 20.660156 11.46875 20.554688 Z M 11.46875 20.554688 " fill-opacity="1" fill-rule="nonzero"/><path fill="#efefef" d="M 18.496094 15.480469 C 18.460938 15.128906 18.367188 14.800781 18.207031 14.488281 C 18.050781 14.175781 17.839844 13.902344 17.578125 13.667969 C 17.320312 13.433594 17.027344 13.25 16.699219 13.125 C 16.371094 13 16.03125 12.9375 15.683594 12.941406 C 15.5625 12.941406 15.441406 12.949219 15.320312 12.964844 C 14.980469 13.007812 14.65625 13.113281 14.355469 13.273438 C 14.050781 13.433594 13.785156 13.644531 13.558594 13.902344 C 13.332031 14.160156 13.15625 14.449219 13.035156 14.773438 C 12.914062 15.09375 12.851562 15.425781 12.851562 15.769531 C 12.851562 16.871094 12.585938 17.902344 12.054688 18.863281 C 11.984375 18.988281 11.96875 19.125 12.007812 19.261719 C 12.046875 19.402344 12.132812 19.507812 12.257812 19.578125 C 12.386719 19.648438 12.519531 19.664062 12.660156 19.625 C 12.796875 19.582031 12.902344 19.5 12.972656 19.371094 C 13.257812 18.859375 13.476562 18.320312 13.628906 17.753906 C 14.1875 18.335938 14.867188 18.625 15.671875 18.625 C 15.792969 18.625 15.910156 18.617188 16.027344 18.601562 C 16.03125 18.601562 16.03125 18.601562 16.035156 18.601562 C 16.375 18.554688 16.699219 18.453125 17 18.292969 C 17.304688 18.128906 17.570312 17.921875 17.796875 17.664062 C 18.023438 17.402344 18.199219 17.113281 18.320312 16.792969 C 18.441406 16.472656 18.503906 16.140625 18.503906 15.796875 C 18.503906 15.75 18.496094 15.703125 18.484375 15.660156 C 18.496094 15.597656 18.503906 15.539062 18.496094 15.480469 Z M 15.902344 17.558594 C 15.664062 17.589844 15.429688 17.574219 15.199219 17.511719 C 14.964844 17.445312 14.757812 17.339844 14.570312 17.191406 C 14.378906 17.042969 14.226562 16.863281 14.113281 16.652344 C 13.996094 16.441406 13.925781 16.21875 13.902344 15.980469 C 13.902344 15.96875 13.898438 15.960938 13.898438 15.949219 C 13.898438 15.890625 13.902344 15.832031 13.902344 15.769531 C 13.902344 15.554688 13.941406 15.34375 14.015625 15.144531 C 14.09375 14.941406 14.203125 14.757812 14.347656 14.597656 C 14.488281 14.433594 14.65625 14.300781 14.847656 14.199219 C 15.035156 14.097656 15.238281 14.035156 15.453125 14.003906 C 15.691406 13.972656 15.925781 13.992188 16.15625 14.054688 C 16.390625 14.117188 16.597656 14.222656 16.789062 14.375 C 16.976562 14.523438 17.128906 14.703125 17.242188 14.914062 C 17.359375 15.121094 17.429688 15.347656 17.453125 15.585938 C 17.457031 15.613281 17.460938 15.644531 17.46875 15.671875 C 17.460938 15.710938 17.453125 15.753906 17.453125 15.796875 C 17.453125 16.011719 17.414062 16.21875 17.339844 16.421875 C 17.261719 16.625 17.152344 16.808594 17.007812 16.96875 C 16.867188 17.132812 16.699219 17.261719 16.507812 17.367188 C 16.320312 17.46875 16.117188 17.53125 15.902344 17.558594 Z M 15.902344 17.558594 " fill-opacity="1" fill-rule="nonzero"/></svg>