<svg xmlns="http://www.w3.org/2000/svg" xmlns:xlink="http://www.w3.org/1999/xlink" width="42" zoomAndPan="magnify" viewBox="0 0 31.5 31.499999" height="42" preserveAspectRatio="xMidYMid meet" version="1.0"><defs><clipPath id="bf95379eab"><path d="M 0.449219 0.449219 L 31.007812 0.449219 L 31.007812 31.007812 L 0.449219 31.007812 Z M 0.449219 0.449219 " clip-rule="nonzero"/></clipPath><clipPath id="50a76cf6a0"><path d="M 5.851562 6.320312 L 25.351562 6.320312 L 25.351562 19 L 5.851562 19 Z M 5.851562 6.320312 " clip-rule="nonzero"/></clipPath><clipPath id="6a80a676f1"><path d="M 5.851562 17 L 21 17 L 21 25.070312 L 5.851562 25.070312 Z M 5.851562 17 " clip-rule="nonzero"/></clipPath></defs><g clip-path="url(#bf95379eab)"><path fill="#ffb923" d="M 7.234375 0.449219 L 24.417969 0.449219 C 26.214844 0.449219 27.941406 1.164062 29.214844 2.4375 C 30.484375 3.707031 31.199219 5.433594 31.199219 7.234375 L 31.199219 24.417969 C 31.199219 26.214844 30.484375 27.941406 29.214844 29.214844 C 27.941406 30.484375 26.214844 31.199219 24.417969 31.199219 L 7.234375 31.199219 C 5.433594 31.199219 3.707031 30.484375 2.4375 29.214844 C 1.164062 27.941406 0.449219 26.214844 0.449219 24.417969 L 0.449219 7.234375 C 0.449219 5.433594 1.164062 3.707031 2.4375 2.4375 C 3.707031 1.164062 5.433594 0.449219 7.234375 0.449219 " fill-opacity="1" fill-rule="nonzero"/></g><g clip-path="url(#50a76cf6a0)"><path fill="#18191a" d="M 23.605469 18.273438 C 23.800781 18.339844 24 18.359375 24.203125 18.332031 C 24.40625 18.304688 24.589844 18.230469 24.757812 18.117188 C 24.929688 18 25.058594 17.855469 25.15625 17.675781 C 25.25 17.496094 25.300781 17.308594 25.304688 17.105469 L 25.304688 14.660156 C 25.304688 14.355469 25.253906 14.054688 25.160156 13.761719 C 25.066406 13.46875 24.925781 13.195312 24.746094 12.945312 C 24.5625 12.695312 24.347656 12.476562 24.097656 12.292969 C 23.847656 12.105469 23.574219 11.964844 23.277344 11.863281 L 7.597656 6.46875 C 7.402344 6.398438 7.203125 6.382812 6.996094 6.410156 C 6.792969 6.4375 6.605469 6.511719 6.4375 6.628906 C 6.269531 6.746094 6.136719 6.894531 6.042969 7.074219 C 5.945312 7.253906 5.898438 7.445312 5.898438 7.648438 L 5.898438 10.890625 C 5.894531 11.28125 6.011719 11.636719 6.242188 11.957031 C 6.472656 12.277344 6.777344 12.5 7.15625 12.628906 L 16.113281 15.714844 Z M 23.605469 18.273438 " fill-opacity="1" fill-rule="nonzero"/></g><g clip-path="url(#6a80a676f1)"><path fill="#18191a" d="M 5.898438 23.78125 C 5.898438 23.984375 5.945312 24.175781 6.042969 24.355469 C 6.136719 24.53125 6.269531 24.679688 6.4375 24.796875 C 6.605469 24.914062 6.792969 24.988281 6.996094 25.015625 C 7.203125 25.042969 7.402344 25.023438 7.597656 24.957031 L 20.535156 20.507812 C 20.707031 20.445312 20.792969 20.324219 20.792969 20.144531 C 20.792969 19.964844 20.707031 19.84375 20.535156 19.777344 L 15.382812 18 L 13.515625 17.359375 C 12.792969 17.109375 12.070312 17.109375 11.347656 17.359375 L 7.152344 18.800781 C 6.773438 18.925781 6.472656 19.152344 6.242188 19.472656 C 6.011719 19.792969 5.894531 20.148438 5.898438 20.539062 Z M 5.898438 23.78125 " fill-opacity="1" fill-rule="nonzero"/></g></svg>