<svg xmlns="http://www.w3.org/2000/svg" xmlns:xlink="http://www.w3.org/1999/xlink" width="42" zoomAndPan="magnify" viewBox="0 0 31.5 31.499999" height="42" preserveAspectRatio="xMidYMid meet" version="1.0"><defs><clipPath id="66dbf006d2"><path d="M 0.449219 0.449219 L 31.007812 0.449219 L 31.007812 31.007812 L 0.449219 31.007812 Z M 0.449219 0.449219 " clip-rule="nonzero"/></clipPath><clipPath id="479e3f44f6"><path d="M 6 12 L 26 12 L 26 21 L 6 21 Z M 6 12 " clip-rule="nonzero"/></clipPath><clipPath id="02dbb17c01"><path d="M 15.75 7.371094 L 25.292969 16.917969 L 15.75 26.460938 L 6.203125 16.917969 Z M 15.75 7.371094 " clip-rule="nonzero"/></clipPath><clipPath id="9e63a19803"><path d="M 15.75 7.371094 L 25.292969 16.917969 L 15.75 26.460938 L 6.203125 16.917969 Z M 15.75 7.371094 " clip-rule="nonzero"/></clipPath><clipPath id="fe695d0ad5"><path d="M 6 16 L 26 16 L 26 25 L 6 25 Z M 6 16 " clip-rule="nonzero"/></clipPath><clipPath id="69222c41b4"><path d="M 15.75 10.820312 L 25.292969 20.363281 L 15.75 29.910156 L 6.203125 20.363281 Z M 15.75 10.820312 " clip-rule="nonzero"/></clipPath><clipPath id="257fe3ab37"><path d="M 15.75 10.820312 L 25.292969 20.363281 L 15.75 29.910156 L 6.203125 20.363281 Z M 15.75 10.820312 " clip-rule="nonzero"/></clipPath><clipPath id="3a8e03e7cf"><path d="M 12.773438 7.371094 L 18.773438 7.371094 L 18.773438 13.371094 L 12.773438 13.371094 Z M 12.773438 7.371094 " clip-rule="nonzero"/></clipPath></defs><g clip-path="url(#66dbf006d2)"><path fill="#fffdfb" d="M 7.234375 0.449219 L 24.417969 0.449219 C 26.214844 0.449219 27.941406 1.164062 29.214844 2.4375 C 30.484375 3.707031 31.199219 5.433594 31.199219 7.234375 L 31.199219 24.417969 C 31.199219 26.214844 30.484375 27.941406 29.214844 29.214844 C 27.941406 30.484375 26.214844 31.199219 24.417969 31.199219 L 7.234375 31.199219 C 5.433594 31.199219 3.707031 30.484375 2.4375 29.214844 C 1.164062 27.941406 0.449219 26.214844 0.449219 24.417969 L 0.449219 7.234375 C 0.449219 5.433594 1.164062 3.707031 2.4375 2.4375 C 3.707031 1.164062 5.433594 0.449219 7.234375 0.449219 " fill-opacity="1" fill-rule="nonzero"/></g><g clip-path="url(#479e3f44f6)"><g clip-path="url(#02dbb17c01)"><g clip-path="url(#9e63a19803)"><path fill="#333333" d="M 25.292969 16.917969 C 20.023438 22.1875 11.476562 22.1875 6.203125 16.917969 L 10.5625 12.558594 C 13.425781 15.421875 18.0625 15.421875 20.929688 12.566406 Z M 25.292969 16.917969 " fill-opacity="1" fill-rule="nonzero"/></g></g></g><g clip-path="url(#fe695d0ad5)"><g clip-path="url(#69222c41b4)"><g clip-path="url(#257fe3ab37)"><path fill="#253447" d="M 25.292969 20.363281 C 20.023438 25.636719 11.476562 25.636719 6.203125 20.363281 L 10.5625 16.007812 C 13.425781 18.871094 18.0625 18.871094 20.929688 16.015625 Z M 25.292969 20.363281 " fill-opacity="1" fill-rule="nonzero"/></g></g></g><g clip-path="url(#3a8e03e7cf)"><path fill="#253447" d="M 15.773438 7.371094 C 14.117188 7.371094 12.773438 8.714844 12.773438 10.371094 C 12.773438 12.027344 14.117188 13.371094 15.773438 13.371094 C 17.429688 13.371094 18.773438 12.027344 18.773438 10.371094 C 18.773438 8.714844 17.429688 7.371094 15.773438 7.371094 " fill-opacity="1" fill-rule="nonzero"/></g></svg>