<svg xmlns="http://www.w3.org/2000/svg" xmlns:xlink="http://www.w3.org/1999/xlink" width="42" zoomAndPan="magnify" viewBox="0 0 31.5 31.499999" height="42" preserveAspectRatio="xMidYMid meet" version="1.0"><defs><clipPath id="ad990cdff5"><path d="M 0.449219 0.449219 L 31.007812 0.449219 L 31.007812 31.007812 L 0.449219 31.007812 Z M 0.449219 0.449219 " clip-rule="nonzero"/></clipPath><clipPath id="137ce51e1e"><path d="M 6.917969 6.917969 L 24.917969 6.917969 L 24.917969 24.917969 L 6.917969 24.917969 Z M 6.917969 6.917969 " clip-rule="nonzero"/></clipPath></defs><g clip-path="url(#ad990cdff5)"><path fill="#1f7ff6" d="M 7.234375 0.449219 L 24.417969 0.449219 C 26.214844 0.449219 27.941406 1.164062 29.214844 2.4375 C 30.484375 3.707031 31.199219 5.433594 31.199219 7.234375 L 31.199219 24.417969 C 31.199219 26.214844 30.484375 27.941406 29.214844 29.214844 C 27.941406 30.484375 26.214844 31.199219 24.417969 31.199219 L 7.234375 31.199219 C 5.433594 31.199219 3.707031 30.484375 2.4375 29.214844 C 1.164062 27.941406 0.449219 26.214844 0.449219 24.417969 L 0.449219 7.234375 C 0.449219 5.433594 1.164062 3.707031 2.4375 2.4375 C 3.707031 1.164062 5.433594 0.449219 7.234375 0.449219 " fill-opacity="1" fill-rule="nonzero"/></g><g clip-path="url(#137ce51e1e)"><path fill="#ffffff" d="M 22.398438 9.671875 C 22.128906 9.394531 21.847656 9.132812 21.546875 8.890625 C 18.0625 6.09375 12.9375 6.261719 9.644531 9.457031 C 6.816406 12.207031 6.179688 16.359375 7.765625 19.738281 C 7.886719 19.992188 7.929688 20.261719 7.898438 20.546875 L 7.453125 24.585938 C 7.449219 24.652344 7.46875 24.710938 7.519531 24.757812 C 7.570312 24.800781 7.628906 24.816406 7.695312 24.800781 L 9.875 24.324219 L 11.257812 24.019531 C 11.585938 23.945312 11.902344 23.980469 12.207031 24.117188 C 15.484375 25.597656 19.476562 25.019531 22.207031 22.351562 C 25.746094 18.894531 25.828125 13.230469 22.398438 9.671875 Z M 15.960938 11.242188 C 15.410156 11.242188 14.871094 11.339844 14.347656 11.527344 C 13.828125 11.71875 13.355469 11.992188 12.933594 12.347656 C 12.507812 12.707031 12.15625 13.125 11.882812 13.605469 C 11.605469 14.085938 11.421875 14.601562 11.324219 15.148438 C 11.230469 15.695312 11.234375 16.242188 11.332031 16.785156 C 11.429688 17.332031 11.621094 17.84375 11.898438 18.324219 C 12.179688 18.800781 12.535156 19.21875 12.960938 19.570312 C 13.386719 19.925781 13.863281 20.195312 14.382812 20.382812 C 14.90625 20.566406 15.445312 20.660156 16 20.652344 C 16.554688 20.648438 17.089844 20.550781 17.609375 20.355469 C 18.128906 20.160156 18.601562 19.882812 19.023438 19.523438 C 19.445312 19.164062 19.789062 18.742188 20.0625 18.257812 C 20.140625 18.121094 20.238281 18.007812 20.363281 17.910156 C 20.484375 17.8125 20.621094 17.746094 20.773438 17.703125 C 20.921875 17.660156 21.078125 17.652344 21.230469 17.667969 C 21.386719 17.6875 21.53125 17.734375 21.667969 17.8125 C 21.804688 17.890625 21.917969 17.988281 22.015625 18.113281 C 22.113281 18.234375 22.179688 18.371094 22.222656 18.523438 C 22.265625 18.671875 22.277344 18.828125 22.257812 18.980469 C 22.238281 19.136719 22.191406 19.28125 22.113281 19.417969 C 21.808594 19.960938 21.4375 20.453125 21 20.898438 C 20.566406 21.339844 20.078125 21.71875 19.542969 22.035156 C 19.003906 22.351562 18.4375 22.589844 17.835938 22.757812 C 17.238281 22.921875 16.625 23.007812 16.003906 23.007812 L 15.984375 23.011719 L 15.960938 23.011719 C 15.5 23.011719 15.039062 22.96875 14.585938 22.878906 C 14.128906 22.789062 13.6875 22.652344 13.257812 22.476562 C 12.832031 22.300781 12.421875 22.082031 12.039062 21.824219 C 11.652344 21.566406 11.296875 21.273438 10.96875 20.945312 C 10.640625 20.617188 10.347656 20.261719 10.089844 19.875 C 9.832031 19.488281 9.613281 19.082031 9.433594 18.652344 C 9.257812 18.226562 9.125 17.785156 9.035156 17.328125 C 8.941406 16.875 8.898438 16.414062 8.898438 15.949219 C 8.898438 15.488281 8.941406 15.027344 9.035156 14.574219 C 9.125 14.117188 9.257812 13.675781 9.433594 13.25 C 9.613281 12.820312 9.832031 12.414062 10.089844 12.027344 C 10.347656 11.640625 10.640625 11.285156 10.96875 10.957031 C 11.296875 10.628906 11.652344 10.335938 12.039062 10.078125 C 12.421875 9.820312 12.832031 9.601562 13.257812 9.425781 C 13.6875 9.25 14.128906 9.113281 14.585938 9.023438 C 15.039062 8.933594 15.5 8.890625 15.960938 8.890625 C 16.136719 8.890625 16.308594 8.894531 16.480469 8.90625 L 16.523438 8.90625 C 17.109375 8.953125 17.683594 9.074219 18.238281 9.261719 C 18.796875 9.453125 19.324219 9.707031 19.816406 10.03125 C 20.3125 10.351562 20.757812 10.730469 21.15625 11.164062 C 21.558594 11.597656 21.898438 12.074219 22.175781 12.589844 C 22.25 12.730469 22.296875 12.875 22.3125 13.03125 C 22.328125 13.1875 22.316406 13.339844 22.269531 13.488281 C 22.226562 13.636719 22.15625 13.773438 22.054688 13.894531 C 21.957031 14.015625 21.839844 14.113281 21.703125 14.1875 C 21.5625 14.261719 21.417969 14.308594 21.261719 14.324219 C 21.105469 14.339844 20.953125 14.328125 20.804688 14.28125 C 20.65625 14.238281 20.519531 14.164062 20.398438 14.066406 C 20.277344 13.96875 20.179688 13.851562 20.105469 13.710938 C 19.695312 12.953125 19.117188 12.351562 18.375 11.90625 C 17.632812 11.464844 16.828125 11.242188 15.960938 11.242188 Z M 18.59375 15.976562 C 18.59375 16.332031 18.527344 16.671875 18.390625 17 C 18.257812 17.328125 18.0625 17.617188 17.8125 17.867188 C 17.5625 18.117188 17.273438 18.3125 16.945312 18.445312 C 16.617188 18.582031 16.277344 18.652344 15.921875 18.652344 C 15.566406 18.652344 15.226562 18.582031 14.898438 18.445312 C 14.570312 18.3125 14.28125 18.117188 14.03125 17.867188 C 13.777344 17.617188 13.585938 17.328125 13.449219 17 C 13.3125 16.671875 13.246094 16.332031 13.246094 15.976562 C 13.246094 15.621094 13.3125 15.28125 13.449219 14.953125 C 13.585938 14.625 13.777344 14.335938 14.03125 14.085938 C 14.28125 13.832031 14.570312 13.640625 14.898438 13.503906 C 15.226562 13.367188 15.566406 13.300781 15.921875 13.300781 C 16.277344 13.300781 16.617188 13.367188 16.945312 13.503906 C 17.273438 13.640625 17.5625 13.832031 17.8125 14.082031 C 18.0625 14.335938 18.257812 14.625 18.390625 14.953125 C 18.527344 15.277344 18.597656 15.621094 18.597656 15.972656 Z M 18.59375 15.976562 " fill-opacity="1" fill-rule="nonzero"/></g></svg>