<svg xmlns="http://www.w3.org/2000/svg" xmlns:xlink="http://www.w3.org/1999/xlink" width="42" zoomAndPan="magnify" viewBox="0 0 31.5 31.499999" height="42" preserveAspectRatio="xMidYMid meet" version="1.0"><defs><clipPath id="e50f6257df"><path d="M 0.449219 0.449219 L 31.007812 0.449219 L 31.007812 31.007812 L 0.449219 31.007812 Z M 0.449219 0.449219 " clip-rule="nonzero"/></clipPath><clipPath id="92d903876c"><path d="M 7.765625 6.308594 L 23.515625 6.308594 L 23.515625 25 L 7.765625 25 Z M 7.765625 6.308594 " clip-rule="nonzero"/></clipPath></defs><g clip-path="url(#e50f6257df)"><path fill="#132b08" d="M 7.234375 0.449219 L 24.417969 0.449219 C 26.214844 0.449219 27.941406 1.164062 29.214844 2.4375 C 30.484375 3.707031 31.199219 5.433594 31.199219 7.234375 L 31.199219 24.417969 C 31.199219 26.214844 30.484375 27.941406 29.214844 29.214844 C 27.941406 30.484375 26.214844 31.199219 24.417969 31.199219 L 7.234375 31.199219 C 5.433594 31.199219 3.707031 30.484375 2.4375 29.214844 C 1.164062 27.941406 0.449219 26.214844 0.449219 24.417969 L 0.449219 7.234375 C 0.449219 5.433594 1.164062 3.707031 2.4375 2.4375 C 3.707031 1.164062 5.433594 0.449219 7.234375 0.449219 " fill-opacity="1" fill-rule="nonzero"/></g><g clip-path="url(#92d903876c)"><path fill="#e1f340" d="M 17.382812 21.652344 C 15.214844 22.605469 12.621094 21.605469 11.722656 19.261719 C 11.179688 17.859375 11.296875 16.019531 12.363281 14.644531 L 18.914062 14.644531 C 20.644531 16.789062 20.078125 20.46875 17.382812 21.652344 Z M 21.601562 7.527344 L 18.644531 7.527344 L 18.644531 9.546875 C 18.042969 8.921875 16.425781 7.234375 15.652344 6.429688 C 15.503906 6.585938 9.566406 12.773438 7.773438 14.644531 L 8.757812 14.644531 C 7.960938 16.480469 7.992188 18.675781 8.722656 20.425781 C 11.179688 26.316406 20.003906 26.441406 22.570312 20.386719 C 23.339844 18.574219 23.304688 16.382812 22.578125 14.644531 L 23.53125 14.644531 L 21.601562 12.632812 L 21.601562 7.527344 " fill-opacity="1" fill-rule="nonzero"/></g></svg>