<svg xmlns="http://www.w3.org/2000/svg" xmlns:xlink="http://www.w3.org/1999/xlink" width="42" zoomAndPan="magnify" viewBox="0 0 31.5 31.499999" height="42" preserveAspectRatio="xMidYMid meet" version="1.0"><defs><clipPath id="197eeae6a4"><path d="M 0.449219 0.449219 L 31.007812 0.449219 L 31.007812 31.007812 L 0.449219 31.007812 Z M 0.449219 0.449219 " clip-rule="nonzero"/></clipPath><clipPath id="a5f97286ee"><path d="M 10 7 L 23.9375 7 L 23.9375 22 L 10 22 Z M 10 7 " clip-rule="nonzero"/></clipPath><clipPath id="e7856fe524"><path d="M 7.445312 9 L 21 9 L 21 25 L 7.445312 25 Z M 7.445312 9 " clip-rule="nonzero"/></clipPath></defs><g clip-path="url(#197eeae6a4)"><path fill="#ffffff" d="M 7.234375 0.449219 L 24.417969 0.449219 C 26.214844 0.449219 27.941406 1.164062 29.214844 2.4375 C 30.484375 3.707031 31.199219 5.433594 31.199219 7.234375 L 31.199219 24.417969 C 31.199219 26.214844 30.484375 27.941406 29.214844 29.214844 C 27.941406 30.484375 26.214844 31.199219 24.417969 31.199219 L 7.234375 31.199219 C 5.433594 31.199219 3.707031 30.484375 2.4375 29.214844 C 1.164062 27.941406 0.449219 26.214844 0.449219 24.417969 L 0.449219 7.234375 C 0.449219 5.433594 1.164062 3.707031 2.4375 2.4375 C 3.707031 1.164062 5.433594 0.449219 7.234375 0.449219 " fill-opacity="1" fill-rule="nonzero"/></g><g clip-path="url(#a5f97286ee)"><path fill="#5e25eb" d="M 23.941406 11.5 L 23.941406 18.203125 C 23.941406 21.203125 20.671875 22.988281 18.234375 21.328125 L 20.941406 19.484375 L 20.941406 11.648438 C 20.941406 10.453125 19.636719 9.742188 18.667969 10.40625 L 15.851562 12.324219 C 14.210938 13.441406 12.078125 13.441406 10.441406 12.324219 L 17.125 7.769531 C 20.039062 5.78125 23.941406 7.917969 23.941406 11.5 Z M 23.941406 11.5 " fill-opacity="1" fill-rule="nonzero"/></g><g clip-path="url(#e7856fe524)"><path fill="#4f14c4" d="M 10.441406 12.324219 L 10.441406 20.160156 C 10.441406 21.351562 11.742188 22.066406 12.710938 21.402344 L 15.53125 19.480469 C 17.167969 18.367188 19.300781 18.367188 20.941406 19.480469 L 14.253906 24.039062 C 11.339844 26.023438 7.4375 23.890625 7.4375 20.308594 L 7.4375 13.605469 C 7.4375 10.605469 10.707031 8.820312 13.144531 10.480469 Z M 10.441406 12.324219 " fill-opacity="1" fill-rule="nonzero"/></g></svg>