<svg xmlns="http://www.w3.org/2000/svg" xmlns:xlink="http://www.w3.org/1999/xlink" width="42" zoomAndPan="magnify" viewBox="0 0 31.5 31.499999" height="42" preserveAspectRatio="xMidYMid meet" version="1.0"><defs><clipPath id="c910d582f2"><path d="M 0.449219 0.449219 L 31.007812 0.449219 L 31.007812 31.007812 L 0.449219 31.007812 Z M 0.449219 0.449219 " clip-rule="nonzero"/></clipPath><clipPath id="bef2080693"><path d="M 5.136719 7.144531 L 26.136719 7.144531 L 26.136719 24.21875 L 5.136719 24.21875 Z M 5.136719 7.144531 " clip-rule="nonzero"/></clipPath></defs><g clip-path="url(#c910d582f2)"><path fill="#ffffff" d="M 7.234375 0.449219 L 24.417969 0.449219 C 26.214844 0.449219 27.941406 1.164062 29.214844 2.4375 C 30.484375 3.707031 31.199219 5.433594 31.199219 7.234375 L 31.199219 24.417969 C 31.199219 26.214844 30.484375 27.941406 29.214844 29.214844 C 27.941406 30.484375 26.214844 31.199219 24.417969 31.199219 L 7.234375 31.199219 C 5.433594 31.199219 3.707031 30.484375 2.4375 29.214844 C 1.164062 27.941406 0.449219 26.214844 0.449219 24.417969 L 0.449219 7.234375 C 0.449219 5.433594 1.164062 3.707031 2.4375 2.4375 C 3.707031 1.164062 5.433594 0.449219 7.234375 0.449219 " fill-opacity="1" fill-rule="nonzero"/></g><g clip-path="url(#bef2080693)"><path fill="#3f0f3f" d="M 8.148438 10.351562 L 11.78125 11.574219 C 12.078125 11.707031 13.5 12.226562 16.019531 11.601562 C 19.199219 10.808594 26.085938 9.4375 26.15625 9.421875 L 25.898438 8.125 C 25.894531 8.125 25.875 8.128906 25.851562 8.136719 L 19.289062 7.207031 C 18.566406 7.105469 17.402344 7.132812 16.683594 7.273438 L 7.910156 8.980469 C 6.769531 8.921875 5.683594 9.625 5.320312 10.765625 C 5.109375 11.425781 5.167969 12.125 5.484375 12.738281 C 5.648438 13.050781 5.867188 13.320312 6.128906 13.542969 C 5.734375 13.851562 5.425781 14.277344 5.257812 14.792969 C 5.050781 15.449219 5.109375 16.148438 5.425781 16.765625 C 5.59375 17.097656 5.832031 17.375 6.117188 17.597656 C 5.726562 17.90625 5.421875 18.332031 5.257812 18.835938 C 5.050781 19.496094 5.109375 20.195312 5.425781 20.808594 C 5.742188 21.425781 6.273438 21.878906 6.929688 22.089844 L 13.257812 24.117188 C 13.601562 24.226562 14.171875 24.253906 14.527344 24.167969 L 25.632812 21.617188 C 25.632812 21.617188 25.566406 21.332031 25.484375 20.972656 C 25.40625 20.621094 25.050781 20.394531 24.695312 20.476562 L 14.585938 22.796875 C 14.230469 22.882812 13.660156 22.855469 13.3125 22.746094 L 7.332031 20.828125 C 7.011719 20.726562 6.75 20.503906 6.59375 20.203125 C 6.441406 19.90625 6.414062 19.5625 6.515625 19.242188 C 6.730469 18.578125 7.4375 18.214844 8.097656 18.425781 C 8.101562 18.417969 11.757812 19.589844 13.257812 20.066406 C 13.601562 20.179688 14.171875 20.203125 14.527344 20.125 L 25.632812 17.570312 C 25.632812 17.570312 25.566406 17.28125 25.484375 16.925781 C 25.40625 16.570312 25.050781 16.347656 24.695312 16.429688 L 14.585938 18.753906 C 14.230469 18.832031 13.660156 18.808594 13.3125 18.695312 L 7.332031 16.777344 C 7.011719 16.675781 6.75 16.453125 6.59375 16.15625 C 6.441406 15.855469 6.414062 15.511719 6.515625 15.195312 C 6.730469 14.53125 7.4375 14.167969 8.097656 14.375 C 8.097656 14.375 11.804688 15.5625 13.316406 16.042969 C 13.664062 16.15625 14.234375 16.179688 14.589844 16.101562 L 25.695312 13.546875 C 25.695312 13.546875 25.628906 13.257812 25.546875 12.902344 C 25.464844 12.546875 25.113281 12.324219 24.753906 12.40625 L 14.644531 14.726562 C 14.289062 14.808594 13.722656 14.785156 13.375 14.671875 L 7.394531 12.753906 C 7.074219 12.652344 6.8125 12.429688 6.660156 12.132812 C 6.503906 11.832031 6.476562 11.488281 6.578125 11.171875 C 6.789062 10.507812 7.496094 10.136719 8.148438 10.351562 Z M 8.148438 10.351562 " fill-opacity="1" fill-rule="nonzero"/></g></svg>