<svg xmlns="http://www.w3.org/2000/svg" xmlns:xlink="http://www.w3.org/1999/xlink" width="42" zoomAndPan="magnify" viewBox="0 0 31.5 31.499999" height="42" preserveAspectRatio="xMidYMid meet" version="1.0"><defs><clipPath id="b8b54a5806"><path d="M 0.449219 0.449219 L 31.007812 0.449219 L 31.007812 31.007812 L 0.449219 31.007812 Z M 0.449219 0.449219 " clip-rule="nonzero"/></clipPath><clipPath id="28039a7077"><path d="M 9.667969 12 L 19 12 L 19 27.359375 L 9.667969 27.359375 Z M 9.667969 12 " clip-rule="nonzero"/></clipPath><clipPath id="e9b9d744ec"><path d="M 13 4.109375 L 21.667969 4.109375 L 21.667969 20 L 13 20 Z M 13 4.109375 " clip-rule="nonzero"/></clipPath></defs><g clip-path="url(#b8b54a5806)"><path fill="#5e25eb" d="M 7.234375 0.449219 L 24.417969 0.449219 C 26.214844 0.449219 27.941406 1.164062 29.214844 2.4375 C 30.484375 3.707031 31.199219 5.433594 31.199219 7.234375 L 31.199219 24.417969 C 31.199219 26.214844 30.484375 27.941406 29.214844 29.214844 C 27.941406 30.484375 26.214844 31.199219 24.417969 31.199219 L 7.234375 31.199219 C 5.433594 31.199219 3.707031 30.484375 2.4375 29.214844 C 1.164062 27.941406 0.449219 26.214844 0.449219 24.417969 L 0.449219 7.234375 C 0.449219 5.433594 1.164062 3.707031 2.4375 2.4375 C 3.707031 1.164062 5.433594 0.449219 7.234375 0.449219 " fill-opacity="1" fill-rule="nonzero"/></g><g clip-path="url(#28039a7077)"><path fill="#ffffff" d="M 12.15625 12.125 L 16.902344 18.480469 C 17.148438 18.8125 17.363281 19.164062 17.542969 19.539062 C 17.71875 19.910156 17.863281 20.300781 17.964844 20.703125 C 18.070312 21.105469 18.132812 21.511719 18.15625 21.925781 C 18.179688 22.339844 18.164062 22.753906 18.105469 23.164062 C 18.050781 23.578125 17.953125 23.980469 17.820312 24.371094 C 17.683594 24.765625 17.515625 25.140625 17.304688 25.496094 C 17.097656 25.855469 16.859375 26.191406 16.585938 26.5 C 16.3125 26.8125 16.011719 27.089844 15.683594 27.34375 L 10.9375 20.984375 C 10.691406 20.652344 10.476562 20.300781 10.296875 19.925781 C 10.121094 19.554688 9.980469 19.164062 9.875 18.765625 C 9.773438 18.363281 9.707031 17.953125 9.683594 17.539062 C 9.660156 17.125 9.675781 16.710938 9.734375 16.300781 C 9.789062 15.886719 9.886719 15.484375 10.019531 15.09375 C 10.15625 14.703125 10.328125 14.328125 10.535156 13.96875 C 10.742188 13.609375 10.980469 13.273438 11.253906 12.964844 C 11.527344 12.65625 11.828125 12.375 12.15625 12.125 Z M 12.15625 12.125 " fill-opacity="1" fill-rule="nonzero"/></g><g clip-path="url(#e9b9d744ec)"><path fill="#ffffff" d="M 15.65625 4.121094 L 20.402344 10.476562 C 20.652344 10.808594 20.863281 11.164062 21.042969 11.535156 C 21.222656 11.910156 21.363281 12.296875 21.46875 12.699219 C 21.570312 13.101562 21.632812 13.511719 21.65625 13.925781 C 21.683594 14.339844 21.664062 14.753906 21.609375 15.164062 C 21.550781 15.578125 21.457031 15.980469 21.320312 16.371094 C 21.1875 16.765625 21.015625 17.140625 20.808594 17.5 C 20.597656 17.855469 20.359375 18.191406 20.085938 18.5 C 19.8125 18.8125 19.511719 19.09375 19.183594 19.34375 L 14.4375 12.984375 C 14.1875 12.65625 13.976562 12.300781 13.796875 11.925781 C 13.617188 11.554688 13.476562 11.164062 13.375 10.761719 C 13.269531 10.359375 13.207031 9.953125 13.183594 9.539062 C 13.160156 9.121094 13.175781 8.710938 13.234375 8.296875 C 13.289062 7.886719 13.386719 7.484375 13.519531 7.09375 C 13.65625 6.699219 13.828125 6.324219 14.035156 5.964844 C 14.242188 5.609375 14.484375 5.273438 14.757812 4.960938 C 15.027344 4.652344 15.328125 4.371094 15.65625 4.121094 Z M 15.65625 4.121094 " fill-opacity="1" fill-rule="nonzero"/></g></svg>