<svg xmlns="http://www.w3.org/2000/svg" xmlns:xlink="http://www.w3.org/1999/xlink" width="42" zoomAndPan="magnify" viewBox="0 0 31.5 31.499999" height="42" preserveAspectRatio="xMidYMid meet" version="1.0"><defs><clipPath id="1662fe4d5e"><path d="M 0.449219 0.449219 L 31.007812 0.449219 L 31.007812 31.007812 L 0.449219 31.007812 Z M 0.449219 0.449219 " clip-rule="nonzero"/></clipPath><clipPath id="5eb659cb8c"><path d="M 6.234375 6.234375 L 24.984375 6.234375 L 24.984375 24.984375 L 6.234375 24.984375 Z M 6.234375 6.234375 " clip-rule="nonzero"/></clipPath></defs><g clip-path="url(#1662fe4d5e)"><path fill="#47b5ff" d="M 7.234375 0.449219 L 24.417969 0.449219 C 26.214844 0.449219 27.941406 1.164062 29.214844 2.4375 C 30.484375 3.707031 31.199219 5.433594 31.199219 7.234375 L 31.199219 24.417969 C 31.199219 26.214844 30.484375 27.941406 29.214844 29.214844 C 27.941406 30.484375 26.214844 31.199219 24.417969 31.199219 L 7.234375 31.199219 C 5.433594 31.199219 3.707031 30.484375 2.4375 29.214844 C 1.164062 27.941406 0.449219 26.214844 0.449219 24.417969 L 0.449219 7.234375 C 0.449219 5.433594 1.164062 3.707031 2.4375 2.4375 C 3.707031 1.164062 5.433594 0.449219 7.234375 0.449219 " fill-opacity="1" fill-rule="nonzero"/></g><path fill="#ffffff" d="M 15.460938 20.523438 C 13.046875 20.429688 11.082031 18.464844 10.988281 16.050781 C 10.894531 13.59375 12.703125 11.542969 15.054688 11.246094 C 15.367188 11.207031 15.644531 11.453125 15.644531 11.765625 C 15.652344 15.691406 15.820312 15.859375 19.746094 15.867188 C 20.058594 15.867188 20.304688 16.144531 20.265625 16.457031 C 19.96875 18.808594 17.917969 20.613281 15.460938 20.523438 Z M 15.460938 20.523438 " fill-opacity="1" fill-rule="evenodd"/><g clip-path="url(#5eb659cb8c)"><path fill="#ffffff" d="M 15.609375 6.234375 C 8.855469 6.234375 6.234375 8.785156 6.234375 15.609375 C 6.234375 22.550781 8.714844 24.984375 15.609375 24.984375 C 22.539062 24.984375 24.984375 22.410156 24.984375 15.609375 C 24.984375 8.8125 22.425781 6.234375 15.609375 6.234375 Z M 15.628906 22.296875 C 11.941406 22.296875 8.957031 19.308594 8.957031 15.625 C 8.957031 11.941406 11.941406 8.953125 15.628906 8.953125 C 19.3125 8.953125 22.296875 11.941406 22.296875 15.625 C 22.296875 19.308594 19.3125 22.296875 15.628906 22.296875 Z M 15.628906 22.296875 " fill-opacity="1" fill-rule="evenodd"/></g></svg>