<svg xmlns="http://www.w3.org/2000/svg" xmlns:xlink="http://www.w3.org/1999/xlink" width="42" zoomAndPan="magnify" viewBox="0 0 31.5 31.499999" height="42" preserveAspectRatio="xMidYMid meet" version="1.0"><defs><g/><clipPath id="d873f542e1"><path d="M 0.449219 0.449219 L 31.007812 0.449219 L 31.007812 31.007812 L 0.449219 31.007812 Z M 0.449219 0.449219 " clip-rule="nonzero"/></clipPath></defs><g clip-path="url(#d873f542e1)"><path fill="#6fedd6" d="M 7.234375 0.449219 L 24.417969 0.449219 C 26.214844 0.449219 27.941406 1.164062 29.214844 2.4375 C 30.484375 3.707031 31.199219 5.433594 31.199219 7.234375 L 31.199219 24.417969 C 31.199219 26.214844 30.484375 27.941406 29.214844 29.214844 C 27.941406 30.484375 26.214844 31.199219 24.417969 31.199219 L 7.234375 31.199219 C 5.433594 31.199219 3.707031 30.484375 2.4375 29.214844 C 1.164062 27.941406 0.449219 26.214844 0.449219 24.417969 L 0.449219 7.234375 C 0.449219 5.433594 1.164062 3.707031 2.4375 2.4375 C 3.707031 1.164062 5.433594 0.449219 7.234375 0.449219 " fill-opacity="1" fill-rule="nonzero"/></g><g fill="#ef5241" fill-opacity="1"><g transform="translate(4.878591, 21.284645)"><g><path d="M 4.09375 -11.390625 L 7.015625 -3.125 L 9.921875 -11.390625 L 13.015625 -11.390625 L 13.015625 0 L 10.65625 0 L 10.65625 -3.109375 L 10.890625 -8.5 L 7.8125 0 L 6.203125 0 L 3.125 -8.484375 L 3.359375 -3.109375 L 3.359375 0 L 1.015625 0 L 1.015625 -11.390625 Z M 4.09375 -11.390625 "/></g></g></g><g fill="#ef5241" fill-opacity="1"><g transform="translate(17.952939, 21.284645)"><g><path d="M 4.765625 0.15625 C 3.523438 0.15625 2.515625 -0.222656 1.734375 -0.984375 C 0.953125 -1.742188 0.5625 -2.757812 0.5625 -4.03125 L 0.5625 -4.25 C 0.5625 -5.101562 0.722656 -5.863281 1.046875 -6.53125 C 1.378906 -7.195312 1.847656 -7.710938 2.453125 -8.078125 C 3.054688 -8.441406 3.742188 -8.625 4.515625 -8.625 C 5.671875 -8.625 6.582031 -8.257812 7.25 -7.53125 C 7.914062 -6.800781 8.25 -5.765625 8.25 -4.421875 L 8.25 -3.5 L 2.859375 -3.5 C 2.929688 -2.945312 3.148438 -2.503906 3.515625 -2.171875 C 3.890625 -1.835938 4.359375 -1.671875 4.921875 -1.671875 C 5.785156 -1.671875 6.460938 -1.984375 6.953125 -2.609375 L 8.078125 -1.375 C 7.734375 -0.894531 7.269531 -0.519531 6.6875 -0.25 C 6.113281 0.0195312 5.472656 0.15625 4.765625 0.15625 Z M 4.515625 -6.796875 C 4.054688 -6.796875 3.6875 -6.644531 3.40625 -6.34375 C 3.132812 -6.039062 2.957031 -5.609375 2.875 -5.046875 L 6.03125 -5.046875 L 6.03125 -5.21875 C 6.019531 -5.71875 5.882812 -6.101562 5.625 -6.375 C 5.363281 -6.65625 4.992188 -6.796875 4.515625 -6.796875 Z M 4.515625 -6.796875 "/></g></g></g></svg>