<svg xmlns="http://www.w3.org/2000/svg" xmlns:xlink="http://www.w3.org/1999/xlink" width="42" zoomAndPan="magnify" viewBox="0 0 31.5 31.499999" height="42" preserveAspectRatio="xMidYMid meet" version="1.0"><defs><clipPath id="44a818605c"><path d="M 0.449219 0.449219 L 31.007812 0.449219 L 31.007812 31.007812 L 0.449219 31.007812 Z M 0.449219 0.449219 " clip-rule="nonzero"/></clipPath><clipPath id="4033559a1a"><path d="M 8.644531 5.980469 L 22.894531 5.980469 L 22.894531 25.480469 L 8.644531 25.480469 Z M 8.644531 5.980469 " clip-rule="nonzero"/></clipPath></defs><g clip-path="url(#44a818605c)"><path fill="#764af1" d="M 7.234375 0.449219 L 24.417969 0.449219 C 26.214844 0.449219 27.941406 1.164062 29.214844 2.4375 C 30.484375 3.707031 31.199219 5.433594 31.199219 7.234375 L 31.199219 24.417969 C 31.199219 26.214844 30.484375 27.941406 29.214844 29.214844 C 27.941406 30.484375 26.214844 31.199219 24.417969 31.199219 L 7.234375 31.199219 C 5.433594 31.199219 3.707031 30.484375 2.4375 29.214844 C 1.164062 27.941406 0.449219 26.214844 0.449219 24.417969 L 0.449219 7.234375 C 0.449219 5.433594 1.164062 3.707031 2.4375 2.4375 C 3.707031 1.164062 5.433594 0.449219 7.234375 0.449219 " fill-opacity="1" fill-rule="nonzero"/></g><g clip-path="url(#4033559a1a)"><path fill="#fffdfb" d="M 21.324219 5.980469 L 8.917969 5.988281 C 8.648438 6.183594 8.597656 6.351562 8.679688 6.652344 C 8.964844 7.691406 9.183594 8.746094 9.367188 9.8125 C 9.445312 10.265625 9.410156 10.679688 9.15625 11.058594 C 8.863281 11.496094 8.914062 11.894531 9.199219 12.3125 C 9.710938 13.054688 10.199219 13.816406 10.703125 14.566406 C 11.199219 15.308594 11.0625 15.738281 10.230469 16.027344 C 9.605469 16.246094 9.574219 16.257812 9.820312 16.878906 C 10.007812 17.347656 9.535156 17.640625 9.585938 17.992188 C 9.648438 18.390625 9.78125 18.722656 9.386719 19.023438 C 9.191406 19.167969 9.140625 19.390625 9.234375 19.632812 C 9.296875 19.796875 9.339844 19.96875 9.386719 20.144531 C 9.558594 20.804688 9.386719 21.390625 8.992188 21.769531 L 14.894531 21.765625 L 15.945312 25.480469 L 19.589844 21.765625 L 21.335938 21.765625 C 22.195312 21.761719 22.894531 21.070312 22.890625 20.210938 L 22.886719 7.53125 C 22.882812 6.675781 22.1875 5.980469 21.324219 5.980469 Z M 19.886719 18.675781 C 19.886719 18.78125 19.800781 18.863281 19.695312 18.863281 L 16.039062 18.867188 C 15.933594 18.867188 15.851562 18.78125 15.851562 18.675781 L 15.851562 18.589844 C 15.851562 18.488281 15.933594 18.402344 16.039062 18.402344 L 19.695312 18.398438 C 19.800781 18.398438 19.886719 18.484375 19.886719 18.589844 Z M 19.886719 17.273438 C 19.886719 17.390625 19.789062 17.484375 19.675781 17.484375 L 15.105469 17.488281 C 14.988281 17.488281 14.894531 17.390625 14.894531 17.277344 L 14.894531 17.234375 C 14.894531 17.117188 14.988281 17.023438 15.105469 17.023438 L 19.671875 17.019531 C 19.789062 17.019531 19.886719 17.113281 19.886719 17.230469 Z M 19.886719 17.273438 " fill-opacity="1" fill-rule="nonzero"/></g></svg>