<svg xmlns="http://www.w3.org/2000/svg" xmlns:xlink="http://www.w3.org/1999/xlink" width="42" zoomAndPan="magnify" viewBox="0 0 31.5 31.499999" height="42" preserveAspectRatio="xMidYMid meet" version="1.0"><defs><clipPath id="97132a7ccf"><path d="M 0.449219 0.449219 L 31.007812 0.449219 L 31.007812 31.007812 L 0.449219 31.007812 Z M 0.449219 0.449219 " clip-rule="nonzero"/></clipPath><clipPath id="99fd5d5af0"><path d="M 4.3125 7 L 26.8125 7 L 26.8125 25.875 L 4.3125 25.875 Z M 4.3125 7 " clip-rule="nonzero"/></clipPath></defs><g clip-path="url(#97132a7ccf)"><path fill="#ffffff" d="M 7.234375 0.449219 L 24.417969 0.449219 C 26.214844 0.449219 27.941406 1.164062 29.214844 2.4375 C 30.484375 3.707031 31.199219 5.433594 31.199219 7.234375 L 31.199219 24.417969 C 31.199219 26.214844 30.484375 27.941406 29.214844 29.214844 C 27.941406 30.484375 26.214844 31.199219 24.417969 31.199219 L 7.234375 31.199219 C 5.433594 31.199219 3.707031 30.484375 2.4375 29.214844 C 1.164062 27.941406 0.449219 26.214844 0.449219 24.417969 L 0.449219 7.234375 C 0.449219 5.433594 1.164062 3.707031 2.4375 2.4375 C 3.707031 1.164062 5.433594 0.449219 7.234375 0.449219 " fill-opacity="1" fill-rule="nonzero"/></g><g clip-path="url(#99fd5d5af0)"><path fill="#30e8bd" d="M 27.535156 9.949219 C 27.535156 8.621094 26.441406 7.546875 25.089844 7.546875 C 23.742188 7.546875 22.648438 8.621094 22.648438 9.949219 C 22.648438 13.59375 19.632812 16.5625 15.929688 16.5625 C 12.222656 16.5625 9.207031 13.597656 9.207031 9.949219 C 9.207031 8.621094 8.113281 7.546875 6.765625 7.546875 C 5.414062 7.546875 4.320312 8.621094 4.320312 9.949219 C 4.320312 14.117188 6.601562 17.773438 10.003906 19.765625 C 9.308594 20.839844 8.902344 22.109375 8.902344 23.472656 C 8.902344 24.800781 9.996094 25.875 11.34375 25.875 C 12.695312 25.875 13.789062 24.800781 13.789062 23.472656 C 13.789062 22.3125 14.75 21.371094 15.925781 21.371094 C 17.105469 21.371094 18.066406 22.3125 18.066406 23.472656 C 18.066406 24.800781 19.160156 25.875 20.507812 25.875 C 21.859375 25.875 22.953125 24.800781 22.953125 23.472656 C 22.953125 22.109375 22.546875 20.839844 21.851562 19.765625 C 25.25 17.773438 27.535156 14.117188 27.535156 9.949219 Z M 27.535156 9.949219 " fill-opacity="1" fill-rule="nonzero"/></g><path fill="#30e8bd" d="M 18.972656 8.621094 C 19.09375 9.019531 19.136719 9.421875 19.09375 9.835938 C 19.050781 10.25 18.933594 10.640625 18.734375 11.003906 C 18.535156 11.371094 18.269531 11.6875 17.945312 11.949219 C 17.617188 12.210938 17.253906 12.402344 16.847656 12.523438 C 16.445312 12.644531 16.035156 12.683594 15.613281 12.644531 C 15.195312 12.601562 14.796875 12.484375 14.425781 12.289062 C 14.054688 12.09375 13.734375 11.832031 13.464844 11.511719 C 13.199219 11.191406 13.003906 10.832031 12.882812 10.433594 C 12.761719 10.039062 12.71875 9.632812 12.761719 9.21875 C 12.800781 8.804688 12.921875 8.417969 13.121094 8.050781 C 13.320312 7.683594 13.582031 7.371094 13.910156 7.105469 C 14.238281 6.84375 14.601562 6.652344 15.003906 6.53125 C 15.410156 6.410156 15.820312 6.371094 16.242188 6.414062 C 16.660156 6.453125 17.058594 6.570312 17.429688 6.769531 C 17.800781 6.964844 18.121094 7.222656 18.386719 7.542969 C 18.65625 7.863281 18.851562 8.222656 18.972656 8.621094 Z M 18.972656 8.621094 " fill-opacity="1" fill-rule="nonzero"/></svg>