<svg xmlns="http://www.w3.org/2000/svg" xmlns:xlink="http://www.w3.org/1999/xlink" width="42" zoomAndPan="magnify" viewBox="0 0 31.5 31.499999" height="42" preserveAspectRatio="xMidYMid meet" version="1.0"><defs><clipPath id="4be51582e6"><path d="M 0.449219 0.449219 L 31.007812 0.449219 L 31.007812 31.007812 L 0.449219 31.007812 Z M 0.449219 0.449219 " clip-rule="nonzero"/></clipPath><clipPath id="7061ab5a77"><path d="M 4.660156 6.761719 L 27.160156 6.761719 L 27.160156 24.582031 L 4.660156 24.582031 Z M 4.660156 6.761719 " clip-rule="nonzero"/></clipPath></defs><g clip-path="url(#4be51582e6)"><path fill="#2a317f" d="M 7.234375 0.449219 L 24.417969 0.449219 C 26.214844 0.449219 27.941406 1.164062 29.214844 2.4375 C 30.484375 3.707031 31.199219 5.433594 31.199219 7.234375 L 31.199219 24.417969 C 31.199219 26.214844 30.484375 27.941406 29.214844 29.214844 C 27.941406 30.484375 26.214844 31.199219 24.417969 31.199219 L 7.234375 31.199219 C 5.433594 31.199219 3.707031 30.484375 2.4375 29.214844 C 1.164062 27.941406 0.449219 26.214844 0.449219 24.417969 L 0.449219 7.234375 C 0.449219 5.433594 1.164062 3.707031 2.4375 2.4375 C 3.707031 1.164062 5.433594 0.449219 7.234375 0.449219 " fill-opacity="1" fill-rule="nonzero"/></g><g clip-path="url(#7061ab5a77)"><path fill="#ffffff" d="M 7.890625 10.105469 L 11.78125 11.382812 C 12.101562 11.519531 13.621094 12.0625 16.320312 11.410156 C 19.730469 10.585938 27.109375 9.152344 27.183594 9.136719 L 26.90625 7.78125 C 26.902344 7.78125 26.882812 7.789062 26.859375 7.792969 L 19.828125 6.824219 C 19.050781 6.71875 17.804688 6.746094 17.035156 6.894531 L 7.632812 8.675781 C 6.410156 8.613281 5.25 9.347656 4.859375 10.539062 C 4.636719 11.226562 4.695312 11.957031 5.035156 12.597656 C 5.210938 12.925781 5.445312 13.207031 5.726562 13.4375 C 5.300781 13.757812 4.972656 14.203125 4.792969 14.738281 C 4.570312 15.425781 4.632812 16.15625 4.972656 16.796875 C 5.152344 17.144531 5.410156 17.4375 5.710938 17.671875 C 5.296875 17.992188 4.96875 18.433594 4.792969 18.960938 C 4.570312 19.652344 4.632812 20.378906 4.972656 21.023438 C 5.308594 21.664062 5.882812 22.136719 6.582031 22.355469 L 13.363281 24.472656 C 13.734375 24.589844 14.34375 24.613281 14.726562 24.527344 L 26.625 21.863281 C 26.625 21.863281 26.550781 21.566406 26.464844 21.191406 C 26.378906 20.820312 25.996094 20.589844 25.617188 20.671875 L 14.785156 23.097656 C 14.40625 23.183594 13.796875 23.15625 13.425781 23.042969 L 7.015625 21.039062 C 6.671875 20.933594 6.394531 20.699219 6.226562 20.386719 C 6.0625 20.074219 6.03125 19.71875 6.140625 19.386719 C 6.367188 18.691406 7.125 18.3125 7.835938 18.53125 C 7.839844 18.523438 11.757812 19.746094 13.363281 20.246094 C 13.734375 20.363281 14.34375 20.386719 14.726562 20.304688 L 26.625 17.640625 C 26.625 17.640625 26.550781 17.339844 26.464844 16.964844 C 26.378906 16.597656 26 16.363281 25.617188 16.449219 L 14.785156 18.875 C 14.40625 18.957031 13.796875 18.929688 13.425781 18.816406 L 7.015625 16.8125 C 6.671875 16.707031 6.394531 16.476562 6.226562 16.164062 C 6.0625 15.851562 6.03125 15.492188 6.140625 15.160156 C 6.367188 14.464844 7.125 14.089844 7.835938 14.304688 C 7.835938 14.304688 11.808594 15.542969 13.425781 16.046875 C 13.800781 16.164062 14.410156 16.1875 14.789062 16.105469 L 26.6875 13.441406 C 26.6875 13.441406 26.617188 13.140625 26.53125 12.765625 C 26.445312 12.398438 26.066406 12.164062 25.683594 12.25 L 14.851562 14.671875 C 14.46875 14.757812 13.863281 14.730469 13.488281 14.617188 L 7.082031 12.613281 C 6.738281 12.507812 6.457031 12.277344 6.292969 11.964844 C 6.125 11.652344 6.097656 11.292969 6.207031 10.960938 C 6.433594 10.269531 7.191406 9.882812 7.890625 10.105469 Z M 7.890625 10.105469 " fill-opacity="1" fill-rule="nonzero"/></g></svg>