<svg xmlns="http://www.w3.org/2000/svg" xmlns:xlink="http://www.w3.org/1999/xlink" width="42" zoomAndPan="magnify" viewBox="0 0 31.5 31.499999" height="42" preserveAspectRatio="xMidYMid meet" version="1.0"><defs><clipPath id="7d9bd9cc91"><path d="M 0.449219 0.449219 L 31.007812 0.449219 L 31.007812 31.007812 L 0.449219 31.007812 Z M 0.449219 0.449219 " clip-rule="nonzero"/></clipPath><clipPath id="1f1e5c8709"><path d="M 12 4.894531 L 23.839844 4.894531 L 23.839844 21 L 12 21 Z M 12 4.894531 " clip-rule="nonzero"/></clipPath><clipPath id="18b5d86dff"><path d="M 7.675781 9 L 20 9 L 20 26.644531 L 7.675781 26.644531 Z M 7.675781 9 " clip-rule="nonzero"/></clipPath><clipPath id="e9c160f21e"><path d="M 7.675781 14 L 23.839844 14 L 23.839844 26.644531 L 7.675781 26.644531 Z M 7.675781 14 " clip-rule="nonzero"/></clipPath></defs><g clip-path="url(#7d9bd9cc91)"><path fill="#d22a2e" d="M 7.234375 0.449219 L 24.417969 0.449219 C 26.214844 0.449219 27.941406 1.164062 29.214844 2.4375 C 30.484375 3.707031 31.199219 5.433594 31.199219 7.234375 L 31.199219 24.417969 C 31.199219 26.214844 30.484375 27.941406 29.214844 29.214844 C 27.941406 30.484375 26.214844 31.199219 24.417969 31.199219 L 7.234375 31.199219 C 5.433594 31.199219 3.707031 30.484375 2.4375 29.214844 C 1.164062 27.941406 0.449219 26.214844 0.449219 24.417969 L 0.449219 7.234375 C 0.449219 5.433594 1.164062 3.707031 2.4375 2.4375 C 3.707031 1.164062 5.433594 0.449219 7.234375 0.449219 " fill-opacity="1" fill-rule="nonzero"/></g><g clip-path="url(#1f1e5c8709)"><path fill="#ffffff" d="M 22.027344 20.660156 L 24.160156 20.660156 L 24.160156 10.878906 C 24.160156 7.578125 21.539062 4.894531 18.316406 4.894531 C 15.089844 4.894531 12.46875 7.578125 12.46875 10.878906 L 14.601562 10.878906 C 14.601562 8.785156 16.269531 7.078125 18.316406 7.078125 C 20.363281 7.078125 22.027344 8.785156 22.027344 10.878906 Z M 22.027344 20.660156 " fill-opacity="1" fill-rule="nonzero"/></g><g clip-path="url(#18b5d86dff)"><path fill="#ffffff" d="M 13.535156 26.644531 L 13.535156 24.460938 C 11.488281 24.460938 9.824219 22.753906 9.824219 20.660156 L 9.824219 15.769531 C 9.824219 13.675781 11.488281 11.96875 13.535156 11.96875 C 15.582031 11.96875 17.246094 13.675781 17.246094 15.769531 L 19.382812 15.769531 C 19.382812 12.46875 16.761719 9.785156 13.535156 9.785156 C 10.3125 9.785156 7.691406 12.46875 7.691406 15.769531 L 7.691406 20.660156 C 7.691406 23.960938 10.3125 26.644531 13.535156 26.644531 Z M 13.535156 26.644531 " fill-opacity="1" fill-rule="nonzero"/></g><g clip-path="url(#e9c160f21e)"><path fill="#ffffff" d="M 13.535156 26.644531 L 18.316406 26.644531 C 21.539062 26.644531 24.160156 23.960938 24.160156 20.660156 C 24.160156 17.363281 21.539062 14.675781 18.316406 14.675781 L 13.535156 14.675781 C 10.3125 14.675781 7.691406 17.363281 7.691406 20.660156 C 7.691406 23.960938 10.3125 26.644531 13.535156 26.644531 Z M 18.316406 16.863281 C 20.363281 16.863281 22.027344 18.566406 22.027344 20.660156 C 22.027344 22.753906 20.363281 24.460938 18.316406 24.460938 L 13.535156 24.460938 C 11.488281 24.460938 9.824219 22.753906 9.824219 20.660156 C 9.824219 18.566406 11.488281 16.863281 13.535156 16.863281 Z M 18.316406 16.863281 " fill-opacity="1" fill-rule="nonzero"/></g></svg>