<svg width="41" height="41" viewBox="0 0 41 41" fill="none" xmlns="http://www.w3.org/2000/svg">
<path d="M9.04688 -0.000244141H31.9583C34.3542 -0.000244141 36.6562 0.95288 38.3542 2.6508C40.0469 4.34351 41 6.64559 41 9.04663V31.9581C41 34.3539 40.0469 36.656 38.3542 38.3539C36.6562 40.0466 34.3542 40.9998 31.9583 40.9998H9.04688C6.64583 40.9998 4.34375 40.0466 2.65104 38.3539C0.953124 36.656 0 34.3539 0 31.9581V9.04663C0 6.64559 0.953124 4.34351 2.65104 2.6508C4.34375 0.95288 6.64583 -0.000244141 9.04688 -0.000244141Z" fill="white"/>
<g clip-path="url(#clip0_30_56)">
<path d="M14.5225 16.4644C14.8892 13.1638 17.6791 10.6667 21 10.6667C24.3209 10.6667 27.1108 13.1638 27.4776 16.4644L27.7713 19.1083C27.7751 19.142 27.7769 19.1589 27.7788 19.1756C27.9293 20.4865 28.3559 21.7507 29.0309 22.8847C29.0394 22.8991 29.0481 22.9136 29.0655 22.9426L29.74 24.0666C30.3519 25.0866 30.6579 25.5966 30.5919 26.0153C30.5479 26.2938 30.4045 26.5471 30.1883 26.728C29.8633 27.0001 29.2685 27.0001 28.0791 27.0001H13.9209C12.7314 27.0001 12.1367 27.0001 11.8117 26.728C11.5955 26.5471 11.4521 26.2938 11.4081 26.0153C11.3421 25.5966 11.6481 25.0866 12.26 24.0666L12.9344 22.9426C12.9519 22.9136 12.9606 22.8991 12.9692 22.8847C13.644 21.7507 14.0707 20.4865 14.2212 19.1756C14.2231 19.1589 14.225 19.142 14.2287 19.1083L14.5225 16.4644Z" stroke="#222222"/>
<path d="M17.6193 27.4736C17.8187 28.3419 18.2581 29.1091 18.8693 29.6562C19.4805 30.2035 20.2295 30.5001 21 30.5001C21.7705 30.5001 22.5195 30.2035 23.1307 29.6562C23.7419 29.1091 24.1814 28.3419 24.3808 27.4736" stroke="#222222" stroke-linecap="round"/>
</g>
<defs>
<clipPath id="clip0_30_56">
<rect width="28" height="28" fill="white" transform="translate(7 6)"/>
</clipPath>
</defs>
</svg>
