<svg width="42" height="42" viewBox="0 0 42 42" fill="none" xmlns="http://www.w3.org/2000/svg">
<path d="M9.64575 0.599121H32.5572C34.953 0.599121 37.2551 1.55225 38.953 3.25016C40.6458 4.94287 41.5989 7.24495 41.5989 9.646V32.5575C41.5989 34.9533 40.6458 37.2554 38.953 38.9533C37.2551 40.646 34.953 41.5991 32.5572 41.5991H9.64575C7.24471 41.5991 4.94263 40.646 3.24992 38.9533C1.552 37.2554 0.598877 34.9533 0.598877 32.5575V9.646C0.598877 7.24495 1.552 4.94287 3.24992 3.25016C4.94263 1.55225 7.24471 0.599121 9.64575 0.599121Z" fill="#FFFDFB"/>
<path d="M21.8385 21.2137L30.0155 13.0627C30.1978 12.8804 30.1978 12.6095 30.0155 12.4272C29.8385 12.245 29.5624 12.245 29.3801 12.4272L21.1978 20.5783L13.0468 12.396C12.8645 12.2137 12.5937 12.2137 12.4114 12.396C12.2291 12.5783 12.2291 12.8491 12.4114 13.0314L20.5624 21.2137L12.3801 29.3647C12.1978 29.547 12.1978 29.8231 12.3801 30.0054C12.5624 30.1825 12.8645 30.1825 13.0155 30.0054L21.1978 21.8491L29.3489 30.0054C29.4426 30.0939 29.5624 30.1252 29.6822 30.1252C29.8072 30.1252 29.927 30.0627 30.0155 30.0054C30.1978 29.8231 30.1978 29.547 30.0155 29.3647L21.8385 21.2137Z" fill="black"/>
</svg>
