<svg width="489" height="320" viewBox="0 0 489 320" fill="none" xmlns="http://www.w3.org/2000/svg">
<rect width="488.367" height="320" rx="12" fill="white"/>
<path d="M50.3282 283.404H51.2087L51.2087 287.555C51.2087 287.93 51.1344 288.252 50.9857 288.518C50.839 288.785 50.6322 288.989 50.3654 289.13C50.0986 289.269 49.786 289.339 49.4277 289.339C49.098 289.339 48.8017 289.279 48.5387 289.159C48.2776 289.039 48.0708 288.864 47.9184 288.636C47.7678 288.405 47.6925 288.125 47.6925 287.795H48.5701C48.5701 287.957 48.6073 288.097 48.6816 288.215C48.7579 288.334 48.8617 288.426 48.9932 288.493C49.1266 288.557 49.2791 288.59 49.4506 288.59C49.6374 288.59 49.7956 288.551 49.9251 288.473C50.0566 288.393 50.1567 288.275 50.2253 288.121C50.2939 287.967 50.3282 287.778 50.3282 287.555L50.3282 283.404ZM52.9889 289.259H52.0513L54.1581 283.404H55.1787L57.2855 289.259H56.3478L54.6927 284.468H54.6469L52.9889 289.259ZM53.1461 286.966H56.1878L56.1878 287.709H53.1461L53.1461 286.966ZM62.8563 283.404L62.8563 289.259H62.0445L59.0686 284.965H59.0143L59.0143 289.259H58.1309L58.1309 283.404H58.9485L61.9272 287.704H61.9816L61.9816 283.404H62.8563Z" fill="#838383"/>
<path d="M156.387 289.259H155.449L157.556 283.404H158.577L160.683 289.259H159.746L158.091 284.468H158.045L156.387 289.259ZM156.544 286.966H159.586L159.586 287.709H156.544L156.544 286.966ZM161.529 289.259L161.529 283.404H163.616C164.071 283.404 164.448 283.487 164.748 283.653C165.047 283.819 165.271 284.046 165.419 284.333C165.568 284.619 165.642 284.941 165.642 285.3C165.642 285.66 165.567 285.984 165.417 286.271C165.268 286.557 165.043 286.784 164.742 286.952C164.443 287.118 164.066 287.201 163.613 287.201H162.178L162.178 286.452H163.533C163.821 286.452 164.054 286.402 164.233 286.303C164.412 286.202 164.544 286.065 164.628 285.891C164.711 285.718 164.753 285.521 164.753 285.3C164.753 285.078 164.711 284.882 164.628 284.711C164.544 284.539 164.411 284.405 164.23 284.308C164.051 284.21 163.815 284.162 163.521 284.162H162.412L162.412 289.259H161.529ZM166.678 289.259L166.678 283.404H168.765C169.218 283.404 169.595 283.482 169.894 283.639C170.195 283.795 170.42 284.011 170.569 284.288C170.717 284.562 170.792 284.879 170.792 285.24C170.792 285.598 170.716 285.913 170.566 286.186C170.417 286.456 170.192 286.667 169.891 286.817C169.592 286.968 169.216 287.043 168.762 287.043H167.181L167.181 286.283H168.682C168.968 286.283 169.2 286.242 169.379 286.16C169.561 286.078 169.693 285.959 169.777 285.803C169.861 285.646 169.903 285.459 169.903 285.24C169.903 285.018 169.86 284.827 169.774 284.665C169.69 284.503 169.558 284.379 169.377 284.293C169.197 284.206 168.962 284.162 168.671 284.162H167.561L167.561 289.259H166.678ZM169.568 286.617L171.015 289.259H170.008L168.59 286.617H169.568Z" fill="#838383"/>
<path d="M266.475 283.404H267.356L267.356 287.555C267.356 287.93 267.281 288.252 267.133 288.518C266.986 288.785 266.779 288.989 266.512 289.13C266.245 289.269 265.933 289.339 265.575 289.339C265.245 289.339 264.949 289.279 264.686 289.159C264.424 289.039 264.218 288.864 264.065 288.636C263.915 288.405 263.839 288.125 263.839 287.795H264.717C264.717 287.957 264.754 288.097 264.828 288.215C264.905 288.334 265.009 288.426 265.14 288.493C265.273 288.557 265.426 288.59 265.597 288.59C265.784 288.59 265.942 288.551 266.072 288.473C266.204 288.393 266.304 288.275 266.372 288.121C266.441 287.967 266.475 287.778 266.475 287.555L266.475 283.404ZM272.406 283.404H273.292L273.292 287.255C273.292 287.665 273.196 288.028 273.004 288.344C272.811 288.658 272.54 288.906 272.192 289.087C271.843 289.266 271.434 289.356 270.965 289.356C270.498 289.356 270.091 289.266 269.742 289.087C269.393 288.906 269.122 288.658 268.93 288.344C268.737 288.028 268.641 287.665 268.641 287.255L268.641 283.404H269.525L269.525 287.183C269.525 287.448 269.583 287.684 269.699 287.889C269.817 288.095 269.984 288.257 270.199 288.375C270.415 288.492 270.67 288.55 270.965 288.55C271.263 288.55 271.519 288.492 271.734 288.375C271.952 288.257 272.117 288.095 272.232 287.889C272.348 287.684 272.406 287.448 272.406 287.183L272.406 283.404ZM274.577 289.259L274.577 283.404H275.46L275.46 288.498H278.113L278.113 289.259H274.577Z" fill="#838383"/>
<path d="M380.61 286.332C380.61 286.957 380.496 287.494 380.267 287.944C380.039 288.392 379.725 288.737 379.327 288.979C378.93 289.219 378.48 289.339 377.975 289.339C377.468 289.339 377.015 289.219 376.617 288.979C376.22 288.737 375.908 288.391 375.679 287.941C375.45 287.491 375.336 286.955 375.336 286.332C375.336 285.706 375.45 285.17 375.679 284.722C375.908 284.272 376.22 283.927 376.617 283.687C377.015 283.445 377.468 283.324 377.975 283.324C378.48 283.324 378.93 283.445 379.327 283.687C379.725 283.927 380.039 284.272 380.267 284.722C380.496 285.17 380.61 285.706 380.61 286.332ZM379.736 286.332C379.736 285.855 379.658 285.454 379.504 285.128C379.352 284.8 379.142 284.552 378.875 284.385C378.61 284.215 378.31 284.13 377.975 284.13C377.637 284.13 377.336 284.215 377.071 284.385C376.806 284.552 376.597 284.8 376.442 285.128C376.29 285.454 376.214 285.855 376.214 286.332C376.214 286.808 376.29 287.21 376.442 287.538C376.597 287.864 376.806 288.112 377.071 288.281C377.336 288.449 377.637 288.533 377.975 288.533C378.31 288.533 378.61 288.449 378.875 288.281C379.142 288.112 379.352 287.864 379.504 287.538C379.658 287.21 379.736 286.808 379.736 286.332ZM381.712 289.259L381.712 283.404H382.595L382.595 286.2H382.666L385.122 283.404H386.234L383.873 286.04L386.243 289.259H385.179L383.287 286.643L382.595 287.438L382.595 289.259H381.712ZM386.769 284.165L386.769 283.404H391.3L391.3 284.165H389.473L389.473 289.259H388.592L388.592 284.165H386.769Z" fill="#838383"/>
<path d="M84.0122 289.259L84.0122 283.404H87.6427L87.6427 284.165H84.8955L84.8955 285.948H87.3825L87.3825 286.706H84.8955L84.8955 289.259H84.0122ZM88.729 289.259L88.729 283.404H92.3995L92.3995 284.165H89.6123L89.6123 285.948H92.208L92.208 286.706H89.6123L89.6123 288.498H92.4338L92.4338 289.259H88.729ZM93.5794 289.259L93.5794 283.404H95.7234C96.1389 283.404 96.4829 283.473 96.7554 283.61C97.0279 283.745 97.2318 283.929 97.3671 284.162C97.5025 284.392 97.5701 284.653 97.5701 284.942C97.5701 285.186 97.5253 285.392 97.4358 285.56C97.3462 285.725 97.2261 285.859 97.0756 285.96C96.9269 286.059 96.763 286.131 96.5839 286.177L96.5839 286.234C96.7783 286.244 96.9679 286.307 97.1528 286.423C97.3395 286.537 97.4939 286.7 97.6159 286.912C97.7378 287.123 97.7988 287.381 97.7988 287.684C97.7988 287.983 97.7283 288.252 97.5873 288.49C97.4481 288.726 97.2328 288.914 96.9412 289.053C96.6496 289.19 96.277 289.259 95.8235 289.259H93.5794ZM94.4627 288.501H95.7377C96.1608 288.501 96.4638 288.419 96.6468 288.255C96.8297 288.092 96.9212 287.887 96.9212 287.641C96.9212 287.456 96.8745 287.286 96.7811 287.132C96.6877 286.978 96.5543 286.855 96.3809 286.763C96.2094 286.672 96.0055 286.626 95.7692 286.626H94.4627L94.4627 288.501ZM94.4627 285.937H95.6462C95.8444 285.937 96.0226 285.899 96.1808 285.823C96.3409 285.746 96.4676 285.64 96.561 285.503C96.6563 285.363 96.7039 285.199 96.7039 285.011C96.7039 284.769 96.6191 284.566 96.4495 284.402C96.2799 284.238 96.0198 284.156 95.6691 284.156H94.4627L94.4627 285.937Z" fill="#838383"/>
<path d="M193.036 283.404H194.108L195.972 287.955H196.041L197.905 283.404H198.977L198.977 289.259H198.136L198.136 285.022H198.082L196.355 289.25H195.658L193.931 285.019H193.877L193.877 289.259H193.036L193.036 283.404ZM200.755 289.259H199.818L201.925 283.404H202.945L205.052 289.259H204.114L202.459 284.468H202.413L200.755 289.259ZM200.913 286.966H203.954L203.954 287.709H200.913L200.913 286.966ZM206.781 283.404L206.781 289.259H205.897L205.897 283.404H206.781Z" fill="#838383"/>
<path d="M300.92 289.259H299.983L302.09 283.404H303.11L305.217 289.259H304.279L302.624 284.468H302.578L300.92 289.259ZM301.078 286.966H304.119L304.119 287.709H301.078L301.078 286.966ZM309.827 283.404H310.713L310.713 287.255C310.713 287.665 310.617 288.028 310.425 288.344C310.232 288.658 309.962 288.906 309.613 289.087C309.264 289.266 308.855 289.356 308.386 289.356C307.92 289.356 307.512 289.266 307.163 289.087C306.814 288.906 306.544 288.658 306.351 288.344C306.159 288.028 306.062 287.665 306.062 287.255L306.062 283.404H306.946L306.946 287.183C306.946 287.448 307.004 287.684 307.12 287.889C307.238 288.095 307.405 288.257 307.62 288.375C307.836 288.492 308.091 288.55 308.386 288.55C308.684 288.55 308.94 288.492 309.155 288.375C309.373 288.257 309.539 288.095 309.653 287.889C309.769 287.684 309.827 287.448 309.827 287.183L309.827 283.404ZM315.96 285.254C315.905 285.08 315.83 284.925 315.737 284.788C315.645 284.649 315.536 284.531 315.408 284.433C315.28 284.334 315.135 284.259 314.971 284.208C314.809 284.156 314.631 284.13 314.436 284.13C314.106 284.13 313.809 284.215 313.544 284.385C313.279 284.554 313.07 284.803 312.915 285.131C312.763 285.457 312.687 285.856 312.687 286.329C312.687 286.803 312.764 287.204 312.918 287.532C313.073 287.86 313.284 288.109 313.553 288.278C313.822 288.448 314.127 288.533 314.47 288.533C314.789 288.533 315.066 288.468 315.302 288.338C315.541 288.209 315.724 288.026 315.854 287.789C315.986 287.551 316.051 287.271 316.051 286.949L316.28 286.992H314.605L314.605 286.263H316.906L316.906 286.929C316.906 287.421 316.801 287.848 316.592 288.21C316.384 288.57 316.096 288.848 315.728 289.044C315.362 289.241 314.943 289.339 314.47 289.339C313.941 289.339 313.476 289.217 313.075 288.973C312.677 288.729 312.366 288.383 312.143 287.935C311.921 287.485 311.809 286.952 311.809 286.334C311.809 285.867 311.874 285.448 312.003 285.077C312.133 284.705 312.315 284.39 312.549 284.13C312.786 283.869 313.063 283.67 313.381 283.533C313.701 283.394 314.051 283.324 314.43 283.324C314.747 283.324 315.041 283.371 315.314 283.464C315.588 283.558 315.832 283.69 316.046 283.862C316.261 284.033 316.439 284.237 316.58 284.473C316.721 284.708 316.816 284.968 316.866 285.254H315.96Z" fill="#838383"/>
<path d="M417.432 283.404L417.432 289.259H416.62L413.644 284.965H413.59L413.59 289.259H412.706L412.706 283.404H413.524L416.502 287.704H416.557L416.557 283.404H417.432ZM423.806 286.332C423.806 286.957 423.691 287.494 423.463 287.944C423.234 288.392 422.92 288.737 422.522 288.979C422.126 289.219 421.675 289.339 421.17 289.339C420.663 289.339 420.21 289.219 419.812 288.979C419.416 288.737 419.103 288.391 418.874 287.941C418.646 287.491 418.531 286.955 418.531 286.332C418.531 285.706 418.646 285.17 418.874 284.722C419.103 284.272 419.416 283.927 419.812 283.687C420.21 283.445 420.663 283.324 421.17 283.324C421.675 283.324 422.126 283.445 422.522 283.687C422.92 283.927 423.234 284.272 423.463 284.722C423.691 285.17 423.806 285.706 423.806 286.332ZM422.931 286.332C422.931 285.855 422.854 285.454 422.699 285.128C422.547 284.8 422.337 284.552 422.07 284.385C421.806 284.215 421.505 284.13 421.17 284.13C420.833 284.13 420.532 284.215 420.267 284.385C420.002 284.552 419.792 284.8 419.638 285.128C419.485 285.454 419.409 285.855 419.409 286.332C419.409 286.808 419.485 287.21 419.638 287.538C419.792 287.864 420.002 288.112 420.267 288.281C420.532 288.449 420.833 288.533 421.17 288.533C421.505 288.533 421.806 288.449 422.07 288.281C422.337 288.112 422.547 287.864 422.699 287.538C422.854 287.21 422.931 286.808 422.931 286.332ZM425.128 283.404L426.757 288.172H426.823L428.452 283.404H429.407L427.3 289.259H426.28L424.173 283.404H425.128Z" fill="#838383"/>
<path d="M117.735 283.396H118.807L120.671 287.947H120.74L122.603 283.396H123.675L123.675 289.251H122.835L122.835 285.014H122.781L121.054 289.242H120.356L118.63 285.012H118.576L118.576 289.251H117.735L117.735 283.396ZM125.454 289.251H124.517L126.623 283.396H127.644L129.751 289.251H128.813L127.158 284.46H127.112L125.454 289.251ZM125.611 286.958H128.653L128.653 287.702H125.611L125.611 286.958ZM126.295 282.707C126.159 282.707 126.041 282.658 125.94 282.559C125.839 282.458 125.789 282.342 125.789 282.21C125.789 282.067 125.839 281.948 125.94 281.853C126.041 281.757 126.159 281.71 126.295 281.71C126.438 281.71 126.557 281.757 126.652 281.853C126.749 281.948 126.798 282.067 126.798 282.21C126.798 282.342 126.749 282.458 126.652 282.559C126.557 282.658 126.438 282.707 126.295 282.707ZM127.976 282.707C127.84 282.707 127.722 282.658 127.621 282.559C127.52 282.458 127.47 282.342 127.47 282.21C127.47 282.067 127.52 281.948 127.621 281.853C127.722 281.757 127.84 281.71 127.976 281.71C128.118 281.71 128.238 281.757 128.333 281.853C128.43 281.948 128.479 282.067 128.479 282.21C128.479 282.342 128.43 282.458 128.333 282.559C128.238 282.658 128.118 282.707 127.976 282.707ZM130.596 289.251L130.596 283.396H132.683C133.137 283.396 133.513 283.475 133.812 283.631C134.113 283.787 134.338 284.003 134.487 284.28C134.636 284.554 134.71 284.872 134.71 285.232C134.71 285.59 134.635 285.905 134.484 286.178C134.335 286.449 134.11 286.659 133.809 286.81C133.51 286.96 133.134 287.036 132.68 287.036H131.099L131.099 286.275H132.6C132.886 286.275 133.119 286.234 133.298 286.152C133.479 286.07 133.611 285.951 133.695 285.795C133.779 285.639 133.821 285.451 133.821 285.232C133.821 285.011 133.778 284.819 133.692 284.657C133.608 284.495 133.476 284.371 133.295 284.285C133.116 284.198 132.88 284.154 132.589 284.154H131.48L131.48 289.251H130.596ZM133.486 286.61L134.933 289.251H133.927L132.509 286.61H133.486Z" fill="#838383"/>
<path d="M231.751 283.404H232.632L232.632 287.555C232.632 287.93 232.557 288.252 232.409 288.518C232.262 288.785 232.055 288.989 231.788 289.13C231.522 289.269 231.209 289.339 230.851 289.339C230.521 289.339 230.225 289.279 229.962 289.159C229.701 289.039 229.494 288.864 229.341 288.636C229.191 288.405 229.115 288.125 229.115 287.795H229.993C229.993 287.957 230.03 288.097 230.105 288.215C230.181 288.334 230.285 288.426 230.416 288.493C230.55 288.557 230.702 288.59 230.874 288.59C231.06 288.59 231.218 288.551 231.348 288.473C231.48 288.393 231.58 288.275 231.648 288.121C231.717 287.967 231.751 287.778 231.751 287.555L231.751 283.404ZM237.682 283.404H238.568L238.568 287.255C238.568 287.665 238.472 288.028 238.28 288.344C238.087 288.658 237.817 288.906 237.468 289.087C237.119 289.266 236.71 289.356 236.241 289.356C235.774 289.356 235.367 289.266 235.018 289.087C234.669 288.906 234.399 288.658 234.206 288.344C234.014 288.028 233.917 287.665 233.917 287.255L233.917 283.404H234.801L234.801 287.183C234.801 287.448 234.859 287.684 234.975 287.889C235.093 288.095 235.26 288.257 235.475 288.375C235.691 288.492 235.946 288.55 236.241 288.55C236.539 288.55 236.795 288.492 237.01 288.375C237.228 288.257 237.393 288.095 237.508 287.889C237.624 287.684 237.682 287.448 237.682 287.183L237.682 283.404ZM244.578 283.404L244.578 289.259H243.766L240.79 284.965H240.736L240.736 289.259H239.853L239.853 283.404H240.67L243.649 287.704H243.703L243.703 283.404H244.578Z" fill="#838383"/>
<path d="M341.949 284.942C341.919 284.672 341.793 284.462 341.572 284.313C341.351 284.163 341.072 284.087 340.737 284.087C340.497 284.087 340.289 284.126 340.114 284.202C339.939 284.276 339.802 284.379 339.705 284.511C339.61 284.64 339.562 284.788 339.562 284.954C339.562 285.093 339.595 285.213 339.659 285.314C339.726 285.415 339.813 285.5 339.919 285.568C340.028 285.635 340.144 285.691 340.268 285.737C340.392 285.781 340.511 285.817 340.626 285.846L341.197 285.994C341.384 286.04 341.576 286.102 341.772 286.18C341.968 286.258 342.15 286.361 342.318 286.489C342.486 286.616 342.621 286.775 342.724 286.963C342.829 287.152 342.881 287.378 342.881 287.641C342.881 287.972 342.795 288.267 342.624 288.524C342.454 288.781 342.207 288.984 341.883 289.133C341.561 289.282 341.172 289.356 340.714 289.356C340.276 289.356 339.897 289.286 339.576 289.147C339.256 289.008 339.006 288.811 338.825 288.556C338.644 288.298 338.543 287.993 338.524 287.641H339.411C339.428 287.852 339.496 288.029 339.616 288.17C339.738 288.309 339.894 288.413 340.082 288.481C340.273 288.548 340.482 288.581 340.708 288.581C340.958 288.581 341.18 288.542 341.375 288.464C341.571 288.384 341.725 288.274 341.838 288.132C341.95 287.99 342.006 287.823 342.006 287.632C342.006 287.459 341.957 287.317 341.858 287.206C341.76 287.096 341.628 287.004 341.46 286.932C341.294 286.859 341.107 286.796 340.897 286.74L340.205 286.552C339.737 286.424 339.365 286.236 339.09 285.988C338.818 285.741 338.682 285.413 338.682 285.005C338.682 284.668 338.773 284.373 338.956 284.122C339.139 283.87 339.387 283.675 339.699 283.536C340.012 283.395 340.364 283.324 340.757 283.324C341.153 283.324 341.503 283.394 341.806 283.533C342.111 283.672 342.351 283.864 342.527 284.107C342.702 284.35 342.793 284.628 342.801 284.942H341.949ZM343.937 289.259L343.937 283.404H347.607L347.607 284.165H344.82L344.82 285.948H347.416L347.416 286.706H344.82L344.82 288.498H347.641L347.641 289.259H343.937ZM348.787 289.259L348.787 283.404H350.874C351.329 283.404 351.707 283.487 352.006 283.653C352.305 283.819 352.529 284.046 352.678 284.333C352.826 284.619 352.901 284.941 352.901 285.3C352.901 285.66 352.825 285.984 352.675 286.271C352.526 286.557 352.301 286.784 352 286.952C351.701 287.118 351.325 287.201 350.871 287.201H349.436L349.436 286.452H350.791C351.079 286.452 351.312 286.402 351.491 286.303C351.67 286.202 351.802 286.065 351.886 285.891C351.97 285.718 352.012 285.521 352.012 285.3C352.012 285.078 351.97 284.882 351.886 284.711C351.802 284.539 351.67 284.405 351.488 284.308C351.309 284.21 351.073 284.162 350.78 284.162H349.67L349.67 289.259H348.787Z" fill="#838383"/>
<path d="M451.252 289.259H449.356L449.356 283.404H451.312C451.885 283.404 452.378 283.521 452.79 283.756C453.201 283.988 453.517 284.323 453.736 284.759C453.957 285.194 454.068 285.715 454.068 286.323C454.068 286.933 453.956 287.457 453.733 287.895C453.512 288.334 453.192 288.671 452.773 288.907C452.353 289.142 451.846 289.259 451.252 289.259ZM450.24 288.487H451.203C451.649 288.487 452.02 288.403 452.315 288.235C452.611 288.066 452.832 287.821 452.978 287.501C453.125 287.179 453.199 286.786 453.199 286.323C453.199 285.864 453.125 285.474 452.978 285.154C452.834 284.834 452.617 284.591 452.329 284.425C452.042 284.259 451.684 284.176 451.257 284.176H450.24L450.24 288.487ZM455.166 289.259L455.166 283.404H458.837L458.837 284.165H456.049L456.049 285.948H458.645L458.645 286.706H456.049L456.049 288.498H458.871L458.871 289.259H455.166ZM459.865 289.259L459.865 288.67L462.944 284.165H459.839L459.839 283.404H464.024L464.024 283.993L460.945 288.498H464.05L464.05 289.259H459.865Z" fill="#838383"/>
<path d="M52.7722 88.3677C52.7722 85.8978 54.7745 83.8955 57.2444 83.8955V83.8955C59.7144 83.8955 61.7167 85.8978 61.7167 88.3677L61.7167 262.794C61.7167 265.264 59.7144 267.266 57.2444 267.266V267.266C54.7745 267.266 52.7722 265.264 52.7722 262.794L52.7722 88.3677Z" fill="#F6FAFF"/>
<path d="M52.7722 217.805C52.7722 215.335 54.7745 213.333 57.2444 213.333V213.333C59.7144 213.333 61.7167 215.335 61.7167 217.805L61.7167 263.992C61.7167 266.462 59.7144 268.464 57.2444 268.464V268.464C54.7745 268.464 52.7722 266.462 52.7722 263.992L52.7722 217.805Z" fill="#1F7FF6"/>
<path d="M89.4445 88.3677C89.4445 85.8978 91.4467 83.8955 93.9167 83.8955V83.8955C96.3866 83.8955 98.3889 85.8978 98.3889 88.3677L98.3889 262.794C98.3889 265.264 96.3866 267.266 93.9167 267.266V267.266C91.4467 267.266 89.4445 265.264 89.4445 262.794L89.4445 88.3677Z" fill="#F7FAFF"/>
<path d="M89.4445 202.225C89.4445 199.755 91.4467 197.753 93.9167 197.753V197.753C96.3866 197.753 98.3889 199.755 98.3889 202.225L98.3889 263.992C98.3889 266.462 96.3866 268.465 93.9167 268.465V268.465C91.4467 268.465 89.4445 266.462 89.4445 263.992L89.4445 202.225Z" fill="#1F7FF6"/>
<path d="M125.222 88.3677C125.222 85.8978 127.225 83.8955 129.695 83.8955V83.8955C132.164 83.8955 134.167 85.8978 134.167 88.3677L134.167 262.794C134.167 265.264 132.164 267.266 129.695 267.266V267.266C127.225 267.266 125.222 265.264 125.222 262.794L125.222 88.3677Z" fill="#F6FAFF"/>
<path d="M125 217.55C125 215.065 127.015 213.05 129.5 213.05V213.05C131.985 213.05 134 215.065 134 217.55L134 263.488C134 265.973 131.985 267.988 129.5 267.988V267.988C127.015 267.988 125 265.973 125 263.488L125 217.55Z" fill="#1F7FF6"/>
<path d="M161 88.3677C161 85.8978 163.002 83.8955 165.472 83.8955V83.8955C167.942 83.8955 169.945 85.8978 169.945 88.3677L169.945 262.794C169.945 265.264 167.942 267.266 165.472 267.266V267.266C163.002 267.266 161 265.264 161 262.794L161 88.3677Z" fill="#F6FAFF"/>
<path d="M161 160.278C161 157.808 163.002 155.806 165.472 155.806V155.806C167.942 155.806 169.945 157.808 169.945 160.278L169.945 263.993C169.945 266.463 167.942 268.465 165.472 268.465V268.465C163.002 268.465 161 266.463 161 263.993L161 160.278Z" fill="#1F7FF6"/>
<path d="M196.778 88.3677C196.778 85.8978 198.78 83.8955 201.25 83.8955V83.8955C203.72 83.8955 205.722 85.8978 205.722 88.3677L205.722 262.794C205.722 265.264 203.72 267.266 201.25 267.266V267.266C198.78 267.266 196.778 265.264 196.778 262.794L196.778 88.3677Z" fill="#F6FAFF"/>
<path d="M197 170.653C197 168.168 199.015 166.153 201.5 166.153V166.153C203.985 166.153 206 168.168 206 170.653L206 263.488C206 265.974 203.985 267.988 201.5 267.988V267.988C199.015 267.988 197 265.974 197 263.488L197 170.653Z" fill="#1F7FF6"/>
<path d="M235.239 88.3677C235.239 85.8978 237.241 83.8955 239.711 83.8955V83.8955C242.181 83.8955 244.183 85.8978 244.183 88.3677L244.183 262.794C244.183 265.264 242.181 267.266 239.711 267.266V267.266C237.241 267.266 235.239 265.264 235.239 262.794L235.239 88.3677Z" fill="#F6FAFF"/>
<path d="M235.239 174.66C235.239 172.19 237.241 170.188 239.711 170.188V170.188C242.181 170.188 244.183 172.19 244.183 174.66L244.183 263.992C244.183 266.462 242.181 268.465 239.711 268.465V268.465C237.241 268.465 235.239 266.462 235.239 263.992L235.239 174.66Z" fill="#1F7FF6"/>
<path d="M271.017 88.3677C271.017 85.8978 273.019 83.8955 275.489 83.8955V83.8955C277.959 83.8955 279.961 85.8978 279.961 88.3677L279.961 262.794C279.961 265.264 277.959 267.266 275.489 267.266V267.266C273.019 267.266 271.017 265.264 271.017 262.794L271.017 88.3677Z" fill="#F6FAFF"/>
<path d="M270.982 150.147C270.966 147.722 272.919 145.729 275.344 145.696V145.696C277.77 145.663 279.749 147.603 279.765 150.029L280.518 262.32C280.534 264.745 278.581 266.738 276.156 266.771V266.771C273.73 266.804 271.751 264.864 271.734 262.438L270.982 150.147Z" fill="#1F7FF6"/>
<path d="M306.794 88.3677C306.794 85.8978 308.797 83.8955 311.267 83.8955V83.8955C313.737 83.8955 315.739 85.8978 315.739 88.3677L315.739 262.794C315.739 265.264 313.737 267.266 311.267 267.266V267.266C308.797 267.266 306.794 265.264 306.794 262.794L306.794 88.3677Z" fill="#F6FAFF"/>
<path d="M306.794 217.805C306.794 215.335 308.797 213.333 311.267 213.333V213.333C313.737 213.333 315.739 215.335 315.739 217.805L315.739 263.992C315.739 266.462 313.737 268.464 311.267 268.464V268.464C308.797 268.464 306.794 266.462 306.794 263.992L306.794 217.805Z" fill="#1F7FF6"/>
<path d="M342.572 88.3677C342.572 85.8978 344.575 83.8955 347.044 83.8955V83.8955C349.514 83.8955 351.517 85.8978 351.517 88.3677L351.517 262.794C351.517 265.264 349.514 267.266 347.044 267.266V267.266C344.575 267.266 342.572 265.264 342.572 262.794L342.572 88.3677Z" fill="#F6FAFF"/>
<path d="M343 163.953C343 161.467 345.015 159.453 347.5 159.453V159.453C349.985 159.453 352 161.467 352 163.953L352 263.488C352 265.973 349.985 267.988 347.5 267.988V267.988C345.015 267.988 343 265.973 343 263.488L343 163.953Z" fill="#1F7FF6"/>
<path d="M379.245 88.3677C379.245 85.8978 381.247 83.8955 383.717 83.8955V83.8955C386.187 83.8955 388.189 85.8978 388.189 88.3677L388.189 262.794C388.189 265.264 386.187 267.266 383.717 267.266V267.266C381.247 267.266 379.245 265.264 379.245 262.794L379.245 88.3677Z" fill="#F6FAFF"/>
<path d="M379.245 119.529C379.245 117.059 381.247 115.057 383.717 115.057V115.057C386.187 115.057 388.189 117.059 388.189 119.529L388.189 263.993C388.189 266.463 386.187 268.465 383.717 268.465V268.465C381.247 268.465 379.245 266.463 379.245 263.993L379.245 119.529Z" fill="#1F7FF6"/>
<path d="M415.022 88.3677C415.022 85.8978 417.024 83.8955 419.494 83.8955V83.8955C421.964 83.8955 423.967 85.8978 423.967 88.3677L423.967 262.794C423.967 265.264 421.964 267.266 419.494 267.266V267.266C417.024 267.266 415.022 265.264 415.022 262.794L415.022 88.3677Z" fill="#F6FAFF"/>
<path d="M415.022 105.146C415.022 102.676 417.024 100.674 419.494 100.674V100.674C421.964 100.674 423.967 102.676 423.967 105.146L423.967 263.992C423.967 266.462 421.964 268.464 419.494 268.464V268.464C417.025 268.464 415.022 266.462 415.022 263.992L415.022 105.146Z" fill="#1F7FF6"/>
<path d="M451.695 88.3677C451.695 85.8978 453.697 83.8955 456.167 83.8955V83.8955C458.637 83.8955 460.639 85.8978 460.639 88.3677L460.639 263.993C460.639 266.463 458.637 268.465 456.167 268.465V268.465C453.697 268.465 451.695 266.463 451.695 263.993L451.695 88.3677Z" fill="#1F7FF6"/>
<g opacity="0.5">
<path d="M15.8247 90.6123V89.6991L18.5147 85.449H19.2762V86.7491H18.8119L17.001 89.6186V89.6682H20.7559V90.6123H15.8247ZM18.849 91.7886V90.3337L18.8614 89.9251V85.449H19.9448V91.7886H18.849ZM24.0882 91.9093C23.5784 91.9093 23.141 91.7803 22.7757 91.5224C22.4125 91.2623 22.1329 90.8878 21.9368 90.3987C21.7428 89.9075 21.6458 89.3163 21.6458 88.625C21.6479 87.9336 21.7459 87.3455 21.9399 86.8605C22.1359 86.3735 22.4156 86.0021 22.7788 85.7462C23.144 85.4903 23.5805 85.3623 24.0882 85.3623C24.5958 85.3623 25.0323 85.4903 25.3976 85.7462C25.7628 86.0021 26.0425 86.3735 26.2365 86.8605C26.4325 87.3476 26.5305 87.9357 26.5305 88.625C26.5305 89.3184 26.4325 89.9106 26.2365 90.4018C26.0425 90.8909 25.7628 91.2644 25.3976 91.5224C25.0344 91.7803 24.5979 91.9093 24.0882 91.9093ZM24.0882 90.9404C24.4844 90.9404 24.797 90.7454 25.0261 90.3554C25.2572 89.9633 25.3728 89.3865 25.3728 88.625C25.3728 88.1214 25.3202 87.6984 25.2149 87.3558C25.1097 87.0132 24.9611 86.7553 24.7692 86.5819C24.5773 86.4065 24.3503 86.3188 24.0882 86.3188C23.694 86.3188 23.3824 86.5149 23.1533 86.907C22.9243 87.297 22.8087 87.8697 22.8066 88.625C22.8046 89.1306 22.8551 89.5557 22.9583 89.9003C23.0636 90.245 23.2121 90.505 23.4041 90.6804C23.596 90.8537 23.824 90.9404 24.0882 90.9404ZM29.9023 91.9093C29.3926 91.9093 28.9551 91.7803 28.5898 91.5224C28.2266 91.2623 27.947 90.8878 27.7509 90.3987C27.5569 89.9075 27.4599 89.3163 27.4599 88.625C27.462 87.9336 27.56 87.3455 27.754 86.8605C27.9501 86.3735 28.2297 86.0021 28.5929 85.7462C28.9582 85.4903 29.3946 85.3623 29.9023 85.3623C30.41 85.3623 30.8464 85.4903 31.2117 85.7462C31.577 86.0021 31.8566 86.3735 32.0506 86.8605C32.2466 87.3476 32.3446 87.9357 32.3446 88.625C32.3446 89.3184 32.2466 89.9106 32.0506 90.4018C31.8566 90.8909 31.577 91.2644 31.2117 91.5224C30.8485 91.7803 30.412 91.9093 29.9023 91.9093ZM29.9023 90.9404C30.2985 90.9404 30.6112 90.7454 30.8402 90.3554C31.0714 89.9633 31.1869 89.3865 31.1869 88.625C31.1869 88.1214 31.1343 87.6984 31.0291 87.3558C30.9238 87.0132 30.7752 86.7553 30.5833 86.5819C30.3914 86.4065 30.1644 86.3188 29.9023 86.3188C29.5081 86.3188 29.1965 86.5149 28.9675 86.907C28.7384 87.297 28.6228 87.8697 28.6208 88.625C28.6187 89.1306 28.6693 89.5557 28.7724 89.9003C28.8777 90.245 29.0263 90.505 29.2182 90.6804C29.4101 90.8537 29.6381 90.9404 29.9023 90.9404ZM34.407 90.2965L34.4039 88.9438H34.5835L36.2922 87.0339H37.6016L35.4997 89.3741H35.2676L34.407 90.2965ZM33.3855 91.7886V85.449H34.5061V91.7886H33.3855ZM36.3696 91.7886L34.8218 89.6248L35.5771 88.8355L37.7099 91.7886H36.3696Z" fill="black"/>
<path d="M18.3423 134.284C17.8965 134.284 17.5003 134.208 17.1536 134.055C16.809 133.903 16.5365 133.69 16.3364 133.418C16.1362 133.145 16.0299 132.831 16.0175 132.474H17.1814C17.1918 132.645 17.2485 132.794 17.3517 132.922C17.4549 133.048 17.5921 133.146 17.7634 133.216C17.9347 133.287 18.1266 133.322 18.3392 133.322C18.5662 133.322 18.7674 133.283 18.9428 133.204C19.1182 133.124 19.2554 133.012 19.3545 132.87C19.4535 132.727 19.502 132.563 19.5 132.378C19.502 132.186 19.4525 132.016 19.3514 131.87C19.2503 131.723 19.1037 131.609 18.9118 131.526C18.722 131.444 18.4929 131.403 18.2246 131.403H17.6643V130.517H18.2246C18.4454 130.517 18.6384 130.479 18.8035 130.403C18.9706 130.326 19.1017 130.219 19.1966 130.081C19.2915 129.94 19.338 129.778 19.3359 129.595C19.338 129.415 19.2977 129.259 19.2152 129.127C19.1347 128.993 19.0202 128.889 18.8716 128.815C18.7251 128.74 18.5528 128.703 18.3546 128.703C18.1607 128.703 17.9811 128.738 17.816 128.808C17.6509 128.879 17.5178 128.979 17.4167 129.109C17.3156 129.237 17.2619 129.389 17.2557 129.567H16.1506C16.1589 129.212 16.261 128.9 16.4571 128.632C16.6552 128.362 16.9194 128.151 17.2495 128.001C17.5797 127.848 17.9502 127.771 18.3608 127.771C18.7839 127.771 19.1512 127.851 19.4628 128.01C19.7765 128.167 20.019 128.378 20.1903 128.644C20.3616 128.911 20.4472 129.205 20.4472 129.527C20.4493 129.884 20.344 130.183 20.1315 130.424C19.921 130.666 19.6444 130.824 19.3019 130.898V130.947C19.7476 131.009 20.0892 131.174 20.3265 131.443C20.5659 131.709 20.6845 132.04 20.6825 132.436C20.6825 132.791 20.5813 133.109 20.3791 133.39C20.1789 133.668 19.9024 133.887 19.5495 134.046C19.1987 134.205 18.7963 134.284 18.3423 134.284ZM24.0883 134.318C23.5786 134.318 23.1411 134.189 22.7758 133.932C22.4126 133.672 22.133 133.297 21.9369 132.808C21.7429 132.317 21.6459 131.725 21.6459 131.034C21.648 130.343 21.746 129.755 21.94 129.27C22.136 128.783 22.4157 128.411 22.7789 128.155C23.1441 127.899 23.5806 127.771 24.0883 127.771C24.5959 127.771 25.0324 127.899 25.3977 128.155C25.7629 128.411 26.0426 128.783 26.2366 129.27C26.4326 129.757 26.5306 130.345 26.5306 131.034C26.5306 131.728 26.4326 132.32 26.2366 132.811C26.0426 133.3 25.7629 133.674 25.3977 133.932C25.0345 134.189 24.598 134.318 24.0883 134.318ZM24.0883 133.35C24.4845 133.35 24.7971 133.155 25.0262 132.765C25.2573 132.372 25.3729 131.796 25.3729 131.034C25.3729 130.531 25.3203 130.108 25.215 129.765C25.1098 129.422 24.9612 129.164 24.7693 128.991C24.5774 128.816 24.3504 128.728 24.0883 128.728C23.6941 128.728 23.3825 128.924 23.1534 129.316C22.9244 129.706 22.8088 130.279 22.8067 131.034C22.8047 131.54 22.8552 131.965 22.9584 132.309C23.0637 132.654 23.2123 132.914 23.4042 133.09C23.5961 133.263 23.8241 133.35 24.0883 133.35ZM29.9024 134.318C29.3927 134.318 28.9552 134.189 28.5899 133.932C28.2267 133.672 27.9471 133.297 27.751 132.808C27.557 132.317 27.4601 131.725 27.4601 131.034C27.4621 130.343 27.5601 129.755 27.7541 129.27C27.9502 128.783 28.2298 128.411 28.593 128.155C28.9583 127.899 29.3947 127.771 29.9024 127.771C30.4101 127.771 30.8465 127.899 31.2118 128.155C31.5771 128.411 31.8567 128.783 32.0507 129.27C32.2467 129.757 32.3447 130.345 32.3447 131.034C32.3447 131.728 32.2467 132.32 32.0507 132.811C31.8567 133.3 31.5771 133.674 31.2118 133.932C30.8486 134.189 30.4121 134.318 29.9024 134.318ZM29.9024 133.35C30.2986 133.35 30.6113 133.155 30.8403 132.765C31.0715 132.372 31.187 131.796 31.187 131.034C31.187 130.531 31.1344 130.108 31.0292 129.765C30.9239 129.422 30.7753 129.164 30.5834 128.991C30.3915 128.816 30.1645 128.728 29.9024 128.728C29.5082 128.728 29.1966 128.924 28.9676 129.316C28.7385 129.706 28.6229 130.279 28.6209 131.034C28.6188 131.54 28.6694 131.965 28.7725 132.309C28.8778 132.654 29.0264 132.914 29.2183 133.09C29.4102 133.263 29.6383 133.35 29.9024 133.35ZM34.4071 132.706L34.404 131.353H34.5836L36.2923 129.443H37.6017L35.4998 131.783H35.2677L34.4071 132.706ZM33.3856 134.198V127.858H34.5062V134.198H33.3856ZM36.3697 134.198L34.8219 132.034L35.5772 131.245L37.71 134.198H36.3697Z" fill="black"/>
<path d="M16.3309 175.685V174.855L18.5318 172.697C18.7423 172.485 18.9177 172.296 19.058 172.131C19.1984 171.966 19.3036 171.806 19.3738 171.651C19.4439 171.496 19.479 171.331 19.479 171.156C19.479 170.956 19.4336 170.784 19.3428 170.642C19.252 170.498 19.1272 170.386 18.9683 170.308C18.8094 170.229 18.6288 170.19 18.4266 170.19C18.2181 170.19 18.0355 170.233 17.8787 170.32C17.7218 170.405 17.6001 170.525 17.5134 170.682C17.4288 170.839 17.3865 171.026 17.3865 171.243H16.2938C16.2938 170.84 16.3856 170.49 16.5693 170.193C16.7529 169.896 17.0057 169.666 17.3277 169.503C17.6517 169.34 18.0231 169.258 18.442 169.258C18.8672 169.258 19.2407 169.338 19.5626 169.497C19.8845 169.656 20.1342 169.873 20.3117 170.15C20.4913 170.426 20.581 170.742 20.581 171.097C20.581 171.334 20.5356 171.568 20.4448 171.797C20.354 172.026 20.1941 172.28 19.965 172.558C19.738 172.837 19.4192 173.174 19.0085 173.57L17.9158 174.682V174.725H20.677V175.685H16.3309ZM24.0882 175.805C23.5785 175.805 23.141 175.676 22.7757 175.418C22.4125 175.158 22.1329 174.784 21.9369 174.295C21.7429 173.804 21.6459 173.212 21.6459 172.521C21.6479 171.83 21.746 171.241 21.9399 170.757C22.136 170.27 22.4156 169.898 22.7788 169.642C23.1441 169.386 23.5806 169.258 24.0882 169.258C24.5959 169.258 25.0324 169.386 25.3976 169.642C25.7629 169.898 26.0425 170.27 26.2365 170.757C26.4326 171.244 26.5306 171.832 26.5306 172.521C26.5306 173.214 26.4326 173.807 26.2365 174.298C26.0425 174.787 25.7629 175.16 25.3976 175.418C25.0344 175.676 24.598 175.805 24.0882 175.805ZM24.0882 174.836C24.4845 174.836 24.7971 174.641 25.0262 174.251C25.2573 173.859 25.3729 173.282 25.3729 172.521C25.3729 172.017 25.3202 171.594 25.215 171.252C25.1097 170.909 24.9612 170.651 24.7692 170.478C24.5773 170.303 24.3503 170.215 24.0882 170.215C23.6941 170.215 23.3825 170.411 23.1534 170.803C22.9243 171.193 22.8088 171.766 22.8067 172.521C22.8046 173.027 22.8552 173.452 22.9584 173.796C23.0636 174.141 23.2122 174.401 23.4041 174.576C23.596 174.75 23.8241 174.836 24.0882 174.836ZM29.9023 175.805C29.3926 175.805 28.9551 175.676 28.5899 175.418C28.2267 175.158 27.947 174.784 27.751 174.295C27.557 173.804 27.46 173.212 27.46 172.521C27.4621 171.83 27.5601 171.241 27.7541 170.757C27.9501 170.27 28.2297 169.898 28.593 169.642C28.9582 169.386 29.3947 169.258 29.9023 169.258C30.41 169.258 30.8465 169.386 31.2117 169.642C31.577 169.898 31.8566 170.27 32.0506 170.757C32.2467 171.244 32.3447 171.832 32.3447 172.521C32.3447 173.214 32.2467 173.807 32.0506 174.298C31.8566 174.787 31.577 175.16 31.2117 175.418C30.8485 175.676 30.4121 175.805 29.9023 175.805ZM29.9023 174.836C30.2986 174.836 30.6112 174.641 30.8403 174.251C31.0714 173.859 31.187 173.282 31.187 172.521C31.187 172.017 31.1344 171.594 31.0291 171.252C30.9239 170.909 30.7753 170.651 30.5834 170.478C30.3914 170.303 30.1644 170.215 29.9023 170.215C29.5082 170.215 29.1966 170.411 28.9675 170.803C28.7384 171.193 28.6229 171.766 28.6208 172.521C28.6187 173.027 28.6693 173.452 28.7725 173.796C28.8777 174.141 29.0263 174.401 29.2182 174.576C29.4102 174.75 29.6382 174.836 29.9023 174.836ZM34.4071 174.193L34.404 172.84H34.5835L36.2922 170.93H37.6016L35.4998 173.27H35.2676L34.4071 174.193ZM33.3856 175.685V169.345H34.5061V175.685H33.3856ZM36.3696 175.685L34.8219 173.521L35.5772 172.731L37.71 175.685H36.3696Z" fill="black"/>
<path d="M20.1353 211.753V218.093H18.9868V212.871H18.9497L17.467 213.818V212.765L19.0426 211.753H20.1353ZM24.0882 218.213C23.5785 218.213 23.141 218.085 22.7757 217.827C22.4125 217.567 22.1329 217.192 21.9369 216.703C21.7429 216.212 21.6459 215.621 21.6459 214.929C21.6479 214.238 21.746 213.65 21.94 213.165C22.136 212.678 22.4156 212.306 22.7788 212.05C23.1441 211.794 23.5806 211.667 24.0882 211.667C24.5959 211.667 25.0324 211.794 25.3976 212.05C25.7629 212.306 26.0425 212.678 26.2365 213.165C26.4326 213.652 26.5306 214.24 26.5306 214.929C26.5306 215.623 26.4326 216.215 26.2365 216.706C26.0425 217.195 25.7629 217.569 25.3976 217.827C25.0344 218.085 24.598 218.213 24.0882 218.213ZM24.0882 217.245C24.4845 217.245 24.7971 217.05 25.0262 216.66C25.2573 216.267 25.3729 215.691 25.3729 214.929C25.3729 214.426 25.3202 214.003 25.215 213.66C25.1097 213.317 24.9612 213.059 24.7692 212.886C24.5773 212.711 24.3503 212.623 24.0882 212.623C23.6941 212.623 23.3825 212.819 23.1534 213.211C22.9243 213.601 22.8088 214.174 22.8067 214.929C22.8046 215.435 22.8552 215.86 22.9584 216.205C23.0636 216.549 23.2122 216.809 23.4041 216.985C23.596 217.158 23.8241 217.245 24.0882 217.245ZM29.9024 218.213C29.3926 218.213 28.9551 218.085 28.5899 217.827C28.2267 217.567 27.947 217.192 27.751 216.703C27.557 216.212 27.46 215.621 27.46 214.929C27.4621 214.238 27.5601 213.65 27.7541 213.165C27.9501 212.678 28.2297 212.306 28.593 212.05C28.9582 211.794 29.3947 211.667 29.9024 211.667C30.41 211.667 30.8465 211.794 31.2117 212.05C31.577 212.306 31.8566 212.678 32.0506 213.165C32.2467 213.652 32.3447 214.24 32.3447 214.929C32.3447 215.623 32.2467 216.215 32.0506 216.706C31.8566 217.195 31.577 217.569 31.2117 217.827C30.8485 218.085 30.4121 218.213 29.9024 218.213ZM29.9024 217.245C30.2986 217.245 30.6112 217.05 30.8403 216.66C31.0714 216.267 31.187 215.691 31.187 214.929C31.187 214.426 31.1344 214.003 31.0291 213.66C30.9239 213.317 30.7753 213.059 30.5834 212.886C30.3914 212.711 30.1644 212.623 29.9024 212.623C29.5082 212.623 29.1966 212.819 28.9675 213.211C28.7384 213.601 28.6229 214.174 28.6208 214.929C28.6187 215.435 28.6693 215.86 28.7725 216.205C28.8777 216.549 29.0263 216.809 29.2182 216.985C29.4102 217.158 29.6382 217.245 29.9024 217.245ZM34.4071 216.601L34.404 215.248H34.5835L36.2922 213.338H37.6016L35.4998 215.678H35.2676L34.4071 216.601ZM33.3856 218.093V211.753H34.5061V218.093H33.3856ZM36.3696 218.093L34.8219 215.929L35.5772 215.14L37.71 218.093H36.3696Z" fill="black"/>
<path d="M33.9489 260.386C33.4391 260.386 33.0016 260.257 32.6364 259.999C32.2732 259.739 31.9935 259.365 31.7975 258.876C31.6035 258.385 31.5065 257.793 31.5065 257.102C31.5086 256.411 31.6066 255.823 31.8006 255.338C31.9966 254.851 32.2763 254.479 32.6395 254.223C33.0047 253.967 33.4412 253.839 33.9489 253.839C34.4565 253.839 34.893 253.967 35.2583 254.223C35.6235 254.479 35.9032 254.851 36.0971 255.338C36.2932 255.825 36.3912 256.413 36.3912 257.102C36.3912 257.795 36.2932 258.388 36.0971 258.879C35.9032 259.368 35.6235 259.741 35.2583 259.999C34.8951 260.257 34.4586 260.386 33.9489 260.386ZM33.9489 259.417C34.3451 259.417 34.6577 259.222 34.8868 258.832C35.1179 258.44 35.2335 257.864 35.2335 257.102C35.2335 256.598 35.1809 256.175 35.0756 255.833C34.9704 255.49 34.8218 255.232 34.6299 255.059C34.438 254.884 34.211 254.796 33.9489 254.796C33.5547 254.796 33.2431 254.992 33.014 255.384C32.785 255.774 32.6694 256.347 32.6673 257.102C32.6653 257.608 32.7158 258.033 32.819 258.377C32.9243 258.722 33.0728 258.982 33.2648 259.157C33.4567 259.331 33.6847 259.417 33.9489 259.417Z" fill="black"/>
</g>
<path d="M24.3871 26.9048C24.3474 26.5326 24.1798 26.2429 23.8843 26.0355C23.5917 25.8281 23.211 25.7244 22.7423 25.7244C22.4127 25.7244 22.13 25.7741 21.8942 25.8735C21.6584 25.973 21.478 26.1079 21.353 26.2784C21.228 26.4488 21.1641 26.6434 21.1613 26.8622C21.1613 27.044 21.2025 27.2017 21.2849 27.3352C21.3701 27.4687 21.4852 27.5823 21.63 27.6761C21.7749 27.767 21.9354 27.8437 22.1116 27.9062C22.2877 27.9687 22.4653 28.0213 22.6442 28.0639L23.4624 28.2684C23.792 28.3451 24.1087 28.4488 24.4127 28.5795C24.7195 28.7102 24.9937 28.875 25.2352 29.0738C25.4795 29.2727 25.6727 29.5127 25.8147 29.794C25.9567 30.0752 26.0278 30.4048 26.0278 30.7826C26.0278 31.294 25.8971 31.7443 25.6357 32.1335C25.3744 32.5198 24.9965 32.8224 24.5022 33.0411C24.0107 33.2571 23.4155 33.365 22.7167 33.365C22.0377 33.365 21.4482 33.2599 20.9482 33.0497C20.4511 32.8394 20.0619 32.5326 19.7806 32.1292C19.5022 31.7258 19.3516 31.2343 19.3289 30.6548H20.8843C20.907 30.9588 21.0008 31.2116 21.1655 31.4133C21.3303 31.615 21.5448 31.7656 21.809 31.865C22.0761 31.9644 22.3744 32.0142 22.7039 32.0142C23.0477 32.0142 23.3488 31.963 23.6073 31.8608C23.8687 31.7556 24.0732 31.6108 24.2209 31.4261C24.3687 31.2386 24.444 31.0198 24.4468 30.7698C24.444 30.5426 24.3772 30.3551 24.2465 30.2073C24.1158 30.0568 23.9326 29.9318 23.6968 29.8323C23.4638 29.7301 23.1911 29.6392 22.8786 29.5596L21.8857 29.3039C21.167 29.1193 20.5988 28.8394 20.1812 28.4644C19.7664 28.0866 19.559 27.5852 19.559 26.9602C19.559 26.446 19.6982 25.9957 19.9766 25.6093C20.2579 25.223 20.64 24.9233 21.1229 24.7102C21.6059 24.4943 22.1528 24.3863 22.7636 24.3863C23.3829 24.3863 23.9255 24.4943 24.3914 24.7102C24.8602 24.9233 25.228 25.2201 25.4951 25.6008C25.7621 25.9786 25.8999 26.4133 25.9084 26.9048H24.3871ZM28.7739 29.3977V33.2329H27.2313V24.5056H28.7398V27.7997H28.8165C28.9699 27.4304 29.2071 27.1392 29.5282 26.9261C29.852 26.7102 30.264 26.6022 30.764 26.6022C31.2185 26.6022 31.6148 26.6974 31.9529 26.8877C32.2909 27.0781 32.5523 27.3565 32.737 27.723C32.9245 28.0894 33.0182 28.5369 33.0182 29.0653V33.2329H31.4756V29.3039C31.4756 28.8636 31.362 28.5213 31.1347 28.2769C30.9103 28.0298 30.5949 27.9062 30.1887 27.9062C29.9159 27.9062 29.6716 27.9659 29.4557 28.0852C29.2426 28.2017 29.075 28.3707 28.9529 28.5923C28.8336 28.8139 28.7739 29.0823 28.7739 29.3977ZM37.308 33.3608C36.6688 33.3608 36.1148 33.2201 35.6461 32.9389C35.1773 32.6576 34.8137 32.2642 34.5552 31.7585C34.2995 31.2528 34.1717 30.6619 34.1717 29.9858C34.1717 29.3096 34.2995 28.7173 34.5552 28.2088C34.8137 27.7002 35.1773 27.3054 35.6461 27.0241C36.1148 26.7429 36.6688 26.6022 37.308 26.6022C37.9472 26.6022 38.5012 26.7429 38.97 27.0241C39.4387 27.3054 39.8009 27.7002 40.0566 28.2088C40.3151 28.7173 40.4444 29.3096 40.4444 29.9858C40.4444 30.6619 40.3151 31.2528 40.0566 31.7585C39.8009 32.2642 39.4387 32.6576 38.97 32.9389C38.5012 33.2201 37.9472 33.3608 37.308 33.3608ZM37.3166 32.125C37.6631 32.125 37.9529 32.0298 38.1859 31.8394C38.4188 31.6463 38.5921 31.3877 38.7058 31.0639C38.8222 30.74 38.8805 30.3792 38.8805 29.9815C38.8805 29.5809 38.8222 29.2187 38.7058 28.8948C38.5921 28.5681 38.4188 28.3082 38.1859 28.115C37.9529 27.9218 37.6631 27.8252 37.3166 27.8252C36.9614 27.8252 36.666 27.9218 36.4302 28.115C36.1972 28.3082 36.0225 28.5681 35.906 28.8948C35.7924 29.2187 35.7356 29.5809 35.7356 29.9815C35.7356 30.3792 35.7924 30.74 35.906 31.0639C36.0225 31.3877 36.1972 31.6463 36.4302 31.8394C36.666 32.0298 36.9614 32.125 37.3166 32.125ZM41.616 35.6875V26.6875H43.133V27.7698H43.2225C43.302 27.6108 43.4142 27.4417 43.5591 27.2627C43.704 27.0809 43.9 26.9261 44.1472 26.7983C44.3944 26.6676 44.7097 26.6022 45.0932 26.6022C45.5989 26.6022 46.0549 26.7315 46.4611 26.99C46.8702 27.2457 47.1941 27.625 47.4327 28.1278C47.6742 28.6278 47.7949 29.2414 47.7949 29.9687C47.7949 30.6875 47.677 31.2983 47.4412 31.8011C47.2054 32.3039 46.8844 32.6875 46.4782 32.9517C46.0719 33.2159 45.6117 33.348 45.0975 33.348C44.7225 33.348 44.4114 33.2855 44.1642 33.1605C43.9171 33.0355 43.7182 32.8849 43.5677 32.7088C43.4199 32.5298 43.3049 32.3608 43.2225 32.2017H43.1586V35.6875H41.616ZM43.1287 29.9602C43.1287 30.3835 43.1884 30.7542 43.3077 31.0724C43.4299 31.3906 43.6046 31.6392 43.8319 31.8181C44.062 31.9943 44.3404 32.0823 44.6671 32.0823C45.008 32.0823 45.2935 31.9914 45.5236 31.8096C45.7537 31.625 45.927 31.3735 46.0435 31.0554C46.1628 30.7343 46.2225 30.3693 46.2225 29.9602C46.2225 29.5539 46.1642 29.1931 46.0478 28.8778C45.9313 28.5625 45.758 28.3153 45.5279 28.1363C45.2978 27.9573 45.0108 27.8679 44.6671 27.8679C44.3375 27.8679 44.0577 27.9545 43.8276 28.1278C43.5975 28.3011 43.4228 28.544 43.3035 28.8565C43.187 29.169 43.1287 29.5369 43.1287 29.9602ZM48.9782 33.2329V26.6875H50.5208V33.2329H48.9782ZM49.7538 25.7585C49.5095 25.7585 49.2992 25.6775 49.1231 25.5156C48.947 25.3508 48.8589 25.1534 48.8589 24.9233C48.8589 24.6903 48.947 24.4929 49.1231 24.3309C49.2992 24.1661 49.5095 24.0838 49.7538 24.0838C50.0009 24.0838 50.2112 24.1661 50.3845 24.3309C50.5606 24.4929 50.6487 24.6903 50.6487 24.9233C50.6487 25.1534 50.5606 25.3508 50.3845 25.5156C50.2112 25.6775 50.0009 25.7585 49.7538 25.7585ZM55.2847 26.6875V27.8806H51.4154V26.6875H55.2847ZM52.3827 33.2329V26.0696C52.3827 25.6292 52.4736 25.2627 52.6555 24.9701C52.8401 24.6775 53.0873 24.4588 53.3969 24.3139C53.7066 24.169 54.0503 24.0965 54.4282 24.0965C54.6952 24.0965 54.9324 24.1179 55.1398 24.1605C55.3472 24.2031 55.5006 24.2414 55.6001 24.2755L55.2932 25.4687C55.2279 25.4488 55.1455 25.4289 55.0461 25.409C54.9466 25.3863 54.8358 25.375 54.7137 25.375C54.4268 25.375 54.2236 25.4446 54.1043 25.5838C53.9878 25.7201 53.9296 25.9161 53.9296 26.1718V33.2329H52.3827ZM57.3139 35.6875C57.1036 35.6875 56.909 35.6704 56.7301 35.6363C56.5539 35.6051 56.4133 35.5681 56.3082 35.5255L56.6661 34.3238C56.8906 34.3892 57.0909 34.4204 57.267 34.4176C57.4431 34.4147 57.598 34.3593 57.7315 34.2514C57.8678 34.1463 57.9829 33.9701 58.0767 33.723L58.2088 33.3693L55.8352 26.6875H57.4715L58.9801 31.6306H59.0482L60.561 26.6875H62.2017L59.5809 34.0255C59.4588 34.3721 59.2968 34.669 59.0951 34.9161C58.8934 35.1661 58.6463 35.3565 58.3536 35.4872C58.0639 35.6207 57.7173 35.6875 57.3139 35.6875ZM70.7813 26.9048C70.7415 26.5326 70.5739 26.2429 70.2784 26.0355C69.9858 25.8281 69.6051 25.7244 69.1364 25.7244C68.8068 25.7244 68.5242 25.7741 68.2884 25.8735C68.0526 25.973 67.8722 26.1079 67.7472 26.2784C67.6222 26.4488 67.5583 26.6434 67.5554 26.8622C67.5554 27.044 67.5966 27.2017 67.679 27.3352C67.7642 27.4687 67.8793 27.5823 68.0242 27.6761C68.1691 27.767 68.3296 27.8437 68.5057 27.9062C68.6818 27.9687 68.8594 28.0213 69.0384 28.0639L69.8566 28.2684C70.1861 28.3451 70.5029 28.4488 70.8068 28.5795C71.1137 28.7102 71.3878 28.875 71.6293 29.0738C71.8736 29.2727 72.0668 29.5127 72.2088 29.794C72.3509 30.0752 72.4219 30.4048 72.4219 30.7826C72.4219 31.294 72.2912 31.7443 72.0299 32.1335C71.7685 32.5198 71.3907 32.8224 70.8963 33.0411C70.4049 33.2571 69.8097 33.365 69.1108 33.365C68.4318 33.365 67.8424 33.2599 67.3424 33.0497C66.8452 32.8394 66.456 32.5326 66.1747 32.1292C65.8963 31.7258 65.7458 31.2343 65.723 30.6548H67.2784C67.3012 30.9588 67.3949 31.2116 67.5597 31.4133C67.7245 31.615 67.9389 31.7656 68.2032 31.865C68.4702 31.9644 68.7685 32.0142 69.098 32.0142C69.4418 32.0142 69.7429 31.963 70.0014 31.8608C70.2628 31.7556 70.4674 31.6108 70.6151 31.4261C70.7628 31.2386 70.8381 31.0198 70.8409 30.7698C70.8381 30.5426 70.7713 30.3551 70.6407 30.2073C70.51 30.0568 70.3267 29.9318 70.0909 29.8323C69.858 29.7301 69.5853 29.6392 69.2728 29.5596L68.2799 29.3039C67.5611 29.1193 66.9929 28.8394 66.5753 28.4644C66.1605 28.0866 65.9532 27.5852 65.9532 26.9602C65.9532 26.446 66.0924 25.9957 66.3708 25.6093C66.652 25.223 67.0341 24.9233 67.5171 24.7102C68 24.4943 68.5469 24.3863 69.1577 24.3863C69.777 24.3863 70.3196 24.4943 70.7855 24.7102C71.2543 24.9233 71.6222 25.2201 71.8892 25.6008C72.1563 25.9786 72.2941 26.4133 72.3026 26.9048H70.7813ZM75.168 29.3977V33.2329H73.6254V24.5056H75.1339V27.7997H75.2107C75.3641 27.4304 75.6013 27.1392 75.9223 26.9261C76.2462 26.7102 76.6581 26.6022 77.1581 26.6022C77.6126 26.6022 78.0089 26.6974 78.347 26.8877C78.6851 27.0781 78.9464 27.3565 79.1311 27.723C79.3186 28.0894 79.4124 28.5369 79.4124 29.0653V33.2329H77.8697V29.3039C77.8697 28.8636 77.7561 28.5213 77.5288 28.2769C77.3044 28.0298 76.9891 27.9062 76.5828 27.9062C76.3101 27.9062 76.0658 27.9659 75.8499 28.0852C75.6368 28.2017 75.4692 28.3707 75.347 28.5923C75.2277 28.8139 75.168 29.0823 75.168 29.3977ZM83.7022 33.3608C83.063 33.3608 82.509 33.2201 82.0402 32.9389C81.5715 32.6576 81.2078 32.2642 80.9493 31.7585C80.6936 31.2528 80.5658 30.6619 80.5658 29.9858C80.5658 29.3096 80.6936 28.7173 80.9493 28.2088C81.2078 27.7002 81.5715 27.3054 82.0402 27.0241C82.509 26.7429 83.063 26.6022 83.7022 26.6022C84.3414 26.6022 84.8953 26.7429 85.3641 27.0241C85.8328 27.3054 86.1951 27.7002 86.4507 28.2088C86.7093 28.7173 86.8385 29.3096 86.8385 29.9858C86.8385 30.6619 86.7093 31.2528 86.4507 31.7585C86.1951 32.2642 85.8328 32.6576 85.3641 32.9389C84.8953 33.2201 84.3414 33.3608 83.7022 33.3608ZM83.7107 32.125C84.0573 32.125 84.3471 32.0298 84.58 31.8394C84.813 31.6463 84.9863 31.3877 85.0999 31.0639C85.2164 30.74 85.2746 30.3792 85.2746 29.9815C85.2746 29.5809 85.2164 29.2187 85.0999 28.8948C84.9863 28.5681 84.813 28.3082 84.58 28.115C84.3471 27.9218 84.0573 27.8252 83.7107 27.8252C83.3556 27.8252 83.0601 27.9218 82.8243 28.115C82.5914 28.3082 82.4167 28.5681 82.3002 28.8948C82.1865 29.2187 82.1297 29.5809 82.1297 29.9815C82.1297 30.3792 82.1865 30.74 82.3002 31.0639C82.4167 31.3877 82.5914 31.6463 82.8243 31.8394C83.0601 32.0298 83.3556 32.125 83.7107 32.125ZM88.0101 35.6875V26.6875H89.5271V27.7698H89.6166C89.6962 27.6108 89.8084 27.4417 89.9533 27.2627C90.0982 27.0809 90.2942 26.9261 90.5413 26.7983C90.7885 26.6676 91.1038 26.6022 91.4874 26.6022C91.993 26.6022 92.449 26.7315 92.8553 26.99C93.2644 27.2457 93.5882 27.625 93.8269 28.1278C94.0683 28.6278 94.1891 29.2414 94.1891 29.9687C94.1891 30.6875 94.0712 31.2983 93.8354 31.8011C93.5996 32.3039 93.2786 32.6875 92.8723 32.9517C92.4661 33.2159 92.0058 33.348 91.4916 33.348C91.1166 33.348 90.8055 33.2855 90.5584 33.1605C90.3112 33.0355 90.1124 32.8849 89.9618 32.7088C89.8141 32.5298 89.699 32.3608 89.6166 32.2017H89.5527V35.6875H88.0101ZM89.5229 29.9602C89.5229 30.3835 89.5825 30.7542 89.7019 31.0724C89.824 31.3906 89.9987 31.6392 90.226 31.8181C90.4561 31.9943 90.7345 32.0823 91.0612 32.0823C91.4021 32.0823 91.6876 31.9914 91.9178 31.8096C92.1479 31.625 92.3212 31.3735 92.4376 31.0554C92.557 30.7343 92.6166 30.3693 92.6166 29.9602C92.6166 29.5539 92.5584 29.1931 92.4419 28.8778C92.3254 28.5625 92.1521 28.3153 91.922 28.1363C91.6919 27.9573 91.405 27.8679 91.0612 27.8679C90.7317 27.8679 90.4519 27.9545 90.2217 28.1278C89.9916 28.3011 89.8169 28.544 89.6976 28.8565C89.5811 29.169 89.5229 29.5369 89.5229 29.9602ZM97.8958 25.8309V24.5056H104.859V25.8309H102.161V33.2329H100.593V25.8309H97.8958ZM105.316 33.2329V26.6875H106.811V27.7784H106.88C106.999 27.4005 107.203 27.1093 107.493 26.9048C107.786 26.6974 108.12 26.5937 108.495 26.5937C108.58 26.5937 108.675 26.598 108.78 26.6065C108.888 26.6122 108.978 26.6221 109.049 26.6363V28.0554C108.983 28.0326 108.88 28.0127 108.737 27.9957C108.598 27.9758 108.463 27.9659 108.333 27.9659C108.051 27.9659 107.799 28.0269 107.574 28.1491C107.353 28.2684 107.178 28.4346 107.05 28.6477C106.922 28.8608 106.858 29.1065 106.858 29.3849V33.2329H105.316ZM111.702 33.365C111.287 33.365 110.914 33.2911 110.581 33.1434C110.252 32.9929 109.99 32.7713 109.797 32.4786C109.607 32.186 109.512 31.8252 109.512 31.3963C109.512 31.0269 109.58 30.7215 109.716 30.4801C109.853 30.2386 110.039 30.0454 110.274 29.9005C110.51 29.7556 110.776 29.6463 111.071 29.5724C111.37 29.4957 111.678 29.4403 111.996 29.4062C112.38 29.3664 112.691 29.3309 112.929 29.2997C113.168 29.2656 113.341 29.2144 113.449 29.1463C113.56 29.0752 113.615 28.9659 113.615 28.8181V28.7926C113.615 28.4715 113.52 28.223 113.33 28.0468C113.14 27.8707 112.865 27.7826 112.507 27.7826C112.13 27.7826 111.83 27.865 111.608 28.0298C111.39 28.1946 111.242 28.3892 111.165 28.6136L109.725 28.409C109.838 28.0113 110.026 27.6789 110.287 27.4119C110.549 27.142 110.868 26.9403 111.246 26.8068C111.624 26.6704 112.041 26.6022 112.499 26.6022C112.814 26.6022 113.128 26.6392 113.441 26.713C113.753 26.7869 114.039 26.909 114.297 27.0795C114.556 27.2471 114.763 27.4758 114.919 27.7656C115.078 28.0554 115.158 28.4176 115.158 28.8522V33.2329H113.675V32.3338H113.624C113.53 32.5156 113.398 32.686 113.228 32.8451C113.06 33.0014 112.848 33.1278 112.593 33.2244C112.34 33.3181 112.043 33.365 111.702 33.365ZM112.103 32.2315C112.412 32.2315 112.681 32.1704 112.908 32.0483C113.135 31.9233 113.31 31.7585 113.432 31.5539C113.557 31.3494 113.62 31.1264 113.62 30.8849V30.1136C113.571 30.1534 113.489 30.1903 113.372 30.2244C113.259 30.2585 113.131 30.2883 112.989 30.3139C112.847 30.3394 112.706 30.3622 112.567 30.3821C112.428 30.4019 112.307 30.419 112.205 30.4332C111.975 30.4644 111.769 30.5156 111.587 30.5866C111.405 30.6576 111.262 30.7571 111.157 30.8849C111.051 31.0099 110.999 31.1718 110.999 31.3707C110.999 31.6548 111.103 31.8693 111.31 32.0142C111.517 32.159 111.782 32.2315 112.103 32.2315ZM119.887 26.6875V27.8806H116.017V26.6875H119.887ZM116.985 33.2329V26.0696C116.985 25.6292 117.076 25.2627 117.257 24.9701C117.442 24.6775 117.689 24.4588 117.999 24.3139C118.309 24.169 118.652 24.0965 119.03 24.0965C119.297 24.0965 119.534 24.1179 119.742 24.1605C119.949 24.2031 120.103 24.2414 120.202 24.2755L119.895 25.4687C119.83 25.4488 119.748 25.4289 119.648 25.409C119.549 25.3863 119.438 25.375 119.316 25.375C119.029 25.375 118.826 25.4446 118.706 25.5838C118.59 25.7201 118.532 25.9161 118.532 26.1718V33.2329H116.985ZM124.272 26.6875V27.8806H120.403V26.6875H124.272ZM121.37 33.2329V26.0696C121.37 25.6292 121.461 25.2627 121.643 24.9701C121.828 24.6775 122.075 24.4588 122.385 24.3139C122.694 24.169 123.038 24.0965 123.416 24.0965C123.683 24.0965 123.92 24.1179 124.128 24.1605C124.335 24.2031 124.488 24.2414 124.588 24.2755L124.281 25.4687C124.216 25.4488 124.133 25.4289 124.034 25.409C123.934 25.3863 123.824 25.375 123.701 25.375C123.414 25.375 123.211 25.4446 123.092 25.5838C122.976 25.7201 122.917 25.9161 122.917 26.1718V33.2329H121.37ZM125.343 33.2329V26.6875H126.885V33.2329H125.343ZM126.118 25.7585C125.874 25.7585 125.664 25.6775 125.488 25.5156C125.312 25.3508 125.223 25.1534 125.223 24.9233C125.223 24.6903 125.312 24.4929 125.488 24.3309C125.664 24.1661 125.874 24.0838 126.118 24.0838C126.365 24.0838 126.576 24.1661 126.749 24.3309C126.925 24.4929 127.013 24.6903 127.013 24.9233C127.013 25.1534 126.925 25.3508 126.749 25.5156C126.576 25.6775 126.365 25.7585 126.118 25.7585ZM131.189 33.3608C130.536 33.3608 129.975 33.2173 129.506 32.9304C129.04 32.6434 128.681 32.2471 128.428 31.7414C128.178 31.2329 128.053 30.6477 128.053 29.9858C128.053 29.321 128.181 28.7343 128.436 28.2258C128.692 27.7144 129.053 27.3167 129.519 27.0326C129.987 26.7457 130.541 26.6022 131.181 26.6022C131.712 26.6022 132.182 26.7002 132.591 26.8963C133.003 27.0894 133.331 27.3636 133.575 27.7187C133.82 28.071 133.959 28.4829 133.993 28.9545H132.519C132.459 28.6392 132.317 28.3764 132.092 28.1661C131.871 27.9531 131.574 27.8465 131.202 27.8465C130.886 27.8465 130.609 27.9318 130.371 28.1022C130.132 28.2698 129.946 28.5113 129.813 28.8267C129.682 29.142 129.617 29.5198 129.617 29.9602C129.617 30.4062 129.682 30.7897 129.813 31.1108C129.943 31.4289 130.127 31.6747 130.362 31.848C130.601 32.0184 130.881 32.1036 131.202 32.1036C131.429 32.1036 131.632 32.061 131.811 31.9758C131.993 31.8877 132.145 31.7613 132.267 31.5965C132.389 31.4318 132.473 31.2315 132.519 30.9957H133.993C133.956 31.4588 133.82 31.8693 133.584 32.2272C133.348 32.5823 133.027 32.8608 132.621 33.0625C132.215 33.2613 131.737 33.3608 131.189 33.3608Z" fill="black"/>
<line x1="17.0347" y1="51.1774" x2="466.046" y2="51.1773" stroke="#E4E5E7" stroke-width="0.715555"/>
</svg>
