<svg width="42" height="42" viewBox="0 0 42 42" fill="none" xmlns="http://www.w3.org/2000/svg">
<path d="M9.64575 0.599121H32.5572C34.953 0.599121 37.2551 1.55225 38.953 3.25016C40.6458 4.94287 41.5989 7.24495 41.5989 9.646V32.5575C41.5989 34.9533 40.6458 37.2554 38.953 38.9533C37.2551 40.646 34.953 41.5991 32.5572 41.5991H9.64575C7.24471 41.5991 4.94263 40.646 3.24992 38.9533C1.552 37.2554 0.598877 34.9533 0.598877 32.5575V9.646C0.598877 7.24495 1.552 4.94287 3.24992 3.25016C4.94263 1.55225 7.24471 0.599121 9.64575 0.599121Z" fill="#FFFDFB"/>
<path d="M13.1458 16.6873C13.1458 16.8123 13.0989 16.9321 13.0103 17.0207C12.9218 17.1092 12.802 17.1561 12.677 17.1561C12.552 17.1561 12.4322 17.1092 12.3489 17.0207C12.2603 16.9321 12.2083 16.8123 12.2083 16.6873V12.7082C12.2083 12.4269 12.4374 12.1978 12.7187 12.1978H16.6978C16.8228 12.1978 16.9426 12.2498 17.0312 12.3332C17.1197 12.4217 17.1666 12.5415 17.1666 12.6665C17.1666 12.7915 17.1197 12.9113 17.0312 12.9998C16.9426 13.0884 16.8228 13.1353 16.6978 13.1353H13.4478C13.2812 13.1353 13.1458 13.2707 13.1458 13.4321V16.6873Z" fill="black"/>
<path d="M25.7031 13.1353C25.5781 13.1353 25.4583 13.0884 25.3698 12.9998C25.2813 12.9113 25.2344 12.7915 25.2344 12.6665C25.2344 12.5415 25.2813 12.4217 25.3698 12.3332C25.4583 12.2498 25.5781 12.1978 25.7031 12.1978H29.6771C29.9635 12.1978 30.1927 12.4269 30.1927 12.7082V16.6873C30.1927 16.8123 30.1406 16.9321 30.0521 17.0207C29.9635 17.1092 29.849 17.1561 29.724 17.1561C29.599 17.1561 29.4792 17.1092 29.3906 17.0207C29.3021 16.9321 29.2552 16.8123 29.2552 16.6873V13.4321C29.2552 13.2707 29.1198 13.1353 28.9531 13.1353H25.7031Z" fill="black"/>
<path d="M16.6978 29.2606C16.8228 29.2606 16.9426 29.3127 17.0312 29.4012C17.1197 29.4845 17.1666 29.6043 17.1666 29.7293C17.1666 29.8543 17.1197 29.9741 17.0312 30.0627C16.9426 30.1512 16.8228 30.1981 16.6978 30.1981H12.7187C12.4374 30.1981 12.2083 29.9689 12.2083 29.6877V25.7085C12.2083 25.5835 12.2603 25.4689 12.3489 25.3804C12.4322 25.2918 12.552 25.2397 12.677 25.2397C12.802 25.2397 12.9218 25.2918 13.0103 25.3804C13.0989 25.4689 13.1458 25.5835 13.1458 25.7085V28.9637C13.1458 29.1304 13.2812 29.2606 13.4478 29.2606H16.6978Z" fill="black"/>
<path d="M29.2552 25.7085C29.2552 25.5835 29.3021 25.4689 29.3906 25.3804C29.4792 25.2918 29.599 25.2397 29.724 25.2397C29.849 25.2397 29.9635 25.2918 30.0521 25.3804C30.1406 25.4689 30.1927 25.5835 30.1927 25.7085V29.6877C30.1927 29.9689 29.9635 30.1981 29.6771 30.1981H25.7031C25.5781 30.1981 25.4583 30.1512 25.3698 30.0627C25.2813 29.9741 25.2344 29.8543 25.2344 29.7293C25.2344 29.6043 25.2813 29.4845 25.3698 29.4012C25.4583 29.3127 25.5781 29.2606 25.7031 29.2606H28.9531C29.1198 29.2606 29.2552 29.1304 29.2552 28.9637V25.7085Z" fill="black"/>
</svg>
