<svg width="41" height="41" viewBox="0 0 41 41" fill="none" xmlns="http://www.w3.org/2000/svg">
<path d="M9.04688 -0.000244141H31.9583C34.3542 -0.000244141 36.6563 0.95288 38.3542 2.6508C40.0469 4.34351 41 6.64559 41 9.04663V31.9581C41 34.3539 40.0469 36.656 38.3542 38.3539C36.6563 40.0466 34.3542 40.9998 31.9583 40.9998H9.04688C6.64583 40.9998 4.34375 40.0466 2.65104 38.3539C0.953124 36.656 0 34.3539 0 31.9581V9.04663C0 6.64559 0.953124 4.34351 2.65104 2.6508C4.34375 0.95288 6.64583 -0.000244141 9.04688 -0.000244141Z" fill="white"/>
<path d="M11 19.7308C11 18.0388 11 17.1928 11.3725 16.4491C11.745 15.7054 12.4445 15.1549 13.8436 14.0537L15.2007 12.9855C17.7295 10.9952 18.9938 10 20.5 10C22.0062 10 23.2705 10.9952 25.7992 12.9855L27.1564 14.0537C28.5555 15.1549 29.2551 15.7054 29.6275 16.4491C30 17.1928 30 18.0388 30 19.7308V25.0152C30 27.3652 30 28.5401 29.205 29.2701C28.41 30 27.1305 30 24.5714 30H16.4286C13.8695 30 12.59 30 11.795 29.2701C11 28.5401 11 27.3652 11 25.0152V19.7308Z" stroke="#222222"/>
</svg>
