<svg width="36" height="36" viewBox="0 0 36 36" fill="none" xmlns="http://www.w3.org/2000/svg">
<path d="M1.52604 18.6927H16.6823V33.8489C16.6823 34.4948 17.2031 35.0156 17.849 35.0156C18.4896 35.0156 19.0104 34.4948 19.0104 33.8489V18.6927H34.1667C34.8125 18.6927 35.3333 18.1719 35.3333 17.526C35.3333 16.8854 34.8125 16.3646 34.1667 16.3646H19.0104V1.20311C19.0104 0.56249 18.4896 0.0416565 17.849 0.0416565C17.2031 0.0416565 16.6823 0.56249 16.6823 1.20311V16.3646H1.52604C0.880208 16.3646 0.359375 16.8854 0.359375 17.526C0.359375 18.1719 0.880208 18.6927 1.52604 18.6927Z" fill="#18191A"/>
</svg>
