<svg width="41" height="41" viewBox="0 0 41 41" fill="none" xmlns="http://www.w3.org/2000/svg">
<path d="M9.04688 0H31.9583C34.3542 0 36.6562 0.953124 38.3542 2.65104C40.0469 4.34375 41 6.64583 41 9.04688V31.9583C41 34.3542 40.0469 36.6562 38.3542 38.3542C36.6562 40.0469 34.3542 41 31.9583 41H9.04688C6.64583 41 4.34375 40.0469 2.65104 38.3542C0.953124 36.6562 0 34.3542 0 31.9583V9.04688C0 6.64583 0.953124 4.34375 2.65104 2.65104C4.34375 0.953124 6.64583 0 9.04688 0Z" fill="white"/>
<path d="M11.3385 23.1066C10.7658 22.077 10.4794 21.5621 10.4794 21.0001C10.4794 20.438 10.7658 19.9231 11.3385 18.8935L12.8002 16.2659L14.345 13.6862C14.9503 12.6754 15.2529 12.17 15.7397 11.8889C16.2265 11.6079 16.8155 11.5985 17.9936 11.5797L21 11.5317L24.0065 11.5797C25.1845 11.5985 25.7736 11.6079 26.2604 11.8889C26.7471 12.17 27.0498 12.6754 27.6551 13.6862L29.1999 16.2659L30.6615 18.8935C31.2343 19.9231 31.5207 20.438 31.5207 21.0001C31.5207 21.5621 31.2343 22.077 30.6615 23.1066L29.1999 25.7342L27.6551 28.3139C27.0498 29.3247 26.7471 29.8302 26.2604 30.1112C25.7736 30.3922 25.1845 30.4017 24.0065 30.4204L21 30.4684L17.9936 30.4204C16.8155 30.4017 16.2265 30.3922 15.7397 30.1112C15.2529 29.8302 14.9503 29.3247 14.345 28.3139L12.8002 25.7342L11.3385 23.1066Z" stroke="#222222"/>
<path d="M21 24.25C22.7949 24.25 24.25 22.7949 24.25 21C24.25 19.2051 22.7949 17.75 21 17.75C19.2051 17.75 17.75 19.2051 17.75 21C17.75 22.7949 19.2051 24.25 21 24.25Z" stroke="#222222"/>
</svg>
