<svg width="42" height="42" viewBox="0 0 42 42" fill="none" xmlns="http://www.w3.org/2000/svg">
<path d="M9.64575 0.599121H32.5572C34.953 0.599121 37.2551 1.55225 38.953 3.25016C40.6458 4.94287 41.5989 7.24495 41.5989 9.646V32.5575C41.5989 34.9533 40.6458 37.2554 38.953 38.9533C37.2551 40.646 34.953 41.5991 32.5572 41.5991H9.64575C7.24471 41.5991 4.94263 40.646 3.24992 38.9533C1.552 37.2554 0.598877 34.9533 0.598877 32.5575V9.646C0.598877 7.24495 1.552 4.94287 3.24992 3.25016C4.94263 1.55225 7.24471 0.599121 9.64575 0.599121Z" fill="#FFFDFB"/>
<path d="M19.6563 22.5313C19.6042 22.5104 19.547 22.5 19.4949 22.5H13.5209C13.2865 22.5 13.0938 22.6927 13.0938 22.9271C13.0938 23.1615 13.2865 23.3542 13.5209 23.3542H18.4636L12.3699 29.4531C12.2032 29.6198 12.2032 29.8854 12.3699 30.0521C12.4532 30.1354 12.5626 30.1771 12.6667 30.1771C12.7761 30.1771 12.8855 30.1354 12.9688 30.0521L19.0678 23.9583V28.901C19.0678 29.1354 19.2605 29.3281 19.4949 29.3281C19.7292 29.3281 19.922 29.1354 19.922 28.901V22.9271C19.922 22.8698 19.9115 22.8177 19.8855 22.7656C19.8438 22.6615 19.7605 22.5781 19.6563 22.5313Z" fill="#18191A"/>
<path d="M30.0313 12.3906C29.8647 12.224 29.5938 12.224 29.4272 12.3906L23.3334 18.4844V13.5417C23.3334 13.3073 23.1407 13.1146 22.9063 13.1146C22.672 13.1146 22.4792 13.3073 22.4792 13.5417V19.5156C22.4792 19.5729 22.4897 19.625 22.5105 19.6771C22.5574 19.7813 22.6407 19.8646 22.7449 19.9115C22.797 19.9323 22.849 19.9427 22.9063 19.9427H28.8803C29.1147 19.9427 29.3022 19.75 29.3022 19.5156C29.3022 19.2813 29.1147 19.0885 28.8803 19.0885H23.9376L30.0313 12.9896C30.198 12.8229 30.198 12.5573 30.0313 12.3906Z" fill="#18191A"/>
</svg>
