<svg xmlns="http://www.w3.org/2000/svg" xmlns:xlink="http://www.w3.org/1999/xlink" width="1000" zoomAndPan="magnify" viewBox="0 0 750 749.999995" height="1000" preserveAspectRatio="xMidYMid meet" version="1.0"><defs><filter x="0%" y="0%" width="100%" height="100%" id="c6ee11def5"><feColorMatrix values="0 0 0 0 1 0 0 0 0 1 0 0 0 0 1 0 0 0 1 0" color-interpolation-filters="sRGB"/></filter><g/><clipPath id="a42710d800"><path d="M 65.050781 65.050781 L 685.300781 65.050781 L 685.300781 665 L 65.050781 665 Z M 65.050781 65.050781 " clip-rule="nonzero"/></clipPath><clipPath id="860d76078f"><path d="M 65.050781 65.050781 L 685.300781 65.050781 L 685.300781 685.300781 L 65.050781 685.300781 Z M 65.050781 65.050781 " clip-rule="nonzero"/></clipPath><mask id="6e2c7e3a91"><g filter="url(#c6ee11def5)"><rect x="-75" width="900" fill="#000000" y="-74.999999" height="899.999994" fill-opacity="0.098"/></g></mask><clipPath id="c057cb8cc0"><path d="M 0.0507812 0.0507812 L 620.300781 0.0507812 L 620.300781 620.300781 L 0.0507812 620.300781 Z M 0.0507812 0.0507812 " clip-rule="nonzero"/></clipPath><clipPath id="220d561426"><rect x="0" width="621" y="0" height="621"/></clipPath></defs><g clip-path="url(#a42710d800)"><path fill="#fff9a0" d="M 65.050781 65.050781 L 685.300781 65.050781 L 685.300781 664.625 L 65.050781 664.625 L 65.050781 65.050781 " fill-opacity="1" fill-rule="nonzero"/></g><g clip-path="url(#860d76078f)"><g mask="url(#6e2c7e3a91)"><g transform="matrix(1, 0, 0, 1, 65, 65)"><g clip-path="url(#220d561426)"><g clip-path="url(#c057cb8cc0)"><path fill="#394c60" d="M 0.0507812 599.625 L 620.300781 599.625 L 594.457031 620.300781 C 594.457031 620.300781 390.292969 604.792969 369.617188 604.792969 L 250.734375 604.792969 C 230.058594 604.792969 25.894531 620.300781 25.894531 620.300781 L 0.0507812 599.625 L 0.0507812 0.0507812 L 620.300781 0.0507812 L 620.300781 599.625 L 2.636719 599.625 L 2.636719 597.042969 L 617.714844 597.042969 L 617.714844 2.636719 L 2.636719 2.636719 L 2.636719 599.625 " fill-opacity="1" fill-rule="nonzero"/></g></g></g></g></g><g fill="#333333" fill-opacity="1"><g transform="translate(134.020659, 315.375005)"><g><path d="M 18.53125 0.6875 C 15.3125 0.675781 12.5625 -0.164062 10.28125 -1.84375 C 8 -3.53125 6.253906 -5.984375 5.046875 -9.203125 C 3.835938 -12.421875 3.234375 -16.296875 3.234375 -20.828125 C 3.234375 -25.347656 3.84375 -29.207031 5.0625 -32.40625 C 6.28125 -35.613281 8.03125 -38.0625 10.3125 -39.75 C 12.601562 -41.4375 15.34375 -42.28125 18.53125 -42.28125 C 21.71875 -42.28125 24.453125 -41.429688 26.734375 -39.734375 C 29.015625 -38.046875 30.757812 -35.601562 31.96875 -32.40625 C 33.1875 -29.207031 33.796875 -25.347656 33.796875 -20.828125 C 33.796875 -16.285156 33.191406 -12.40625 31.984375 -9.1875 C 30.773438 -5.976562 29.03125 -3.53125 26.75 -1.84375 C 24.476562 -0.15625 21.738281 0.6875 18.53125 0.6875 Z M 18.53125 -4.75 C 21.351562 -4.75 23.5625 -6.125 25.15625 -8.875 C 26.75 -11.632812 27.546875 -15.617188 27.546875 -20.828125 C 27.546875 -24.296875 27.179688 -27.226562 26.453125 -29.625 C 25.734375 -32.019531 24.695312 -33.835938 23.34375 -35.078125 C 22 -36.316406 20.394531 -36.9375 18.53125 -36.9375 C 15.71875 -36.9375 13.507812 -35.550781 11.90625 -32.78125 C 10.3125 -30.007812 9.503906 -26.023438 9.484375 -20.828125 C 9.484375 -17.359375 9.847656 -14.425781 10.578125 -12.03125 C 11.304688 -9.632812 12.34375 -7.820312 13.6875 -6.59375 C 15.03125 -5.363281 16.644531 -4.75 18.53125 -4.75 Z M 18.53125 -4.75 "/></g></g></g><g fill="#333333" fill-opacity="1"><g transform="translate(171.059278, 315.375005)"><g><path d="M 17.875 -42.28125 C 19.738281 -42.257812 21.570312 -41.914062 23.375 -41.25 C 25.175781 -40.59375 26.804688 -39.507812 28.265625 -38 C 29.734375 -36.488281 30.90625 -34.453125 31.78125 -31.890625 C 32.65625 -29.335938 33.097656 -26.160156 33.109375 -22.359375 C 33.109375 -18.703125 32.738281 -15.453125 32 -12.609375 C 31.269531 -9.765625 30.222656 -7.363281 28.859375 -5.40625 C 27.492188 -3.457031 25.84375 -1.972656 23.90625 -0.953125 C 21.96875 0.0546875 19.78125 0.5625 17.34375 0.5625 C 14.863281 0.5625 12.660156 0.078125 10.734375 -0.890625 C 8.804688 -1.867188 7.238281 -3.222656 6.03125 -4.953125 C 4.820312 -6.691406 4.066406 -8.6875 3.765625 -10.9375 L 9.984375 -10.9375 C 10.390625 -9.144531 11.21875 -7.691406 12.46875 -6.578125 C 13.726562 -5.472656 15.351562 -4.921875 17.34375 -4.921875 C 20.40625 -4.921875 22.789062 -6.253906 24.5 -8.921875 C 26.207031 -11.597656 27.066406 -15.332031 27.078125 -20.125 L 26.75 -20.125 C 26.050781 -18.957031 25.175781 -17.953125 24.125 -17.109375 C 23.070312 -16.265625 21.890625 -15.609375 20.578125 -15.140625 C 19.273438 -14.679688 17.882812 -14.453125 16.40625 -14.453125 C 14.007812 -14.453125 11.828125 -15.039062 9.859375 -16.21875 C 7.890625 -17.40625 6.320312 -19.03125 5.15625 -21.09375 C 3.988281 -23.15625 3.40625 -25.507812 3.40625 -28.15625 C 3.40625 -30.789062 4.003906 -33.179688 5.203125 -35.328125 C 6.398438 -37.472656 8.082031 -39.171875 10.25 -40.421875 C 12.414062 -41.679688 14.957031 -42.300781 17.875 -42.28125 Z M 17.90625 -36.984375 C 16.3125 -36.984375 14.878906 -36.59375 13.609375 -35.8125 C 12.335938 -35.03125 11.335938 -33.976562 10.609375 -32.65625 C 9.878906 -31.332031 9.515625 -29.863281 9.515625 -28.25 C 9.515625 -26.632812 9.867188 -25.171875 10.578125 -23.859375 C 11.285156 -22.546875 12.257812 -21.503906 13.5 -20.734375 C 14.75 -19.972656 16.175781 -19.59375 17.78125 -19.59375 C 18.96875 -19.59375 20.078125 -19.820312 21.109375 -20.28125 C 22.148438 -20.738281 23.054688 -21.378906 23.828125 -22.203125 C 24.597656 -23.023438 25.203125 -23.957031 25.640625 -25 C 26.078125 -26.050781 26.296875 -27.15625 26.296875 -28.3125 C 26.296875 -29.84375 25.929688 -31.265625 25.203125 -32.578125 C 24.472656 -33.898438 23.476562 -34.960938 22.21875 -35.765625 C 20.957031 -36.578125 19.519531 -36.984375 17.90625 -36.984375 Z M 17.90625 -36.984375 "/></g></g></g><g fill="#333333" fill-opacity="1"><g transform="translate(207.507392, 315.375005)"><g><path d="M 8.109375 0.390625 C 6.992188 0.390625 6.035156 -0.00390625 5.234375 -0.796875 C 4.429688 -1.597656 4.03125 -2.5625 4.03125 -3.6875 C 4.03125 -4.800781 4.429688 -5.753906 5.234375 -6.546875 C 6.035156 -7.335938 6.992188 -7.734375 8.109375 -7.734375 C 9.222656 -7.734375 10.175781 -7.335938 10.96875 -6.546875 C 11.769531 -5.753906 12.171875 -4.800781 12.171875 -3.6875 C 12.171875 -2.9375 11.984375 -2.253906 11.609375 -1.640625 C 11.242188 -1.023438 10.753906 -0.53125 10.140625 -0.15625 C 9.523438 0.207031 8.847656 0.390625 8.109375 0.390625 Z M 8.109375 0.390625 "/></g></g></g><g fill="#333333" fill-opacity="1"><g transform="translate(223.735971, 315.375005)"><g><path d="M 19.828125 -41.703125 L 19.828125 0 L 13.515625 0 L 13.515625 -35.390625 L 13.28125 -35.390625 L 3.296875 -28.875 L 3.296875 -34.90625 L 13.703125 -41.703125 Z M 19.828125 -41.703125 "/></g></g></g><g fill="#333333" fill-opacity="1"><g transform="translate(250.837903, 315.375005)"><g><path d="M 19.828125 -41.703125 L 19.828125 0 L 13.515625 0 L 13.515625 -35.390625 L 13.28125 -35.390625 L 3.296875 -28.875 L 3.296875 -34.90625 L 13.703125 -41.703125 Z M 19.828125 -41.703125 "/></g></g></g><g fill="#333333" fill-opacity="1"><g transform="translate(277.939834, 315.375005)"><g><path d="M 8.109375 0.390625 C 6.992188 0.390625 6.035156 -0.00390625 5.234375 -0.796875 C 4.429688 -1.597656 4.03125 -2.5625 4.03125 -3.6875 C 4.03125 -4.800781 4.429688 -5.753906 5.234375 -6.546875 C 6.035156 -7.335938 6.992188 -7.734375 8.109375 -7.734375 C 9.222656 -7.734375 10.175781 -7.335938 10.96875 -6.546875 C 11.769531 -5.753906 12.171875 -4.800781 12.171875 -3.6875 C 12.171875 -2.9375 11.984375 -2.253906 11.609375 -1.640625 C 11.242188 -1.023438 10.753906 -0.53125 10.140625 -0.15625 C 9.523438 0.207031 8.847656 0.390625 8.109375 0.390625 Z M 8.109375 0.390625 "/></g></g></g><g fill="#333333" fill-opacity="1"><g transform="translate(294.168413, 315.375005)"><g><path d="M 4.015625 0 L 4.015625 -4.5625 L 18.125 -19.1875 C 19.632812 -20.769531 20.878906 -22.160156 21.859375 -23.359375 C 22.847656 -24.566406 23.582031 -25.710938 24.0625 -26.796875 C 24.550781 -27.878906 24.796875 -29.035156 24.796875 -30.265625 C 24.796875 -31.648438 24.46875 -32.847656 23.8125 -33.859375 C 23.164062 -34.867188 22.28125 -35.644531 21.15625 -36.1875 C 20.03125 -36.738281 18.757812 -37.015625 17.34375 -37.015625 C 15.851562 -37.015625 14.550781 -36.707031 13.4375 -36.09375 C 12.320312 -35.488281 11.46875 -34.628906 10.875 -33.515625 C 10.28125 -32.398438 9.984375 -31.097656 9.984375 -29.609375 L 3.96875 -29.609375 C 3.96875 -32.148438 4.550781 -34.367188 5.71875 -36.265625 C 6.882812 -38.171875 8.484375 -39.648438 10.515625 -40.703125 C 12.554688 -41.753906 14.875 -42.28125 17.46875 -42.28125 C 20.09375 -42.28125 22.40625 -41.757812 24.40625 -40.71875 C 26.40625 -39.675781 27.96875 -38.257812 29.09375 -36.46875 C 30.226562 -34.6875 30.796875 -32.675781 30.796875 -30.4375 C 30.796875 -28.894531 30.503906 -27.382812 29.921875 -25.90625 C 29.347656 -24.425781 28.347656 -22.78125 26.921875 -20.96875 C 25.492188 -19.15625 23.507812 -16.957031 20.96875 -14.375 L 12.6875 -5.703125 L 12.6875 -5.390625 L 31.46875 -5.390625 L 31.46875 0 Z M 4.015625 0 "/></g></g></g><g fill="#333333" fill-opacity="1"><g transform="translate(329.333714, 315.375005)"><g><path d="M 18.53125 0.6875 C 15.3125 0.675781 12.5625 -0.164062 10.28125 -1.84375 C 8 -3.53125 6.253906 -5.984375 5.046875 -9.203125 C 3.835938 -12.421875 3.234375 -16.296875 3.234375 -20.828125 C 3.234375 -25.347656 3.84375 -29.207031 5.0625 -32.40625 C 6.28125 -35.613281 8.03125 -38.0625 10.3125 -39.75 C 12.601562 -41.4375 15.34375 -42.28125 18.53125 -42.28125 C 21.71875 -42.28125 24.453125 -41.429688 26.734375 -39.734375 C 29.015625 -38.046875 30.757812 -35.601562 31.96875 -32.40625 C 33.1875 -29.207031 33.796875 -25.347656 33.796875 -20.828125 C 33.796875 -16.285156 33.191406 -12.40625 31.984375 -9.1875 C 30.773438 -5.976562 29.03125 -3.53125 26.75 -1.84375 C 24.476562 -0.15625 21.738281 0.6875 18.53125 0.6875 Z M 18.53125 -4.75 C 21.351562 -4.75 23.5625 -6.125 25.15625 -8.875 C 26.75 -11.632812 27.546875 -15.617188 27.546875 -20.828125 C 27.546875 -24.296875 27.179688 -27.226562 26.453125 -29.625 C 25.734375 -32.019531 24.695312 -33.835938 23.34375 -35.078125 C 22 -36.316406 20.394531 -36.9375 18.53125 -36.9375 C 15.71875 -36.9375 13.507812 -35.550781 11.90625 -32.78125 C 10.3125 -30.007812 9.503906 -26.023438 9.484375 -20.828125 C 9.484375 -17.359375 9.847656 -14.425781 10.578125 -12.03125 C 11.304688 -9.632812 12.34375 -7.820312 13.6875 -6.59375 C 15.03125 -5.363281 16.644531 -4.75 18.53125 -4.75 Z M 18.53125 -4.75 "/></g></g></g><g fill="#333333" fill-opacity="1"><g transform="translate(366.372332, 315.375005)"><g><path d="M 4.015625 0 L 4.015625 -4.5625 L 18.125 -19.1875 C 19.632812 -20.769531 20.878906 -22.160156 21.859375 -23.359375 C 22.847656 -24.566406 23.582031 -25.710938 24.0625 -26.796875 C 24.550781 -27.878906 24.796875 -29.035156 24.796875 -30.265625 C 24.796875 -31.648438 24.46875 -32.847656 23.8125 -33.859375 C 23.164062 -34.867188 22.28125 -35.644531 21.15625 -36.1875 C 20.03125 -36.738281 18.757812 -37.015625 17.34375 -37.015625 C 15.851562 -37.015625 14.550781 -36.707031 13.4375 -36.09375 C 12.320312 -35.488281 11.46875 -34.628906 10.875 -33.515625 C 10.28125 -32.398438 9.984375 -31.097656 9.984375 -29.609375 L 3.96875 -29.609375 C 3.96875 -32.148438 4.550781 -34.367188 5.71875 -36.265625 C 6.882812 -38.171875 8.484375 -39.648438 10.515625 -40.703125 C 12.554688 -41.753906 14.875 -42.28125 17.46875 -42.28125 C 20.09375 -42.28125 22.40625 -41.757812 24.40625 -40.71875 C 26.40625 -39.675781 27.96875 -38.257812 29.09375 -36.46875 C 30.226562 -34.6875 30.796875 -32.675781 30.796875 -30.4375 C 30.796875 -28.894531 30.503906 -27.382812 29.921875 -25.90625 C 29.347656 -24.425781 28.347656 -22.78125 26.921875 -20.96875 C 25.492188 -19.15625 23.507812 -16.957031 20.96875 -14.375 L 12.6875 -5.703125 L 12.6875 -5.390625 L 31.46875 -5.390625 L 31.46875 0 Z M 4.015625 0 "/></g></g></g><g fill="#333333" fill-opacity="1"><g transform="translate(401.537645, 315.375005)"><g><path d="M 4.015625 0 L 4.015625 -4.5625 L 18.125 -19.1875 C 19.632812 -20.769531 20.878906 -22.160156 21.859375 -23.359375 C 22.847656 -24.566406 23.582031 -25.710938 24.0625 -26.796875 C 24.550781 -27.878906 24.796875 -29.035156 24.796875 -30.265625 C 24.796875 -31.648438 24.46875 -32.847656 23.8125 -33.859375 C 23.164062 -34.867188 22.28125 -35.644531 21.15625 -36.1875 C 20.03125 -36.738281 18.757812 -37.015625 17.34375 -37.015625 C 15.851562 -37.015625 14.550781 -36.707031 13.4375 -36.09375 C 12.320312 -35.488281 11.46875 -34.628906 10.875 -33.515625 C 10.28125 -32.398438 9.984375 -31.097656 9.984375 -29.609375 L 3.96875 -29.609375 C 3.96875 -32.148438 4.550781 -34.367188 5.71875 -36.265625 C 6.882812 -38.171875 8.484375 -39.648438 10.515625 -40.703125 C 12.554688 -41.753906 14.875 -42.28125 17.46875 -42.28125 C 20.09375 -42.28125 22.40625 -41.757812 24.40625 -40.71875 C 26.40625 -39.675781 27.96875 -38.257812 29.09375 -36.46875 C 30.226562 -34.6875 30.796875 -32.675781 30.796875 -30.4375 C 30.796875 -28.894531 30.503906 -27.382812 29.921875 -25.90625 C 29.347656 -24.425781 28.347656 -22.78125 26.921875 -20.96875 C 25.492188 -19.15625 23.507812 -16.957031 20.96875 -14.375 L 12.6875 -5.703125 L 12.6875 -5.390625 L 31.46875 -5.390625 L 31.46875 0 Z M 4.015625 0 "/></g></g></g><g fill="#333333" fill-opacity="1"><g transform="translate(436.702957, 315.375005)"><g/></g></g><g fill="#333333" fill-opacity="1"><g transform="translate(451.893065, 315.375005)"><g><path d="M 23.90625 -12.96875 L 23.90625 -31.28125 L 30.015625 -31.28125 L 30.015625 0 L 24.03125 0 L 24.03125 -5.421875 L 23.703125 -5.421875 C 22.984375 -3.742188 21.832031 -2.351562 20.25 -1.25 C 18.664062 -0.144531 16.703125 0.40625 14.359375 0.40625 C 12.347656 0.40625 10.570312 -0.0351562 9.03125 -0.921875 C 7.488281 -1.816406 6.28125 -3.140625 5.40625 -4.890625 C 4.53125 -6.640625 4.09375 -8.804688 4.09375 -11.390625 L 4.09375 -31.28125 L 10.1875 -31.28125 L 10.1875 -12.109375 C 10.1875 -9.984375 10.773438 -8.285156 11.953125 -7.015625 C 13.128906 -5.753906 14.664062 -5.125 16.5625 -5.125 C 17.695312 -5.125 18.832031 -5.410156 19.96875 -5.984375 C 21.101562 -6.554688 22.046875 -7.414062 22.796875 -8.5625 C 23.546875 -9.71875 23.914062 -11.1875 23.90625 -12.96875 Z M 23.90625 -12.96875 "/></g></g></g><g fill="#333333" fill-opacity="1"><g transform="translate(485.979199, 315.375005)"><g><path d="M 4.09375 0 L 4.09375 -31.28125 L 9.9375 -31.28125 L 9.9375 -26.1875 L 10.328125 -26.1875 C 10.972656 -27.914062 12.035156 -29.265625 13.515625 -30.234375 C 14.992188 -31.203125 16.769531 -31.6875 18.84375 -31.6875 C 20.925781 -31.6875 22.675781 -31.195312 24.09375 -30.21875 C 25.519531 -29.238281 26.570312 -27.894531 27.25 -26.1875 L 27.578125 -26.1875 C 28.316406 -27.851562 29.5 -29.1875 31.125 -30.1875 C 32.757812 -31.1875 34.703125 -31.6875 36.953125 -31.6875 C 39.796875 -31.6875 42.113281 -30.796875 43.90625 -29.015625 C 45.707031 -27.234375 46.609375 -24.550781 46.609375 -20.96875 L 46.609375 0 L 40.53125 0 L 40.53125 -20.40625 C 40.53125 -22.519531 39.953125 -24.050781 38.796875 -25 C 37.640625 -25.957031 36.257812 -26.4375 34.65625 -26.4375 C 32.675781 -26.4375 31.132812 -25.828125 30.03125 -24.609375 C 28.9375 -23.390625 28.390625 -21.832031 28.390625 -19.9375 L 28.390625 0 L 22.3125 0 L 22.3125 -20.796875 C 22.3125 -22.492188 21.78125 -23.859375 20.71875 -24.890625 C 19.664062 -25.921875 18.289062 -26.4375 16.59375 -26.4375 C 15.4375 -26.4375 14.375 -26.132812 13.40625 -25.53125 C 12.4375 -24.925781 11.65625 -24.085938 11.0625 -23.015625 C 10.476562 -21.941406 10.1875 -20.695312 10.1875 -19.28125 L 10.1875 0 Z M 4.09375 0 "/></g></g></g><g fill="#333333" fill-opacity="1"><g transform="translate(536.64004, 315.375005)"><g/></g></g><g fill="#333333" fill-opacity="1"><g transform="translate(551.830148, 315.375005)"><g><path d="M 19.828125 -41.703125 L 19.828125 0 L 13.515625 0 L 13.515625 -35.390625 L 13.28125 -35.390625 L 3.296875 -28.875 L 3.296875 -34.90625 L 13.703125 -41.703125 Z M 19.828125 -41.703125 "/></g></g></g><g fill="#333333" fill-opacity="1"><g transform="translate(578.932091, 315.375005)"><g><path d="M 18.53125 0.6875 C 15.3125 0.675781 12.5625 -0.164062 10.28125 -1.84375 C 8 -3.53125 6.253906 -5.984375 5.046875 -9.203125 C 3.835938 -12.421875 3.234375 -16.296875 3.234375 -20.828125 C 3.234375 -25.347656 3.84375 -29.207031 5.0625 -32.40625 C 6.28125 -35.613281 8.03125 -38.0625 10.3125 -39.75 C 12.601562 -41.4375 15.34375 -42.28125 18.53125 -42.28125 C 21.71875 -42.28125 24.453125 -41.429688 26.734375 -39.734375 C 29.015625 -38.046875 30.757812 -35.601562 31.96875 -32.40625 C 33.1875 -29.207031 33.796875 -25.347656 33.796875 -20.828125 C 33.796875 -16.285156 33.191406 -12.40625 31.984375 -9.1875 C 30.773438 -5.976562 29.03125 -3.53125 26.75 -1.84375 C 24.476562 -0.15625 21.738281 0.6875 18.53125 0.6875 Z M 18.53125 -4.75 C 21.351562 -4.75 23.5625 -6.125 25.15625 -8.875 C 26.75 -11.632812 27.546875 -15.617188 27.546875 -20.828125 C 27.546875 -24.296875 27.179688 -27.226562 26.453125 -29.625 C 25.734375 -32.019531 24.695312 -33.835938 23.34375 -35.078125 C 22 -36.316406 20.394531 -36.9375 18.53125 -36.9375 C 15.71875 -36.9375 13.507812 -35.550781 11.90625 -32.78125 C 10.3125 -30.007812 9.503906 -26.023438 9.484375 -20.828125 C 9.484375 -17.359375 9.847656 -14.425781 10.578125 -12.03125 C 11.304688 -9.632812 12.34375 -7.820312 13.6875 -6.59375 C 15.03125 -5.363281 16.644531 -4.75 18.53125 -4.75 Z M 18.53125 -4.75 "/></g></g></g><g fill="#333333" fill-opacity="1"><g transform="translate(154.411283, 395.625001)"><g><path d="M 31.40625 -41.703125 L 37.71875 -41.703125 L 37.71875 -14.28125 C 37.71875 -11.351562 37.03125 -8.765625 35.65625 -6.515625 C 34.28125 -4.273438 32.347656 -2.515625 29.859375 -1.234375 C 27.378906 0.046875 24.472656 0.6875 21.140625 0.6875 C 17.804688 0.6875 14.894531 0.046875 12.40625 -1.234375 C 9.925781 -2.515625 8 -4.273438 6.625 -6.515625 C 5.257812 -8.765625 4.578125 -11.351562 4.578125 -14.28125 L 4.578125 -41.703125 L 10.875 -41.703125 L 10.875 -14.78125 C 10.875 -12.894531 11.289062 -11.21875 12.125 -9.75 C 12.957031 -8.289062 14.140625 -7.140625 15.671875 -6.296875 C 17.210938 -5.460938 19.035156 -5.046875 21.140625 -5.046875 C 23.253906 -5.046875 25.082031 -5.460938 26.625 -6.296875 C 28.164062 -7.140625 29.347656 -8.289062 30.171875 -9.75 C 30.992188 -11.21875 31.40625 -12.894531 31.40625 -14.78125 Z M 31.40625 -41.703125 "/></g></g></g><g fill="#333333" fill-opacity="1"><g transform="translate(196.703323, 395.625001)"><g><path d="M 10.1875 -18.578125 L 10.1875 0 L 4.09375 0 L 4.09375 -41.703125 L 10.09375 -41.703125 L 10.09375 -26.1875 L 10.484375 -26.1875 C 11.222656 -27.875 12.34375 -29.210938 13.84375 -30.203125 C 15.351562 -31.191406 17.320312 -31.6875 19.75 -31.6875 C 21.894531 -31.6875 23.769531 -31.242188 25.375 -30.359375 C 26.988281 -29.472656 28.238281 -28.160156 29.125 -26.421875 C 30.019531 -24.679688 30.46875 -22.503906 30.46875 -19.890625 L 30.46875 0 L 24.375 0 L 24.375 -19.15625 C 24.375 -21.457031 23.78125 -23.238281 22.59375 -24.5 C 21.414062 -25.769531 19.773438 -26.40625 17.671875 -26.40625 C 16.234375 -26.40625 14.945312 -26.097656 13.8125 -25.484375 C 12.675781 -24.878906 11.785156 -23.988281 11.140625 -22.8125 C 10.503906 -21.644531 10.1875 -20.234375 10.1875 -18.578125 Z M 10.1875 -18.578125 "/></g></g></g><g fill="#333333" fill-opacity="1"><g transform="translate(231.217043, 395.625001)"><g><path d="M 4.09375 0 L 4.09375 -31.28125 L 9.984375 -31.28125 L 9.984375 -26.3125 L 10.296875 -26.3125 C 10.867188 -27.988281 11.878906 -29.3125 13.328125 -30.28125 C 14.773438 -31.257812 16.414062 -31.75 18.25 -31.75 C 18.625 -31.75 19.070312 -31.734375 19.59375 -31.703125 C 20.125 -31.679688 20.535156 -31.648438 20.828125 -31.609375 L 20.828125 -25.78125 C 20.585938 -25.84375 20.15625 -25.914062 19.53125 -26 C 18.90625 -26.09375 18.28125 -26.140625 17.65625 -26.140625 C 16.21875 -26.140625 14.9375 -25.835938 13.8125 -25.234375 C 12.695312 -24.628906 11.8125 -23.796875 11.15625 -22.734375 C 10.507812 -21.671875 10.1875 -20.457031 10.1875 -19.09375 L 10.1875 0 Z M 4.09375 0 "/></g></g></g><g fill="#333333" fill-opacity="1"><g transform="translate(253.248807, 395.625001)"><g/></g></g><g fill="#333333" fill-opacity="1"><g transform="translate(268.438915, 395.625001)"><g><path d="M 2.53125 -36.28125 L 2.53125 -41.703125 L 34.796875 -41.703125 L 34.796875 -36.28125 L 21.78125 -36.28125 L 21.78125 0 L 15.515625 0 L 15.515625 -36.28125 Z M 2.53125 -36.28125 "/></g></g></g><g fill="#333333" fill-opacity="1"><g transform="translate(305.762606, 395.625001)"><g><path d="M 17.578125 0.625 C 14.492188 0.625 11.84375 -0.0351562 9.625 -1.359375 C 7.40625 -2.679688 5.691406 -4.546875 4.484375 -6.953125 C 3.285156 -9.359375 2.6875 -12.1875 2.6875 -15.4375 C 2.6875 -18.632812 3.285156 -21.457031 4.484375 -23.90625 C 5.691406 -26.351562 7.375 -28.257812 9.53125 -29.625 C 11.695312 -31 14.234375 -31.6875 17.140625 -31.6875 C 18.910156 -31.6875 20.625 -31.394531 22.28125 -30.8125 C 23.9375 -30.226562 25.421875 -29.3125 26.734375 -28.0625 C 28.054688 -26.8125 29.097656 -25.191406 29.859375 -23.203125 C 30.617188 -21.210938 31 -18.800781 31 -15.96875 L 31 -13.8125 L 6.125 -13.8125 L 6.125 -18.375 L 25.03125 -18.375 C 25.03125 -19.96875 24.703125 -21.382812 24.046875 -22.625 C 23.398438 -23.875 22.488281 -24.859375 21.3125 -25.578125 C 20.132812 -26.296875 18.757812 -26.65625 17.1875 -26.65625 C 15.476562 -26.65625 13.988281 -26.238281 12.71875 -25.40625 C 11.445312 -24.570312 10.46875 -23.484375 9.78125 -22.140625 C 9.09375 -20.804688 8.75 -19.359375 8.75 -17.796875 L 8.75 -14.234375 C 8.75 -12.140625 9.117188 -10.359375 9.859375 -8.890625 C 10.597656 -7.429688 11.632812 -6.316406 12.96875 -5.546875 C 14.300781 -4.785156 15.859375 -4.40625 17.640625 -4.40625 C 18.785156 -4.40625 19.832031 -4.566406 20.78125 -4.890625 C 21.738281 -5.222656 22.5625 -5.722656 23.25 -6.390625 C 23.945312 -7.054688 24.476562 -7.878906 24.84375 -8.859375 L 30.609375 -7.8125 C 30.148438 -6.125 29.320312 -4.644531 28.125 -3.375 C 26.9375 -2.101562 25.453125 -1.117188 23.671875 -0.421875 C 21.890625 0.273438 19.859375 0.625 17.578125 0.625 Z M 17.578125 0.625 "/></g></g></g><g fill="#333333" fill-opacity="1"><g transform="translate(339.441479, 395.625001)"><g><path d="M 4.09375 0 L 4.09375 -31.28125 L 9.984375 -31.28125 L 9.984375 -26.3125 L 10.296875 -26.3125 C 10.867188 -27.988281 11.878906 -29.3125 13.328125 -30.28125 C 14.773438 -31.257812 16.414062 -31.75 18.25 -31.75 C 18.625 -31.75 19.070312 -31.734375 19.59375 -31.703125 C 20.125 -31.679688 20.535156 -31.648438 20.828125 -31.609375 L 20.828125 -25.78125 C 20.585938 -25.84375 20.15625 -25.914062 19.53125 -26 C 18.90625 -26.09375 18.28125 -26.140625 17.65625 -26.140625 C 16.21875 -26.140625 14.9375 -25.835938 13.8125 -25.234375 C 12.695312 -24.628906 11.8125 -23.796875 11.15625 -22.734375 C 10.507812 -21.671875 10.1875 -20.457031 10.1875 -19.09375 L 10.1875 0 Z M 4.09375 0 "/></g></g></g><g fill="#333333" fill-opacity="1"><g transform="translate(361.473255, 395.625001)"><g><path d="M 4.09375 0 L 4.09375 -31.28125 L 9.9375 -31.28125 L 9.9375 -26.1875 L 10.328125 -26.1875 C 10.972656 -27.914062 12.035156 -29.265625 13.515625 -30.234375 C 14.992188 -31.203125 16.769531 -31.6875 18.84375 -31.6875 C 20.925781 -31.6875 22.675781 -31.195312 24.09375 -30.21875 C 25.519531 -29.238281 26.570312 -27.894531 27.25 -26.1875 L 27.578125 -26.1875 C 28.316406 -27.851562 29.5 -29.1875 31.125 -30.1875 C 32.757812 -31.1875 34.703125 -31.6875 36.953125 -31.6875 C 39.796875 -31.6875 42.113281 -30.796875 43.90625 -29.015625 C 45.707031 -27.234375 46.609375 -24.550781 46.609375 -20.96875 L 46.609375 0 L 40.53125 0 L 40.53125 -20.40625 C 40.53125 -22.519531 39.953125 -24.050781 38.796875 -25 C 37.640625 -25.957031 36.257812 -26.4375 34.65625 -26.4375 C 32.675781 -26.4375 31.132812 -25.828125 30.03125 -24.609375 C 28.9375 -23.390625 28.390625 -21.832031 28.390625 -19.9375 L 28.390625 0 L 22.3125 0 L 22.3125 -20.796875 C 22.3125 -22.492188 21.78125 -23.859375 20.71875 -24.890625 C 19.664062 -25.921875 18.289062 -26.4375 16.59375 -26.4375 C 15.4375 -26.4375 14.375 -26.132812 13.40625 -25.53125 C 12.4375 -24.925781 11.65625 -24.085938 11.0625 -23.015625 C 10.476562 -21.941406 10.1875 -20.695312 10.1875 -19.28125 L 10.1875 0 Z M 4.09375 0 "/></g></g></g><g fill="#333333" fill-opacity="1"><g transform="translate(412.134096, 395.625001)"><g><path d="M 4.09375 0 L 4.09375 -31.28125 L 10.1875 -31.28125 L 10.1875 0 Z M 7.171875 -36.109375 C 6.109375 -36.109375 5.195312 -36.460938 4.4375 -37.171875 C 3.6875 -37.890625 3.3125 -38.742188 3.3125 -39.734375 C 3.3125 -40.734375 3.6875 -41.585938 4.4375 -42.296875 C 5.195312 -43.015625 6.109375 -43.375 7.171875 -43.375 C 8.222656 -43.375 9.125 -43.015625 9.875 -42.296875 C 10.632812 -41.585938 11.015625 -40.734375 11.015625 -39.734375 C 11.015625 -38.742188 10.632812 -37.890625 9.875 -37.171875 C 9.125 -36.460938 8.222656 -36.109375 7.171875 -36.109375 Z M 7.171875 -36.109375 "/></g></g></g><g fill="#333333" fill-opacity="1"><g transform="translate(426.407898, 395.625001)"><g><path d="M 10.1875 -18.578125 L 10.1875 0 L 4.09375 0 L 4.09375 -31.28125 L 9.9375 -31.28125 L 9.9375 -26.1875 L 10.328125 -26.1875 C 11.046875 -27.84375 12.175781 -29.171875 13.71875 -30.171875 C 15.257812 -31.179688 17.203125 -31.6875 19.546875 -31.6875 C 21.679688 -31.6875 23.546875 -31.238281 25.140625 -30.34375 C 26.742188 -29.457031 27.988281 -28.140625 28.875 -26.390625 C 29.757812 -24.640625 30.203125 -22.472656 30.203125 -19.890625 L 30.203125 0 L 24.109375 0 L 24.109375 -19.15625 C 24.109375 -21.425781 23.515625 -23.203125 22.328125 -24.484375 C 21.148438 -25.765625 19.53125 -26.40625 17.46875 -26.40625 C 16.0625 -26.40625 14.8125 -26.097656 13.71875 -25.484375 C 12.625 -24.878906 11.757812 -23.988281 11.125 -22.8125 C 10.5 -21.644531 10.1875 -20.234375 10.1875 -18.578125 Z M 10.1875 -18.578125 "/></g></g></g><g fill="#333333" fill-opacity="1"><g transform="translate(460.656905, 395.625001)"><g/></g></g><g fill="#333333" fill-opacity="1"><g transform="translate(475.847013, 395.625001)"><g><path d="M 2.53125 -36.28125 L 2.53125 -41.703125 L 34.796875 -41.703125 L 34.796875 -36.28125 L 21.78125 -36.28125 L 21.78125 0 L 15.515625 0 L 15.515625 -36.28125 Z M 2.53125 -36.28125 "/></g></g></g><g fill="#333333" fill-opacity="1"><g transform="translate(513.170704, 395.625001)"><g><path d="M 31.40625 -41.703125 L 37.71875 -41.703125 L 37.71875 -14.28125 C 37.71875 -11.351562 37.03125 -8.765625 35.65625 -6.515625 C 34.28125 -4.273438 32.347656 -2.515625 29.859375 -1.234375 C 27.378906 0.046875 24.472656 0.6875 21.140625 0.6875 C 17.804688 0.6875 14.894531 0.046875 12.40625 -1.234375 C 9.925781 -2.515625 8 -4.273438 6.625 -6.515625 C 5.257812 -8.765625 4.578125 -11.351562 4.578125 -14.28125 L 4.578125 -41.703125 L 10.875 -41.703125 L 10.875 -14.78125 C 10.875 -12.894531 11.289062 -11.21875 12.125 -9.75 C 12.957031 -8.289062 14.140625 -7.140625 15.671875 -6.296875 C 17.210938 -5.460938 19.035156 -5.046875 21.140625 -5.046875 C 23.253906 -5.046875 25.082031 -5.460938 26.625 -6.296875 C 28.164062 -7.140625 29.347656 -8.289062 30.171875 -9.75 C 30.992188 -11.21875 31.40625 -12.894531 31.40625 -14.78125 Z M 15.421875 -47.046875 C 14.460938 -47.046875 13.625 -47.398438 12.90625 -48.109375 C 12.1875 -48.828125 11.828125 -49.648438 11.828125 -50.578125 C 11.828125 -51.597656 12.1875 -52.445312 12.90625 -53.125 C 13.625 -53.8125 14.460938 -54.15625 15.421875 -54.15625 C 16.441406 -54.15625 17.296875 -53.8125 17.984375 -53.125 C 18.671875 -52.445312 19.015625 -51.597656 19.015625 -50.578125 C 19.015625 -49.648438 18.671875 -48.828125 17.984375 -48.109375 C 17.296875 -47.398438 16.441406 -47.046875 15.421875 -47.046875 Z M 27.40625 -47.046875 C 26.4375 -47.046875 25.59375 -47.398438 24.875 -48.109375 C 24.15625 -48.828125 23.796875 -49.648438 23.796875 -50.578125 C 23.796875 -51.597656 24.15625 -52.445312 24.875 -53.125 C 25.59375 -53.8125 26.4375 -54.15625 27.40625 -54.15625 C 28.414062 -54.15625 29.265625 -53.8125 29.953125 -53.125 C 30.640625 -52.445312 30.984375 -51.597656 30.984375 -50.578125 C 30.984375 -49.648438 30.640625 -48.828125 29.953125 -48.109375 C 29.265625 -47.398438 28.414062 -47.046875 27.40625 -47.046875 Z M 27.40625 -47.046875 "/></g></g></g><g fill="#333333" fill-opacity="1"><g transform="translate(555.462732, 395.625001)"><g><path d="M 8.234375 -41.703125 L 19.828125 -7.734375 L 20.296875 -7.734375 L 31.90625 -41.703125 L 38.71875 -41.703125 L 23.703125 0 L 16.4375 0 L 1.421875 -41.703125 Z M 8.234375 -41.703125 "/></g></g></g><g fill="#333333" fill-opacity="1"><g transform="translate(154.329252, 475.874997)"><g><path d="M 12.75 0 L 1.1875 -41.703125 L 7.796875 -41.703125 L 15.921875 -9.40625 L 16.3125 -9.40625 L 24.765625 -41.703125 L 31.3125 -41.703125 L 39.765625 -9.390625 L 40.15625 -9.390625 L 48.265625 -41.703125 L 54.90625 -41.703125 L 43.3125 0 L 36.984375 0 L 28.203125 -31.234375 L 27.875 -31.234375 L 19.09375 0 Z M 12.75 0 "/></g></g></g><g fill="#333333" fill-opacity="1"><g transform="translate(210.406421, 475.874997)"><g><path d="M 17.578125 0.625 C 14.492188 0.625 11.84375 -0.0351562 9.625 -1.359375 C 7.40625 -2.679688 5.691406 -4.546875 4.484375 -6.953125 C 3.285156 -9.359375 2.6875 -12.1875 2.6875 -15.4375 C 2.6875 -18.632812 3.285156 -21.457031 4.484375 -23.90625 C 5.691406 -26.351562 7.375 -28.257812 9.53125 -29.625 C 11.695312 -31 14.234375 -31.6875 17.140625 -31.6875 C 18.910156 -31.6875 20.625 -31.394531 22.28125 -30.8125 C 23.9375 -30.226562 25.421875 -29.3125 26.734375 -28.0625 C 28.054688 -26.8125 29.097656 -25.191406 29.859375 -23.203125 C 30.617188 -21.210938 31 -18.800781 31 -15.96875 L 31 -13.8125 L 6.125 -13.8125 L 6.125 -18.375 L 25.03125 -18.375 C 25.03125 -19.96875 24.703125 -21.382812 24.046875 -22.625 C 23.398438 -23.875 22.488281 -24.859375 21.3125 -25.578125 C 20.132812 -26.296875 18.757812 -26.65625 17.1875 -26.65625 C 15.476562 -26.65625 13.988281 -26.238281 12.71875 -25.40625 C 11.445312 -24.570312 10.46875 -23.484375 9.78125 -22.140625 C 9.09375 -20.804688 8.75 -19.359375 8.75 -17.796875 L 8.75 -14.234375 C 8.75 -12.140625 9.117188 -10.359375 9.859375 -8.890625 C 10.597656 -7.429688 11.632812 -6.316406 12.96875 -5.546875 C 14.300781 -4.785156 15.859375 -4.40625 17.640625 -4.40625 C 18.785156 -4.40625 19.832031 -4.566406 20.78125 -4.890625 C 21.738281 -5.222656 22.5625 -5.722656 23.25 -6.390625 C 23.945312 -7.054688 24.476562 -7.878906 24.84375 -8.859375 L 30.609375 -7.8125 C 30.148438 -6.125 29.320312 -4.644531 28.125 -3.375 C 26.9375 -2.101562 25.453125 -1.117188 23.671875 -0.421875 C 21.890625 0.273438 19.859375 0.625 17.578125 0.625 Z M 17.578125 0.625 "/></g></g></g><g fill="#333333" fill-opacity="1"><g transform="translate(244.085294, 475.874997)"><g><path d="M 4.09375 0 L 4.09375 -31.28125 L 9.984375 -31.28125 L 9.984375 -26.3125 L 10.296875 -26.3125 C 10.867188 -27.988281 11.878906 -29.3125 13.328125 -30.28125 C 14.773438 -31.257812 16.414062 -31.75 18.25 -31.75 C 18.625 -31.75 19.070312 -31.734375 19.59375 -31.703125 C 20.125 -31.679688 20.535156 -31.648438 20.828125 -31.609375 L 20.828125 -25.78125 C 20.585938 -25.84375 20.15625 -25.914062 19.53125 -26 C 18.90625 -26.09375 18.28125 -26.140625 17.65625 -26.140625 C 16.21875 -26.140625 14.9375 -25.835938 13.8125 -25.234375 C 12.695312 -24.628906 11.8125 -23.796875 11.15625 -22.734375 C 10.507812 -21.671875 10.1875 -20.457031 10.1875 -19.09375 L 10.1875 0 Z M 4.09375 0 "/></g></g></g><g fill="#333333" fill-opacity="1"><g transform="translate(266.117059, 475.874997)"><g><path d="M 9.6875 -10.609375 L 9.65625 -18.046875 L 10.71875 -18.046875 L 23.171875 -31.28125 L 30.46875 -31.28125 L 16.25 -16.203125 L 15.296875 -16.203125 Z M 4.09375 0 L 4.09375 -41.703125 L 10.1875 -41.703125 L 10.1875 0 Z M 23.84375 0 L 12.640625 -14.859375 L 16.84375 -19.125 L 31.3125 0 Z M 23.84375 0 "/></g></g></g><g fill="#333333" fill-opacity="1"><g transform="translate(298.024432, 475.874997)"><g><path d="M 27.53125 -23.640625 L 22.015625 -22.671875 C 21.785156 -23.367188 21.421875 -24.035156 20.921875 -24.671875 C 20.429688 -25.316406 19.765625 -25.84375 18.921875 -26.25 C 18.078125 -26.65625 17.023438 -26.859375 15.765625 -26.859375 C 14.035156 -26.859375 12.59375 -26.472656 11.4375 -25.703125 C 10.289062 -24.941406 9.71875 -23.957031 9.71875 -22.75 C 9.71875 -21.695312 10.101562 -20.851562 10.875 -20.21875 C 11.644531 -19.582031 12.894531 -19.0625 14.625 -18.65625 L 19.59375 -17.515625 C 22.46875 -16.847656 24.609375 -15.820312 26.015625 -14.4375 C 27.429688 -13.050781 28.140625 -11.253906 28.140625 -9.046875 C 28.140625 -7.171875 27.597656 -5.503906 26.515625 -4.046875 C 25.441406 -2.585938 23.941406 -1.441406 22.015625 -0.609375 C 20.097656 0.210938 17.878906 0.625 15.359375 0.625 C 11.847656 0.625 8.988281 -0.125 6.78125 -1.625 C 4.570312 -3.125 3.210938 -5.253906 2.703125 -8.015625 L 8.59375 -8.921875 C 8.957031 -7.390625 9.707031 -6.234375 10.84375 -5.453125 C 11.988281 -4.671875 13.476562 -4.28125 15.3125 -4.28125 C 17.3125 -4.28125 18.90625 -4.695312 20.09375 -5.53125 C 21.289062 -6.363281 21.890625 -7.382812 21.890625 -8.59375 C 21.890625 -9.570312 21.523438 -10.394531 20.796875 -11.0625 C 20.078125 -11.726562 18.96875 -12.226562 17.46875 -12.5625 L 12.171875 -13.71875 C 9.253906 -14.382812 7.097656 -15.441406 5.703125 -16.890625 C 4.316406 -18.347656 3.625 -20.191406 3.625 -22.421875 C 3.625 -24.265625 4.140625 -25.878906 5.171875 -27.265625 C 6.203125 -28.648438 7.625 -29.734375 9.4375 -30.515625 C 11.257812 -31.296875 13.347656 -31.6875 15.703125 -31.6875 C 19.078125 -31.6875 21.734375 -30.957031 23.671875 -29.5 C 25.617188 -28.039062 26.90625 -26.085938 27.53125 -23.640625 Z M 27.53125 -23.640625 "/></g></g></g><g fill="#333333" fill-opacity="1"><g transform="translate(328.75081, 475.874997)"><g><path d="M 18.6875 -31.28125 L 18.6875 -26.390625 L 1.609375 -26.390625 L 1.609375 -31.28125 Z M 6.1875 -38.765625 L 12.28125 -38.765625 L 12.28125 -9.1875 C 12.28125 -8 12.457031 -7.109375 12.8125 -6.515625 C 13.164062 -5.929688 13.625 -5.535156 14.1875 -5.328125 C 14.75 -5.117188 15.363281 -5.015625 16.03125 -5.015625 C 16.519531 -5.015625 16.945312 -5.046875 17.3125 -5.109375 C 17.675781 -5.179688 17.960938 -5.238281 18.171875 -5.28125 L 19.265625 -0.25 C 18.910156 -0.113281 18.40625 0.0234375 17.75 0.171875 C 17.101562 0.316406 16.289062 0.394531 15.3125 0.40625 C 13.707031 0.4375 12.210938 0.15625 10.828125 -0.4375 C 9.441406 -1.039062 8.320312 -1.96875 7.46875 -3.21875 C 6.613281 -4.46875 6.1875 -6.035156 6.1875 -7.921875 Z M 6.1875 -38.765625 "/></g></g></g><g fill="#333333" fill-opacity="1"><g transform="translate(350.069905, 475.874997)"><g><path d="M 13.203125 0.6875 C 11.210938 0.6875 9.414062 0.316406 7.8125 -0.421875 C 6.21875 -1.160156 4.953125 -2.234375 4.015625 -3.640625 C 3.085938 -5.054688 2.625 -6.789062 2.625 -8.84375 C 2.625 -10.601562 2.960938 -12.050781 3.640625 -13.1875 C 4.316406 -14.332031 5.234375 -15.238281 6.390625 -15.90625 C 7.546875 -16.570312 8.835938 -17.070312 10.265625 -17.40625 C 11.691406 -17.75 13.144531 -18.007812 14.625 -18.1875 C 16.5 -18.40625 18.019531 -18.582031 19.1875 -18.71875 C 20.351562 -18.863281 21.195312 -19.097656 21.71875 -19.421875 C 22.25 -19.753906 22.515625 -20.285156 22.515625 -21.015625 L 22.515625 -21.15625 C 22.515625 -22.9375 22.015625 -24.3125 21.015625 -25.28125 C 20.023438 -26.257812 18.546875 -26.75 16.578125 -26.75 C 14.523438 -26.75 12.910156 -26.296875 11.734375 -25.390625 C 10.566406 -24.492188 9.757812 -23.5 9.3125 -22.40625 L 3.578125 -23.703125 C 4.265625 -25.597656 5.257812 -27.132812 6.5625 -28.3125 C 7.875 -29.488281 9.382812 -30.34375 11.09375 -30.875 C 12.800781 -31.414062 14.601562 -31.6875 16.5 -31.6875 C 17.75 -31.6875 19.070312 -31.539062 20.46875 -31.25 C 21.875 -30.957031 23.191406 -30.421875 24.421875 -29.640625 C 25.648438 -28.867188 26.65625 -27.765625 27.4375 -26.328125 C 28.226562 -24.898438 28.625 -23.046875 28.625 -20.765625 L 28.625 0 L 22.6875 0 L 22.6875 -4.28125 L 22.4375 -4.28125 C 22.039062 -3.488281 21.445312 -2.710938 20.65625 -1.953125 C 19.875 -1.191406 18.863281 -0.5625 17.625 -0.0625 C 16.394531 0.4375 14.921875 0.6875 13.203125 0.6875 Z M 14.515625 -4.1875 C 16.203125 -4.1875 17.644531 -4.519531 18.84375 -5.1875 C 20.050781 -5.851562 20.96875 -6.722656 21.59375 -7.796875 C 22.226562 -8.878906 22.546875 -10.039062 22.546875 -11.28125 L 22.546875 -15.3125 C 22.328125 -15.09375 21.90625 -14.890625 21.28125 -14.703125 C 20.664062 -14.523438 19.960938 -14.367188 19.171875 -14.234375 C 18.390625 -14.109375 17.625 -13.992188 16.875 -13.890625 C 16.132812 -13.796875 15.515625 -13.710938 15.015625 -13.640625 C 13.828125 -13.492188 12.75 -13.242188 11.78125 -12.890625 C 10.8125 -12.535156 10.035156 -12.03125 9.453125 -11.375 C 8.878906 -10.71875 8.59375 -9.84375 8.59375 -8.75 C 8.59375 -7.25 9.148438 -6.113281 10.265625 -5.34375 C 11.378906 -4.570312 12.796875 -4.1875 14.515625 -4.1875 Z M 14.515625 -4.1875 "/></g></g></g><g fill="#333333" fill-opacity="1"><g transform="translate(382.71033, 475.874997)"><g><path d="M 18.6875 -31.28125 L 18.6875 -26.390625 L 1.609375 -26.390625 L 1.609375 -31.28125 Z M 6.1875 -38.765625 L 12.28125 -38.765625 L 12.28125 -9.1875 C 12.28125 -8 12.457031 -7.109375 12.8125 -6.515625 C 13.164062 -5.929688 13.625 -5.535156 14.1875 -5.328125 C 14.75 -5.117188 15.363281 -5.015625 16.03125 -5.015625 C 16.519531 -5.015625 16.945312 -5.046875 17.3125 -5.109375 C 17.675781 -5.179688 17.960938 -5.238281 18.171875 -5.28125 L 19.265625 -0.25 C 18.910156 -0.113281 18.40625 0.0234375 17.75 0.171875 C 17.101562 0.316406 16.289062 0.394531 15.3125 0.40625 C 13.707031 0.4375 12.210938 0.15625 10.828125 -0.4375 C 9.441406 -1.039062 8.320312 -1.96875 7.46875 -3.21875 C 6.613281 -4.46875 6.1875 -6.035156 6.1875 -7.921875 Z M 6.1875 -38.765625 "/></g></g></g><g fill="#333333" fill-opacity="1"><g transform="translate(404.029436, 475.874997)"><g><path d="M 18.6875 -31.28125 L 18.6875 -26.390625 L 1.609375 -26.390625 L 1.609375 -31.28125 Z M 6.1875 -38.765625 L 12.28125 -38.765625 L 12.28125 -9.1875 C 12.28125 -8 12.457031 -7.109375 12.8125 -6.515625 C 13.164062 -5.929688 13.625 -5.535156 14.1875 -5.328125 C 14.75 -5.117188 15.363281 -5.015625 16.03125 -5.015625 C 16.519531 -5.015625 16.945312 -5.046875 17.3125 -5.109375 C 17.675781 -5.179688 17.960938 -5.238281 18.171875 -5.28125 L 19.265625 -0.25 C 18.910156 -0.113281 18.40625 0.0234375 17.75 0.171875 C 17.101562 0.316406 16.289062 0.394531 15.3125 0.40625 C 13.707031 0.4375 12.210938 0.15625 10.828125 -0.4375 C 9.441406 -1.039062 8.320312 -1.96875 7.46875 -3.21875 C 6.613281 -4.46875 6.1875 -6.035156 6.1875 -7.921875 Z M 6.1875 -38.765625 "/></g></g></g><g fill="#333333" fill-opacity="1"><g transform="translate(425.348542, 475.874997)"><g/></g></g><g fill="#333333" fill-opacity="1"><g transform="translate(440.538651, 475.874997)"><g><path d="M 4.578125 -41.703125 L 12.21875 -41.703125 L 25.5 -9.28125 L 25.984375 -9.28125 L 39.265625 -41.703125 L 46.890625 -41.703125 L 46.890625 0 L 40.90625 0 L 40.90625 -30.171875 L 40.53125 -30.171875 L 28.21875 -0.0625 L 23.25 -0.0625 L 10.953125 -30.203125 L 10.5625 -30.203125 L 10.5625 0 L 4.578125 0 Z M 4.578125 -41.703125 "/></g></g></g><g fill="#333333" fill-opacity="1"><g transform="translate(492.01399, 475.874997)"><g><path d="M 17.578125 0.625 C 14.492188 0.625 11.84375 -0.0351562 9.625 -1.359375 C 7.40625 -2.679688 5.691406 -4.546875 4.484375 -6.953125 C 3.285156 -9.359375 2.6875 -12.1875 2.6875 -15.4375 C 2.6875 -18.632812 3.285156 -21.457031 4.484375 -23.90625 C 5.691406 -26.351562 7.375 -28.257812 9.53125 -29.625 C 11.695312 -31 14.234375 -31.6875 17.140625 -31.6875 C 18.910156 -31.6875 20.625 -31.394531 22.28125 -30.8125 C 23.9375 -30.226562 25.421875 -29.3125 26.734375 -28.0625 C 28.054688 -26.8125 29.097656 -25.191406 29.859375 -23.203125 C 30.617188 -21.210938 31 -18.800781 31 -15.96875 L 31 -13.8125 L 6.125 -13.8125 L 6.125 -18.375 L 25.03125 -18.375 C 25.03125 -19.96875 24.703125 -21.382812 24.046875 -22.625 C 23.398438 -23.875 22.488281 -24.859375 21.3125 -25.578125 C 20.132812 -26.296875 18.757812 -26.65625 17.1875 -26.65625 C 15.476562 -26.65625 13.988281 -26.238281 12.71875 -25.40625 C 11.445312 -24.570312 10.46875 -23.484375 9.78125 -22.140625 C 9.09375 -20.804688 8.75 -19.359375 8.75 -17.796875 L 8.75 -14.234375 C 8.75 -12.140625 9.117188 -10.359375 9.859375 -8.890625 C 10.597656 -7.429688 11.632812 -6.316406 12.96875 -5.546875 C 14.300781 -4.785156 15.859375 -4.40625 17.640625 -4.40625 C 18.785156 -4.40625 19.832031 -4.566406 20.78125 -4.890625 C 21.738281 -5.222656 22.5625 -5.722656 23.25 -6.390625 C 23.945312 -7.054688 24.476562 -7.878906 24.84375 -8.859375 L 30.609375 -7.8125 C 30.148438 -6.125 29.320312 -4.644531 28.125 -3.375 C 26.9375 -2.101562 25.453125 -1.117188 23.671875 -0.421875 C 21.890625 0.273438 19.859375 0.625 17.578125 0.625 Z M 17.578125 0.625 "/></g></g></g><g fill="#333333" fill-opacity="1"><g transform="translate(525.692851, 475.874997)"><g><path d="M 4.09375 0 L 4.09375 -31.28125 L 10.1875 -31.28125 L 10.1875 0 Z M 7.171875 -36.109375 C 6.109375 -36.109375 5.195312 -36.460938 4.4375 -37.171875 C 3.6875 -37.890625 3.3125 -38.742188 3.3125 -39.734375 C 3.3125 -40.734375 3.6875 -41.585938 4.4375 -42.296875 C 5.195312 -43.015625 6.109375 -43.375 7.171875 -43.375 C 8.222656 -43.375 9.125 -43.015625 9.875 -42.296875 C 10.632812 -41.585938 11.015625 -40.734375 11.015625 -39.734375 C 11.015625 -38.742188 10.632812 -37.890625 9.875 -37.171875 C 9.125 -36.460938 8.222656 -36.109375 7.171875 -36.109375 Z M 7.171875 -36.109375 "/></g></g></g><g fill="#333333" fill-opacity="1"><g transform="translate(539.966654, 475.874997)"><g><path d="M 17.578125 0.625 C 14.492188 0.625 11.84375 -0.0351562 9.625 -1.359375 C 7.40625 -2.679688 5.691406 -4.546875 4.484375 -6.953125 C 3.285156 -9.359375 2.6875 -12.1875 2.6875 -15.4375 C 2.6875 -18.632812 3.285156 -21.457031 4.484375 -23.90625 C 5.691406 -26.351562 7.375 -28.257812 9.53125 -29.625 C 11.695312 -31 14.234375 -31.6875 17.140625 -31.6875 C 18.910156 -31.6875 20.625 -31.394531 22.28125 -30.8125 C 23.9375 -30.226562 25.421875 -29.3125 26.734375 -28.0625 C 28.054688 -26.8125 29.097656 -25.191406 29.859375 -23.203125 C 30.617188 -21.210938 31 -18.800781 31 -15.96875 L 31 -13.8125 L 6.125 -13.8125 L 6.125 -18.375 L 25.03125 -18.375 C 25.03125 -19.96875 24.703125 -21.382812 24.046875 -22.625 C 23.398438 -23.875 22.488281 -24.859375 21.3125 -25.578125 C 20.132812 -26.296875 18.757812 -26.65625 17.1875 -26.65625 C 15.476562 -26.65625 13.988281 -26.238281 12.71875 -25.40625 C 11.445312 -24.570312 10.46875 -23.484375 9.78125 -22.140625 C 9.09375 -20.804688 8.75 -19.359375 8.75 -17.796875 L 8.75 -14.234375 C 8.75 -12.140625 9.117188 -10.359375 9.859375 -8.890625 C 10.597656 -7.429688 11.632812 -6.316406 12.96875 -5.546875 C 14.300781 -4.785156 15.859375 -4.40625 17.640625 -4.40625 C 18.785156 -4.40625 19.832031 -4.566406 20.78125 -4.890625 C 21.738281 -5.222656 22.5625 -5.722656 23.25 -6.390625 C 23.945312 -7.054688 24.476562 -7.878906 24.84375 -8.859375 L 30.609375 -7.8125 C 30.148438 -6.125 29.320312 -4.644531 28.125 -3.375 C 26.9375 -2.101562 25.453125 -1.117188 23.671875 -0.421875 C 21.890625 0.273438 19.859375 0.625 17.578125 0.625 Z M 17.578125 0.625 "/></g></g></g><g fill="#333333" fill-opacity="1"><g transform="translate(573.645516, 475.874997)"><g><path d="M 4.09375 0 L 4.09375 -31.28125 L 9.984375 -31.28125 L 9.984375 -26.3125 L 10.296875 -26.3125 C 10.867188 -27.988281 11.878906 -29.3125 13.328125 -30.28125 C 14.773438 -31.257812 16.414062 -31.75 18.25 -31.75 C 18.625 -31.75 19.070312 -31.734375 19.59375 -31.703125 C 20.125 -31.679688 20.535156 -31.648438 20.828125 -31.609375 L 20.828125 -25.78125 C 20.585938 -25.84375 20.15625 -25.914062 19.53125 -26 C 18.90625 -26.09375 18.28125 -26.140625 17.65625 -26.140625 C 16.21875 -26.140625 14.9375 -25.835938 13.8125 -25.234375 C 12.695312 -24.628906 11.8125 -23.796875 11.15625 -22.734375 C 10.507812 -21.671875 10.1875 -20.457031 10.1875 -19.09375 L 10.1875 0 Z M 4.09375 0 "/></g></g></g></svg>