<svg width="42" height="42" viewBox="0 0 42 42" fill="none" xmlns="http://www.w3.org/2000/svg">
<path d="M9.64587 0.598877H32.5573C34.9532 0.598877 37.2552 1.552 38.9532 3.24992C40.6459 4.94263 41.599 7.24471 41.599 9.64575V32.5572C41.599 34.953 40.6459 37.2551 38.9532 38.953C37.2552 40.6458 34.9532 41.5989 32.5573 41.5989H9.64587C7.24483 41.5989 4.94275 40.6458 3.25004 38.953C1.55212 37.2551 0.598999 34.953 0.598999 32.5572V9.64575C0.598999 7.24471 1.55212 4.94263 3.25004 3.24992C4.94275 1.552 7.24483 0.598877 9.64587 0.598877Z" fill="white"/>
<path d="M21 20.375C23.4162 20.375 25.375 18.4162 25.375 16C25.375 13.5838 23.4162 11.625 21 11.625C18.5838 11.625 16.625 13.5838 16.625 16C16.625 18.4162 18.5838 20.375 21 20.375Z" stroke="#222222" stroke-linecap="round"/>
<path d="M12.0614 27.1849C12.861 24.2543 15.8934 22.875 18.9312 22.875H23.0687C26.1066 22.875 29.139 24.2543 29.9386 27.1849C30.1025 27.7859 30.2335 28.4361 30.3077 29.1269C30.3815 29.8134 29.8154 30.375 29.125 30.375H12.875C12.1846 30.375 11.6185 29.8134 11.6923 29.1269C11.7665 28.4361 11.8974 27.7859 12.0614 27.1849Z" stroke="#222222" stroke-linecap="round"/>
</svg>
